<?xml version="1.0" encoding="UTF-8"?>
<svg id="Layer_1" data-name="Layer 1" xmlns="http://www.w3.org/2000/svg" viewBox="0 0 693.73 237.87">
  <defs>
    <style>
      .cls-1 {
        fill: #1d1d1b;
      }
    </style>
  </defs>
  <g>
    <path class="cls-1" d="m108.61,131.78c9.39,0,14.49-6.24,14.49-14.99v-44.63h19.98v45.63c-.2,20.08-16.29,27.97-34.47,27.97s-34.27-7.89-34.47-27.97v-45.63h19.98v44.63c0,8.75,5.1,14.99,14.49,14.99Z"/>
    <path class="cls-1" d="m240.97,114.4c.07-7.82,4.8-14.89,12.7-14.89,9.19,0,12.78,6.3,12.78,14.89h-25.48Zm35.48,6.6v-4.7c0-13.88-7.86-23.68-22.09-23.68-15.88,0-23.28,12.29-23.28,26.98s6.4,26.18,22.48,26.18c11.99,0,20.78-5.69,22.28-17.08h-9.99c-1.1,7.29-4.8,10.19-12.19,10.19-9.7,0-12.91-8.62-12.91-17.88h35.69Z"/>
    <rect class="cls-1" x="287.96" y="72.16" width="9.5" height="72.11"/>
    <polygon class="cls-1" points="22.38 144.27 42.36 144.27 42.36 86.15 64.74 86.15 64.74 72.16 0 72.16 0 86.15 22.38 86.15 22.38 144.27"/>
    <path class="cls-1" d="m70.37,37.05c-4.87,1.53-9.9.31-9.89-6.21,0-9.93,23.34-18.26,26.57-26.94.8-2.16.85-3.95-.18-3.89-.74.04-.16,1.12-1.8,2.76-9.66,9.67-25.86,9.65-38.28,15.22-8.15,3.66-32.03,14.89-26.53,39.96.26,1.19.97,5.18,1.7,5.18.85,0,.84-2.37.82-5.25-.18-14.92,17.49-19.09,23.24-28.84.69-1.17,1.88-2.8,2.16-2.04.14.37.05.91-.18,1.95-1.8,8.01-10.18,13.15-7.81,18.88,3.08,7.43,11.96,1.89,14.69-2.89.73-1.32,1.14-2.16,1.63-1.99.37.13.35,1.64.13,3-1.46,8.62-3.44,13.47-9.75,18.37-2.02,1.57-5.19,1.9-4.78,3.11.11.31,1.48.28,2.57.17,16.81-1.07,30.86-20.89,34.59-33.83.39-.91.51-1.77.1-2.09-.51-.39-1.24.51-1.99,1.17-1.92,1.69-4.56,3.44-6.99,4.21Z"/>
    <path class="cls-1" d="m327.21,144.27v-43.53h11.58v-6.6h-11.58v-8.1c0-5.8,2.79-6.79,8.19-6.79,1.59,0,3.19.21,4.79.29v-7.88c-2.22-.5-4.49-1-6.79-1-8.99,0-15.69,4.5-15.69,14.1v9.37h-9.78v6.6h9.78v43.53h9.5Z"/>
    <path class="cls-1" d="m344.24,94.14v6.6h8.59v31.95c0,6.67.1,13.08,14.19,13.08,2.19,0,4.25-.21,6.49-.59v-7.29c-1.55.37-3.5.6-5,.6-3.4,0-6.19-1.71-6.19-5.29v-32.45h11.59v-6.6h-11.59v-13.68l-9.5,3v10.7h-8.59Z"/>
    <path class="cls-1" d="m163.06,144.27h24.77c30.84,0,34.08-26.1,34.08-36.05s-3.24-36.06-34.08-36.06h-24.77v72.11Zm10.01-63.53h14.77c16.67,0,23.58,12.58,23.58,27.48s-6.92,27.47-23.58,27.47h-14.77v-54.94Z"/>
  </g>
  <g>
    <path class="cls-1" d="m6.41,236.38v-71.96h34.48c13.55.1,24.92,6.18,24.92,18.84,0,8.87-7.47,14.25-15.55,15.75v.2c9.57,1.3,17.34,7.38,17.34,17.64,0,20.93-26.71,19.53-27.41,19.53H6.41Zm19.93-43.35l10.17-.1c5.38,0,8.87-2.09,8.87-7.58,0-4.09-3.49-6.98-8.17-6.98h-10.86v14.65Zm11.66,29.4c4.98,0,8.67-2.99,8.67-7.47,0-3.99-2.79-7.77-7.28-8.07h-13.06v15.55h11.66Z"/>
    <path class="cls-1" d="m119.28,164.42h23.62l-24.82,31.69,26.81,40.26h-24.72l-23.72-38.27h-.2v38.27h-19.93v-71.96h19.93v31.59h.2l22.82-31.59Z"/>
    <path class="cls-1" d="m162.57,236.38v-71.96h25.71c12.36,0,23.22,4.78,23.22,18.74,0,7.48-5.08,13.55-12.16,15.55v.2c9.27,1.4,14.35,9.67,14.35,18.64,0,8.37-5.48,14.65-13.06,17.44-3.69,1.4-8.07,1.5-12.36,1.4h-25.71Zm9.97-41.66h12.36c9.47.3,16.15-1.4,16.15-10.86s-6.68-11.16-16.15-10.86h-12.36v21.73Zm0,33.09h16.64c7.67,0,14.05-3.39,14.05-12.26s-6.38-12.26-14.05-12.26h-16.64v24.52Z"/>
    <path class="cls-1" d="m273.15,211.36c0,15.55-8.47,26.51-24.92,26.51s-24.92-10.96-24.92-26.51,8.47-26.51,24.92-26.51,24.92,10.96,24.92,26.51Zm-24.92,19.63c11.26,0,14.95-8.97,14.95-19.63s-3.69-19.64-14.95-19.64-14.95,8.97-14.95,19.64,3.69,19.63,14.95,19.63Z"/>
    <path class="cls-1" d="m318.83,186.34h9.47v50.03h-9.27v-7.37h-.2c-3.79,6.28-10.17,8.87-17.14,8.87-10.46,0-16.45-7.97-16.45-18.04v-33.49h9.47v29.6c0,8.67,1.99,15.05,11.06,15.05,3.89,0,9.17-1.99,11.16-7.18,1.79-4.68,1.89-10.56,1.89-11.76v-25.72Z"/>
    <path class="cls-1" d="m417.94,186.34l-17.64,50.03h-10.76l-11.66-41.16h-.2l-12.96,41.16h-11.06l-16.55-50.03h10.27l12.06,40.27h.2l12.46-40.27h12.26l11.26,39.47h.2l12.46-39.47h9.67Z"/>
    <path class="cls-1" d="m426.4,236.38v-71.96h9.47v42.36l18.74-20.43h12.26l-21.13,21.23,22.43,28.8h-12.26l-19.83-27.01h-.2v27.01h-9.47Z"/>
    <path class="cls-1" d="m509.49,186.34h9.47v50.03h-9.27v-7.37h-.2c-3.79,6.28-10.17,8.87-17.14,8.87-10.46,0-16.45-7.97-16.45-18.04v-33.49h9.47v29.6c0,8.67,1.99,15.05,11.06,15.05,3.89,0,9.17-1.99,11.16-7.18,1.79-4.68,1.89-10.56,1.89-11.76v-25.72Z"/>
    <path class="cls-1" d="m543.27,193.72h.2c3.19-6.28,10.17-8.87,15.15-8.87,3.49,0,18.94.9,18.94,16.94v34.58h-9.47v-31.5c0-8.27-3.49-12.76-11.46-12.76,0,0-5.18-.3-9.17,3.69-1.39,1.4-3.99,3.59-3.99,13.36v27.21h-9.47v-50.03h9.27v7.37Z"/>
    <path class="cls-1" d="m627.5,164.42h9.47v63.09c0,2.99.3,5.98.5,8.87h-9.67l-.3-7.47v-.5h-.2c-3.39,6.98-9.97,9.47-17.24,9.47-14.85,0-20.73-13.65-20.73-26.51,0-13.55,6.88-26.51,22.42-26.51,6.38,0,12.66,2.29,15.55,8.27h.2v-28.7Zm-14.05,66.88c11.46,0,14.15-10.67,14.15-20.03s-3.39-19.83-14.15-19.83c-11.36,0-14.15,10.46-14.15,19.83s3.49,20.03,14.15,20.03Z"/>
    <path class="cls-1" d="m658.45,213.15c-.7,8.77,2.89,17.84,12.56,17.84,7.37,0,11.06-2.89,12.16-10.17h9.97c-1.5,11.36-10.27,17.04-22.23,17.04-16.05,0-22.42-11.36-22.42-26.11s7.37-26.91,23.22-26.91c14.95.3,22.03,9.77,22.03,23.62v4.68h-35.28Zm25.32-6.58c.2-8.37-3.59-14.85-12.76-14.85-7.87,0-12.56,6.68-12.56,14.85h25.32Z"/>
  </g>
  <g>
    <path class="cls-1" d="m401.9,98.42c6.05,0,9.5,3.12,9.5,9.22s-3.45,9.22-9.5,9.22h-4.98v-18.44h4.98Zm.41,16.9c5.18,0,7.3-3.04,7.3-7.69,0-5.44-3.19-7.84-8.43-7.69h-2.6v15.37h3.73Z"/>
    <path class="cls-1" d="m416.2,110.81c.05,2.73,1.3,5.03,4.44,5.03,1.81,0,3.32-1.3,3.7-3.06h1.61c-.79,3.06-2.71,4.47-5.8,4.47-3.83,0-5.62-3.29-5.62-6.79s1.92-6.79,5.72-6.79c4.29,0,5.85,3.14,5.85,7.15h-9.91Zm8.25-1.4c-.18-2.48-1.51-4.34-4.16-4.34-2.5,0-3.83,2.09-4.03,4.34h8.2Z"/>
    <path class="cls-1" d="m430.93,121.76h-1.53v-14.84c.03-1-.08-2.02-.13-2.89h1.58l.08,1.89.05.05c.89-1.51,2.68-2.32,4.39-2.32,3.8,0,5.26,3.42,5.26,6.74s-1.46,6.84-5.18,6.84c-1.86,0-3.42-.84-4.47-2.37h-.05v6.89Zm4.37-5.92c2.94,0,3.68-3.24,3.68-5.62s-1-5.16-3.91-5.16-4.14,2.48-4.14,5.08c0,2.91,1.02,5.69,4.37,5.69Z"/>
    <path class="cls-1" d="m451.39,107.82c-.15-2.09-1.23-2.76-3.04-2.76-1.61,0-2.94.49-3.14,2.22h-1.63c.38-2.63,2.35-3.63,4.8-3.63,2.83,0,4.6,1.3,4.55,4.24v6.08c-.03,1,.08,2.02.13,2.89h-1.58l-.05-1.89h-.05l-.08.18c-.56,1.07-2.27,2.09-4.01,2.09-2.37,0-4.26-1.46-4.26-3.96,0-1.74,1.05-3.06,2.58-3.7,1.71-.74,3.93-.49,5.8-.59v-1.17Zm-3.83,8.02c3.35,0,3.98-2.76,3.83-5.44-2.17.08-6.72-.33-6.72,2.89,0,1.74,1.33,2.55,2.89,2.55Z"/>
    <path class="cls-1" d="m458.46,116.86h-1.53v-9.93c.03-1-.08-2.02-.13-2.89h1.58l.08,1.89h.05c.46-1.3,1.61-2.22,2.89-2.27.51-.03,1.02,0,1.53.03v1.48c-.31-.03-.64-.1-.94-.1-2.27,0-3.47,1.63-3.52,4.09v7.71Z"/>
    <path class="cls-1" d="m467.37,105.45h-2.55v-1.4h2.55v-2.73l1.53-.66v3.4h2.91v1.4h-2.91v8.58c-.03,1.17.59,1.81,1.76,1.81.46,0,.92-.03,1.33-.15v1.33c-.49.13-1.05.23-1.56.23-3.24,0-3.06-2.07-3.06-3.8v-7.99Z"/>
    <path class="cls-1" d="m476.29,105.93l.05.05c.89-1.58,2.35-2.32,4.01-2.32,2.02,0,3.6,1.12,4.16,2.81.94-1.51,2.43-2.81,4.42-2.81,4.19,0,4.52,3.7,4.52,5.18v8.02h-1.53v-8.27c0-2.22-1.28-3.52-3.37-3.52-2.53,0-3.68,2.12-3.68,4.42v7.38h-1.53v-8.27c0-2.22-1.28-3.52-3.37-3.52-2.53,0-3.68,2.12-3.68,4.42v7.38h-1.53v-9.93c0-1-.08-2.02-.13-2.89h1.58l.08,1.89Z"/>
    <path class="cls-1" d="m498.43,110.81c.05,2.73,1.3,5.03,4.44,5.03,1.81,0,3.32-1.3,3.7-3.06h1.61c-.79,3.06-2.71,4.47-5.8,4.47-3.83,0-5.62-3.29-5.62-6.79s1.92-6.79,5.72-6.79c4.29,0,5.85,3.14,5.85,7.15h-9.91Zm8.25-1.4c-.18-2.48-1.51-4.34-4.16-4.34-2.5,0-3.83,2.09-4.03,4.34h8.2Z"/>
    <path class="cls-1" d="m513.29,116.86h-1.53v-9.93c0-1-.08-2.02-.13-2.89h1.58l.08,1.89.05.05c.89-1.58,2.35-2.32,4.01-2.32,4.19,0,4.52,3.7,4.52,5.18v8.02h-1.53v-8.27c0-2.22-1.28-3.52-3.37-3.52-2.53,0-3.68,2.12-3.68,4.42v7.38Z"/>
    <path class="cls-1" d="m526.85,105.45h-2.55v-1.4h2.55v-2.73l1.53-.66v3.4h2.91v1.4h-2.91v8.58c-.03,1.17.59,1.81,1.76,1.81.46,0,.92-.03,1.33-.15v1.33c-.49.13-1.05.23-1.56.23-3.24,0-3.06-2.07-3.06-3.8v-7.99Z"/>
  </g>
  <g>
    <path class="cls-1" d="m531.82,134.24c-.19-1.65-.93-3-2.54-3.6-1.74-.65-3.39-.41-4.86.81-.52.44-1.05.87-1.53,1.27-1.43-2.81-5.43-3.53-8.16-.23,0-.54-.02-.86,0-1.16.07-.83-.53-.54-.92-.6-.51-.07-.72.06-.71.69.06,3.82.08,7.64.08,11.46,0,.6.08.92.79.92.69,0,.8-.27.79-.88-.03-2.14,0-4.29-.02-6.43,0-.67.06-1.33.25-1.96.57-1.94,2.1-2.97,4.01-2.72,1.68.22,2.67,1.44,2.8,3.45.02.35.01.7.02,1.05,0,2.22.03,4.45-.02,6.67-.01.7.24.82.85.83.75.01.64-.44.66-.91.07-2.57-.18-5.15.14-7.71.15-1.21.66-2.25,1.72-2.9,2.37-1.46,5.11.06,5.17,2.88.05,2.65.03,5.3,0,7.96,0,.63.27.73.75.66.36-.05.9.24.87-.52-.09-3,.19-6.01-.16-9Z"/>
    <path class="cls-1" d="m458.24,130.37c-1.34.24-2.48.89-3.51,2.2,0-2.37,0-4.46,0-6.54,0-.55.2-1.11-.79-1.11s-.82.49-.82,1.08c0,5.65-.01,11.3-.05,16.95,0,.59.05.85.7.83.58-.02.98-.08.9-.82-.03-.29-.1-.62.21-.93.23.25.44.5.68.72,2.78,2.55,6.81,1.62,8.19-1.92.88-2.26.92-4.57.17-6.86-.87-2.69-3.09-4.08-5.68-3.61Zm3.91,10.01c-.54,1.32-1.4,2.24-2.87,2.32-1.61.09-2.98-.44-3.75-1.96-1.09-2.16-1.15-4.43-.25-6.66.62-1.53,1.85-2.32,3.53-2.31,1.65,0,2.71.86,3.36,2.35.43.98.54,2.02.58,3.05-.08,1.1-.19,2.18-.6,3.2Z"/>
    <path class="cls-1" d="m439.21,124.92c-.99-.01-.79.55-.8,1.1,0,3.78.04,7.56-.04,11.33-.06,2.8-1.63,4.73-3.97,5.13-3.47.6-6.06-1.57-6.09-5.17-.04-3.86-.03-7.71,0-11.57,0-.71-.24-.82-.85-.81-.58.01-.88.06-.87.79.04,3.97-.03,7.95.03,11.92.07,4.06,2.75,6.57,6.82,6.53,3.97-.05,6.56-2.64,6.6-6.63.02-1.87,0-3.74,0-5.61,0-1.99-.01-3.97,0-5.96,0-.62.05-1.05-.85-1.06Z"/>
    <path class="cls-1" d="m476.66,140.75c0-2.14,0-4.29,0-6.43,0-1.41-.41-2.67-1.7-3.34-1.93-1-3.92-.95-5.84.06-.81.43-1.33,1.16-1.59,2.06-.08.3-.43.78.08.86.44.07,1.05.38,1.42-.28,1.01-1.81,2.47-2.36,4.4-1.71,1.2.41,1.98,1.72,1.67,3.2-.24,1.14-1.3.56-1.98.6-1.49.09-2.99.07-4.34.85-1.46.84-2.2,2.4-1.98,4.14.21,1.62,1.25,2.8,2.9,3.23,2.14.55,3.89-.19,5.45-1.88.02.29.03.36.03.44-.01.66-.15,1.27.93,1.24,1.23-.04.56-.84.62-1.3.07-.57-.05-1.16-.05-1.75Zm-5.25,1.96c-1.67.01-2.71-.75-2.94-2.15-.24-1.49.51-2.54,2.19-3,1.26-.35,2.56-.37,3.85-.35.31,0,.56,0,.65.45.54,2.5-1.33,5.03-3.76,5.05Z"/>
    <path class="cls-1" d="m401.14,130.31c-2,.05-3.83,1.11-4.84,3.42-1.02,2.33-1.03,4.7,0,7.02,1.15,2.61,3.67,3.87,6.42,3.32,3.23-.66,5.19-3.83,4.77-7.7-.41-3.77-2.63-6.05-6.35-6.06Zm3.4,10.98c-1.78,2.12-4.87,1.88-6.35-.51-.67-1.08-.95-2.28-.94-3.56.03-1.6.4-3.09,1.54-4.27,1.58-1.64,4.1-1.58,5.62.11,1.85,2.07,1.92,6.1.13,8.23Z"/>
    <path class="cls-1" d="m507.17,136.66c-1.39-.41-2.8-.78-4.18-1.22-.73-.24-1.28-.72-1.27-1.6.01-.89.51-1.44,1.27-1.77,1.82-.81,3.62-.23,4.69,1.52.41.67,1.07.38,1.55.29.43-.08.1-.6.02-.89-.46-1.78-1.98-2.67-4.99-2.67-.63,0-1.75.19-2.76.84-1.07.69-1.52,1.72-1.47,2.97.04,1.25.67,2.14,1.79,2.62.63.27,1.3.46,1.95.66,1.02.31,2.11.41,3.08.89,1.25.61,1.69,1.89.99,2.99-.83,1.32-2.15,1.53-3.54,1.43-1.27-.1-2.5-.43-2.88-1.87-.28-1.05-1.05-.71-1.55-.61-.68.15-.17.77-.09,1.12.23,1,.87,1.72,1.78,2.16,2.16,1.03,4.31.93,6.38-.24,1.41-.8,2.01-2.11,1.85-3.73-.16-1.61-1.2-2.45-2.63-2.87Z"/>
    <path class="cls-1" d="m490.73,134.87c-.12-3.16-2.18-4.9-5.15-4.53-1.36.17-2.4.92-3.21,1.99-.31-.18-.24-.48-.22-.66.12-.9-.35-.98-1.07-.97-.98.01-.47.69-.5,1.06-.06.57.05,1.16.05,1.75,0,3.12,0,6.23,0,9.35,0,.46-.11.92.64.92.67,0,.91-.14.92-.9.02-2.61-.24-5.22.14-7.81.34-2.28,1.89-3.5,3.99-3.29,1.88.18,2.88,1.49,2.89,3.8.01,2.49.02,4.99-.01,7.48,0,.57.15.74.71.71.51-.03.86-.02.86-.73-.03-2.73.07-5.46-.04-8.18Z"/>
    <path class="cls-1" d="m413.16,128.31c.03-1.66.53-2.15,2.14-2.18.34,0,.86.36.92-.44.05-.72-.35-.84-.87-.94-2.37-.45-3.66.7-3.67,3.27,0,.78.2,1.64-.06,2.32-.36.92-1.34.26-2.03.39-.48.09-.52.31-.52.7,0,.43.02.78.59.74.38-.03.77.04,1.15-.01.73-.1.91.22.89.92-.05,1.63-.01,3.27-.01,4.91,0,1.64.02,3.27,0,4.91,0,.58.03.92.77.92.78,0,.74-.4.74-.94-.01-2.8,0-5.61,0-8.41,0-2.24,0-2.25,2.14-2.29.52,0,.84-.02.85-.72,0-.71-.34-.7-.84-.71-2.17-.04-2.17-.05-2.14-2.3,0-.04,0-.08,0-.12Z"/>
    <path class="cls-1" d="m450.03,130.29c-1.63-.1-2.88.47-3.8,2.13-.04-.44-.09-.63-.07-.81.11-.76-.27-.88-.93-.9-.85-.02-.65.49-.65.98.02,3.66.02,7.33.04,10.99,0,.54-.2,1.12.78,1.12.92,0,.84-.47.83-1.07-.01-2.3-.02-4.6,0-6.9.02-2.68,1.21-3.97,3.81-4.02.6-.01.59-.26.59-.69,0-.44.06-.79-.6-.83Z"/>
    <path class="cls-1" d="m495.65,130.71c-.62.01-.87.15-.86.84.03,3.81.03,7.62,0,11.42,0,.73.3.79.89.82.69.03.71-.32.71-.84-.02-1.9,0-3.81,0-5.71,0-1.9-.02-3.81.01-5.71,0-.56-.09-.83-.74-.82Z"/>
    <path class="cls-1" d="m495.53,124.93c-.9-.08-.9.4-.81,1.05-.16.73.12.94.88.97.92.03.89-.43.94-1.11.06-.87-.37-.85-1-.91Z"/>
  </g>
</svg>