<?xml version="1.0" encoding="UTF-8" standalone="no"?><!DOCTYPE svg PUBLIC "-//W3C//DTD SVG 1.1//EN" "http://www.w3.org/Graphics/SVG/1.1/DTD/svg11.dtd"><svg width="100%" height="100%" viewBox="0 0 1080 1260" version="1.1" xmlns="http://www.w3.org/2000/svg" xmlns:xlink="http://www.w3.org/1999/xlink" xml:space="preserve" xmlns:serif="http://www.serif.com/" style="fill-rule:evenodd;clip-rule:evenodd;"><g><g transform="matrix(0.893349,-0.449363,0.481531,0.83367,-170.66,418.646)"><text x="739.808px" y="518.265px" style="font-family:'Arial-BoldMT', 'Arial', sans-serif;font-weight:700;font-size:36.311px;">Simulation Outcome</text></g></g><g><g transform="matrix(0.893349,-0.449363,0.481531,0.83367,-336.386,477.257)"><text x="742.618px" y="863.054px" style="font-family:'Arial-BoldMT', 'Arial', sans-serif;font-weight:700;font-size:36.311px;">Modelling Framework</text></g></g><g><g transform="matrix(0.893349,-0.449363,0.481531,0.83367,-146.3,235.873)"><text x="381.196px" y="388.251px" style="font-family:'ArialMT', 'Arial', sans-serif;font-size:30.261px;">Residential</text></g></g><g><g transform="matrix(0.893349,-0.449363,0.481531,0.83367,-164.989,241.408)"><text x="379.303px" y="426.644px" style="font-family:'ArialMT', 'Arial', sans-serif;font-size:30.261px;">States change</text></g></g><g><g transform="matrix(0.893349,-0.449363,0.481531,0.83367,-70.1664,314.094)"><text x="596.167px" y="277.756px" style="font-family:'ArialMT', 'Arial', sans-serif;font-size:30.261px;">Economic</text></g></g><g><g transform="matrix(0.893349,-0.449363,0.481531,0.83367,-91.7747,316.568)"><text x="585.904px" y="320.357px" style="font-family:'ArialMT', 'Arial', sans-serif;font-size:30.261px;">States change</text></g></g><g><g transform="matrix(0.893349,-0.449363,0.481531,0.83367,-455.842,193.613)"><text x="74.365px" y="963.121px" style="font-family:'Arial-BoldMT', 'Arial', sans-serif;font-weight:700;font-size:30.261px;">Human Mobility</text></g></g><g><g transform="matrix(0.893349,-0.449363,0.481531,0.83367,-341.11,252.874)"><text x="277.76px" y="769.906px" style="font-family:'ArialMT', 'Arial', sans-serif;font-size:30.261px;">Entities</text></g></g><g><g transform="matrix(0.893349,-0.449363,0.481531,0.83367,-63.2194,82.7994)"><text x="125.385px" y="159.059px" style="font-family:'Arial-BoldMT', 'Arial', sans-serif;font-weight:700;font-size:30.261px;">Segregation</text></g></g><g><g transform="matrix(0.893349,-0.449363,0.481531,0.83367,-146.873,396.268)"><text x="710.683px" y="462.416px" style="font-family:'Arial-BoldMT', 'Arial', sans-serif;font-weight:700;font-size:36.311px;">Pattern Observation</text></g></g><g><g transform="matrix(0.893349,-0.449363,0.481531,0.83367,-450.263,367.39)"><text x="435.745px" y="1031.58px" style="font-family:'ArialMT', 'Arial', sans-serif;font-size:30.261px;">Economic Mobility</text></g></g><g><g transform="matrix(0.893349,-0.449363,0.481531,0.83367,-533.596,264.838)"><text x="165.618px" y="1144.8px" style="font-family:'ArialMT', 'Arial', sans-serif;font-size:30.261px;">Residential Mobility</text></g></g><g><g transform="matrix(0.893349,-0.449363,0.481531,0.83367,-81.3418,174.51)"><text x="301.136px" y="235.62px" style="font-family:'ArialMT', 'Arial', sans-serif;font-size:30.261px;">Economic</text></g></g><g><g transform="matrix(0.893349,-0.449363,0.481531,0.83367,-98.3617,181.795)"><text x="304.027px" y="271.605px" style="font-family:'ArialMT', 'Arial', sans-serif;font-size:30.261px;">Segregation</text></g></g><g><g transform="matrix(0.893349,-0.449363,0.481531,0.83367,-245.623,327.842)"><text x="499.791px" y="620.782px" style="font-family:'ArialMT', 'Arial', sans-serif;font-size:30.261px;">Interactions</text></g></g><g><g transform="matrix(0.893349,-0.449363,0.481531,0.83367,-241.205,357.599)"><text x="564.132px" y="625.859px" style="font-family:'ArialMT', 'Arial', sans-serif;font-size:30.261px;">and</text></g></g><g><g transform="matrix(0.893349,-0.449363,0.481531,0.83367,-269.112,353.472)"><text x="535.818px" y="677.541px" style="font-family:'ArialMT', 'Arial', sans-serif;font-size:30.261px;">Behaviours</text></g></g><g><g transform="matrix(0.893349,-0.449363,0.481531,0.83367,-516.963,530.753)"><text x="724.358px" y="1234.02px" style="font-family:'Arial-BoldMT', 'Arial', sans-serif;font-weight:700;font-size:36.311px;">Human Behaviours</text></g></g><g><g transform="matrix(0.893349,-0.449363,0.481531,0.83367,-281.891,142.919)"><text x="93.682px" y="606.155px" style="font-family:'Arial-BoldMT', 'Arial', sans-serif;font-weight:700;font-size:30.261px;">Social Simulation</text></g></g><path d="M441.506,666.324c31.454,15.027 84.17,25.619 136.268,24.97c52.098,-0.652 103.58,-12.548 133.342,-28.341c31.48,-15.012 53.672,-40.177 52.308,-65.045c-1.364,-24.869 -26.287,-49.442 -59.368,-63.649c-31.453,-15.027 -84.17,-25.619 -136.268,-24.97c-52.097,0.651 -103.579,12.548 -133.341,28.341c-31.481,15.014 -53.672,40.177 -52.308,65.045c1.364,24.868 26.286,49.442 59.367,63.649Z" style="fill:none;fill-rule:nonzero;stroke:#000;stroke-width:1.23px;"/><path d="M147.35,814.287c72.812,34.781 194.837,59.304 315.435,57.796c120.598,-1.505 239.769,-29.044 308.666,-65.598c72.865,-34.755 124.242,-93.002 121.081,-150.568c-3.157,-57.568 -60.845,-114.451 -137.424,-147.337c-72.811,-34.782 -194.836,-59.305 -315.434,-57.797c-120.598,1.505 -239.769,29.044 -308.666,65.598c-72.866,34.755 -124.239,93.002 -121.082,150.568c3.157,57.565 60.849,114.451 137.424,147.338Z" style="fill:none;fill-rule:nonzero;stroke:#4f9b2b;stroke-width:1.23px;"/><path d="M147.35,1168.28c72.812,34.782 194.837,59.305 315.435,57.797c120.598,-1.508 239.769,-29.044 308.666,-65.599c72.865,-34.755 124.242,-93.002 121.081,-150.567c-3.157,-57.568 -60.845,-114.452 -137.424,-147.338c-72.811,-34.782 -194.836,-59.308 -315.434,-57.8c-120.598,1.509 -239.769,29.047 -308.666,65.602c-72.866,34.752 -124.239,93.002 -121.082,150.567c3.157,57.565 60.849,114.452 137.424,147.338Z" style="fill:none;fill-rule:nonzero;stroke:#000;stroke-width:1.23px;"/><path d="M575.407,303.839c21.843,10.436 58.448,17.793 94.63,17.34c36.179,-0.451 71.928,-8.712 92.6,-19.681c21.858,-10.424 37.272,-27.899 36.323,-45.17c-0.947,-17.268 -18.254,-34.334 -41.226,-44.2c-21.843,-10.436 -58.452,-17.793 -94.63,-17.34c-36.182,0.451 -71.932,8.712 -92.6,19.681c-21.861,10.424 -37.272,27.899 -36.326,45.17c0.946,17.271 18.253,34.334 41.229,44.2Z" style="fill:none;fill-rule:nonzero;stroke:#000;stroke-width:1.23px;"/><rect x="9.325" y="242.137" width="1.265" height="1.178"/><rect x="9.325" y="252.519" width="1.265" height="1.178"/><rect x="9.325" y="260.759" width="1.265" height="1.178"/><rect x="9.325" y="268.997" width="1.265" height="1.178"/><rect x="9.325" y="277.237" width="1.265" height="1.178"/><rect x="9.325" y="285.477" width="1.265" height="1.178"/><rect x="9.325" y="293.715" width="1.265" height="1.178"/><rect x="9.325" y="301.955" width="1.265" height="1.178"/><rect x="9.325" y="310.195" width="1.265" height="1.178"/><rect x="9.325" y="318.433" width="1.265" height="1.178"/><rect x="9.325" y="326.673" width="1.265" height="1.178"/><rect x="9.325" y="334.913" width="1.265" height="1.178"/><rect x="9.325" y="343.151" width="1.265" height="1.178"/><rect x="9.325" y="351.391" width="1.265" height="1.178"/><rect x="9.325" y="359.628" width="1.265" height="1.178"/><rect x="9.325" y="367.869" width="1.265" height="1.178"/><rect x="9.325" y="376.109" width="1.265" height="1.178"/><rect x="9.325" y="384.347" width="1.265" height="1.178"/><rect x="9.325" y="392.587" width="1.265" height="1.178"/><rect x="9.325" y="400.827" width="1.265" height="1.178"/><rect x="9.325" y="409.065" width="1.265" height="1.178"/><rect x="9.325" y="417.305" width="1.265" height="1.178"/><rect x="9.325" y="425.545" width="1.265" height="1.178"/><rect x="9.325" y="433.783" width="1.265" height="1.178"/><rect x="9.325" y="442.023" width="1.265" height="1.178"/><rect x="9.325" y="450.263" width="1.265" height="1.178"/><rect x="9.325" y="458.501" width="1.265" height="1.178"/><rect x="9.325" y="466.741" width="1.265" height="1.178"/><rect x="9.325" y="474.981" width="1.265" height="1.178"/><rect x="9.325" y="483.219" width="1.265" height="1.178"/><rect x="9.325" y="491.459" width="1.265" height="1.178"/><rect x="9.325" y="499.699" width="1.265" height="1.178"/><rect x="9.325" y="507.937" width="1.265" height="1.178"/><rect x="9.325" y="516.177" width="1.265" height="1.178"/><rect x="9.325" y="524.414" width="1.265" height="1.178"/><rect x="9.325" y="532.655" width="1.265" height="1.178"/><rect x="9.325" y="540.895" width="1.265" height="1.178"/><rect x="9.325" y="549.132" width="1.265" height="1.178"/><rect x="9.325" y="557.373" width="1.265" height="1.178"/><rect x="9.325" y="565.613" width="1.265" height="1.178"/><rect x="9.325" y="573.85" width="1.265" height="1.178"/><rect x="9.325" y="582.091" width="1.265" height="1.178"/><rect x="9.325" y="590.331" width="1.265" height="1.178"/><rect x="9.325" y="598.569" width="1.265" height="1.178"/><rect x="9.325" y="606.809" width="1.265" height="1.178"/><rect x="9.325" y="615.049" width="1.265" height="1.178"/><rect x="9.325" y="623.287" width="1.265" height="1.178"/><rect x="9.325" y="631.527" width="1.265" height="1.178"/><rect x="9.325" y="639.767" width="1.265" height="1.178"/><rect x="9.325" y="648.005" width="1.265" height="1.178"/><rect x="9.325" y="656.245" width="1.265" height="1.178"/><rect x="9.325" y="664.482" width="1.265" height="1.178"/><rect x="9.325" y="672.723" width="1.265" height="1.178"/><rect x="9.325" y="680.963" width="1.265" height="1.178"/><rect x="9.325" y="689.2" width="1.265" height="1.178"/><rect x="9.325" y="697.441" width="1.265" height="1.178"/><rect x="9.325" y="705.681" width="1.265" height="1.178"/><rect x="9.325" y="713.918" width="1.265" height="1.178"/><rect x="9.325" y="722.159" width="1.265" height="1.178"/><rect x="9.325" y="730.399" width="1.265" height="1.178"/><rect x="9.325" y="738.636" width="1.265" height="1.178"/><rect x="9.325" y="746.877" width="1.265" height="1.178"/><rect x="9.325" y="755.117" width="1.265" height="1.178"/><rect x="9.325" y="763.354" width="1.265" height="1.178"/><rect x="9.325" y="771.595" width="1.265" height="1.178"/><rect x="9.325" y="779.835" width="1.265" height="1.178"/><rect x="9.325" y="788.072" width="1.265" height="1.178"/><rect x="9.325" y="796.313" width="1.265" height="1.178"/><rect x="9.325" y="804.55" width="1.265" height="1.178"/><rect x="9.325" y="812.79" width="1.265" height="1.178"/><rect x="9.325" y="821.031" width="1.265" height="1.178"/><rect x="9.325" y="829.268" width="1.265" height="1.178"/><rect x="9.325" y="837.509" width="1.265" height="1.178"/><rect x="9.325" y="845.749" width="1.265" height="1.178"/><rect x="9.325" y="853.986" width="1.265" height="1.178"/><rect x="9.325" y="862.227" width="1.265" height="1.178"/><rect x="9.325" y="870.467" width="1.265" height="1.178"/><rect x="9.325" y="878.704" width="1.265" height="1.178"/><rect x="9.325" y="886.945" width="1.265" height="1.178"/><rect x="9.325" y="895.185" width="1.265" height="1.178"/><rect x="9.325" y="903.422" width="1.265" height="1.178"/><rect x="9.325" y="911.663" width="1.265" height="1.178"/><rect x="9.325" y="919.903" width="1.265" height="1.178"/><rect x="9.325" y="928.14" width="1.265" height="1.178"/><rect x="9.325" y="936.381" width="1.265" height="1.178"/><rect x="9.325" y="944.621" width="1.265" height="1.178"/><rect x="9.325" y="952.858" width="1.265" height="1.178"/><rect x="9.325" y="961.099" width="1.265" height="1.178"/><rect x="9.325" y="969.339" width="1.265" height="1.178"/><rect x="9.325" y="977.576" width="1.265" height="1.178"/><rect x="9.325" y="985.817" width="1.265" height="1.178"/><rect x="9.325" y="994.054" width="1.265" height="1.178"/><rect x="9.325" y="1002.29" width="1.265" height="1.178"/><rect x="9.325" y="1010.53" width="1.265" height="1.178"/><rect x="9.325" y="1020.92" width="1.265" height="1.178"/><path d="M408.686,1036.82c29.125,13.912 77.937,23.724 126.174,23.12c48.24,-0.604 95.907,-11.617 123.467,-26.241c29.146,-13.9 49.694,-37.201 48.433,-60.227c-1.262,-23.027 -24.34,-45.78 -54.97,-58.935c-29.125,-13.913 -77.936,-23.721 -126.174,-23.117c-48.24,0.601 -95.907,11.617 -123.467,26.238c-29.146,13.903 -49.697,37.2 -48.432,60.227c1.261,23.027 24.339,45.78 54.969,58.935Z" style="fill:none;fill-rule:nonzero;stroke:#000;stroke-width:1.23px;"/><path d="M368.806,410.125c21.84,10.436 58.449,17.794 94.628,17.34c36.181,-0.451 71.931,-8.712 92.599,-19.68c21.861,-10.425 37.272,-27.9 36.326,-45.17c-0.946,-17.268 -18.253,-34.335 -41.229,-44.2c-21.843,-10.437 -58.448,-17.791 -94.63,-17.34c-36.179,0.453 -71.931,8.715 -92.599,19.68c-21.859,10.427 -37.273,27.899 -36.323,45.17c0.946,17.271 18.253,34.334 41.228,44.2Z" style="fill:none;fill-rule:nonzero;stroke:#000;stroke-width:1.23px;"/><path d="M191.112,1146.27c29.122,13.912 77.933,23.72 126.17,23.12c48.241,-0.604 95.91,-11.62 123.467,-26.242c29.146,-13.9 49.698,-37.2 48.433,-60.227c-1.262,-23.026 -24.339,-45.78 -54.97,-58.935c-29.122,-13.912 -77.933,-23.72 -126.173,-23.12c-48.241,0.604 -95.907,11.62 -123.464,26.242c-29.15,13.9 -49.698,37.2 -48.436,60.227c1.265,23.026 24.339,45.78 54.973,58.935Z" style="fill:none;fill-rule:nonzero;stroke:#000;stroke-width:1.23px;"/><path d="M147.35,389.496c72.812,34.782 194.837,59.304 315.435,57.799c120.598,-1.508 239.769,-29.047 308.666,-65.601c72.865,-34.755 124.242,-93.002 121.081,-150.567c-3.157,-57.566 -60.845,-114.452 -137.424,-147.338c-72.811,-34.782 -194.836,-59.305 -315.434,-57.797c-120.598,1.505 -239.769,29.044 -308.666,65.598c-72.866,34.755 -124.239,93.002 -121.082,150.568c3.157,57.565 60.849,114.451 137.424,147.338Z" style="fill:none;fill-rule:nonzero;stroke:#6f75a6;stroke-width:1.23px;"/><path d="M147.35,460.294c72.812,34.782 194.837,59.305 315.435,57.797c120.598,-1.505 239.769,-29.044 308.666,-65.599c72.865,-34.754 124.242,-93.002 121.081,-150.567c-3.157,-57.568 -60.845,-114.452 -137.424,-147.338c-72.811,-34.782 -194.836,-59.305 -315.434,-57.796c-120.598,1.505 -239.769,29.044 -308.666,65.598c-72.866,34.755 -124.239,93.002 -121.082,150.567c3.157,57.565 60.849,114.452 137.424,147.338Z" style="fill:none;fill-rule:nonzero;stroke:#6f75a6;stroke-width:1.23px;"/><path d="M292.381,348.823c43.686,20.869 116.903,35.584 189.261,34.679c72.357,-0.904 143.862,-17.427 185.199,-39.36c43.719,-20.852 74.544,-55.802 72.649,-90.34c-1.893,-34.542 -36.51,-68.672 -82.455,-88.403c-43.686,-20.87 -116.9,-35.584 -189.26,-34.68c-72.358,0.905 -143.863,17.427 -185.199,39.36c-43.72,20.852 -74.545,55.802 -72.649,90.341c1.892,34.541 36.509,68.671 82.454,88.403Z" style="fill:none;fill-rule:nonzero;stroke:#000;stroke-width:1.23px;"/><path d="M200.226,787.688c26.211,12.524 70.141,21.35 113.557,20.81c43.415,-0.544 86.317,-10.458 111.12,-23.616c26.232,-12.512 44.725,-33.481 43.59,-54.207c-1.139,-20.722 -21.907,-41.201 -49.476,-53.041c-26.211,-12.521 -70.14,-21.35 -113.556,-20.806c-43.413,0.543 -86.315,10.457 -111.117,23.615c-26.232,12.512 -44.729,33.481 -43.59,54.204c1.136,20.725 21.903,41.205 49.472,53.041Z" style="fill:none;fill-rule:nonzero;stroke:#000;stroke-width:1.23px;"/></svg>