<svg viewBox="0 0 100 35" xmlns="http://www.w3.org/2000/svg" xml:space="preserve" style="fill-rule:evenodd;clip-rule:evenodd;stroke-linejoin:round;stroke-miterlimit:2"><path d="M16.327 18.977c1.329 0 2.05-.883 2.05-2.121v-6.315h2.827v6.456c-.028 2.842-2.304 3.958-4.877 3.958-2.574 0-4.85-1.116-4.878-3.958v-6.456h2.827v6.315c0 1.238.722 2.121 2.051 2.121ZM40.076 17.451v-.665c0-1.964-1.113-3.35-3.126-3.35-2.247 0-3.293 1.739-3.293 3.817 0 2.093.905 3.704 3.181 3.704 1.697 0 2.94-.805 3.153-2.417h-1.414c-.156 1.032-.678 1.441-1.724 1.441-1.373 0-1.828-1.22-1.828-2.53h5.051Zm-5.021-.933c.01-1.107.68-2.106 1.798-2.106 1.299 0 1.808.891 1.808 2.106h-3.606ZM41.704 10.541h1.344v10.204h-1.344zM4.125 20.745h2.827v-8.224h3.167v-1.979H.958v1.979h3.167v8.224ZM10.916 5.573c-.69.216-1.401.043-1.399-.879.001-1.406 3.302-2.584 3.76-3.813.113-.306.12-.558-.026-.55-.105.006-.023.159-.254.391C11.629 2.09 9.338 2.088 7.58 2.875c-1.154.518-4.532 2.108-3.754 5.654.037.168.137.733.24.733.12 0 .119-.336.116-.743-.026-2.112 2.475-2.701 3.288-4.08.097-.165.266-.396.306-.289.019.052.007.129-.026.275-.255 1.134-1.441 1.862-1.105 2.672.436 1.052 1.693.268 2.079-.408.103-.187.161-.306.23-.282.052.019.05.232.018.424-.206 1.22-.487 1.906-1.38 2.6-.285.222-.735.269-.676.44.015.044.209.039.363.024 2.378-.153 4.367-2.956 4.894-4.788.055-.129.072-.25.013-.295-.072-.056-.176.072-.282.166-.272.238-.645.487-.988.595ZM47.258 20.745v-6.16h1.639v-.934h-1.639v-1.146c0-.82.395-.961 1.16-.961.224 0 .451.029.677.042v-1.115c-.314-.071-.635-.142-.961-.142-1.272 0-2.219.638-2.219 1.996v1.326H44.53v.934h1.385v6.16h1.343ZM49.668 13.651v.934h1.216v4.521c0 .944.014 1.851 2.008 1.851.311 0 .602-.029.919-.085v-1.031a3.334 3.334 0 0 1-.707.084c-.481 0-.876-.241-.876-.748v-4.592h1.639v-.934h-1.639v-1.936l-1.344.423v1.514l-1.216-.001ZM25.447 11.756h2.09c2.359 0 3.337 1.779 3.337 3.888 0 2.108-.978 3.886-3.337 3.886h-2.09v-7.774Zm-1.416 8.989h3.505c4.364 0 4.822-3.694 4.822-5.101s-.458-5.103-4.822-5.103h-3.505v10.204ZM6.336 31.803c.705 0 1.227-.423 1.227-1.058 0-.564-.395-1.1-1.03-1.142H4.686v2.2h1.65Zm-1.65-4.16 1.438-.014c.762 0 1.256-.296 1.256-1.072 0-.578-.494-.987-1.157-.987H4.686v2.073Zm-2.821 6.134V23.595h4.88c1.918.014 3.526.875 3.526 2.666 0 1.255-1.058 2.016-2.2 2.228v.028c1.354.183 2.454 1.044 2.454 2.497 0 2.961-3.78 2.763-3.879 2.763H1.865ZM17.836 23.595h3.343l-3.512 4.485 3.794 5.697h-3.498l-3.356-5.415h-.028v5.415h-2.821V23.595h2.821v4.471h.028l3.229-4.471ZM25.372 32.564h2.355c1.086 0 1.988-.479 1.988-1.734s-.902-1.735-1.988-1.735h-2.355v3.469Zm0-4.681h1.748c1.34.042 2.285-.198 2.285-1.538s-.945-1.579-2.285-1.537h-1.748v3.075Zm-1.411 5.894V23.595H27.6c1.749 0 3.286.677 3.286 2.652 0 1.057-.719 1.917-1.721 2.2v.028c1.312.197 2.031 1.368 2.031 2.637 0 1.185-.776 2.073-1.847 2.468-.522.197-1.143.212-1.749.197h-3.639ZM36.083 33.016c1.593 0 2.115-1.269 2.115-2.778 0-1.509-.522-2.779-2.115-2.779-1.594 0-2.116 1.27-2.116 2.779s.522 2.778 2.116 2.778Zm3.525-2.778c0 2.2-1.198 3.751-3.525 3.751-2.328 0-3.526-1.551-3.526-3.751s1.198-3.752 3.526-3.752c2.327 0 3.525 1.552 3.525 3.752ZM46.073 26.698h1.339v7.079h-1.311v-1.043h-.028c-.536.888-1.439 1.255-2.426 1.255-1.481 0-2.327-1.128-2.327-2.553v-4.738h1.34v4.188c0 1.227.282 2.13 1.565 2.13.55 0 1.298-.282 1.58-1.016.253-.662.268-1.494.268-1.664v-3.638ZM60.096 26.698 57.6 33.777h-1.523l-1.65-5.824h-.028l-1.834 5.824H51l-2.341-7.079h1.452l1.707 5.698h.028l1.763-5.698h1.734l1.594 5.585h.028l1.763-5.585h1.368ZM61.293 33.777V23.595h1.34v5.994l2.651-2.891h1.735l-2.99 3.004 3.173 4.075h-1.734l-2.807-3.821h-.028v3.821h-1.34ZM73.05 26.698h1.34v7.079h-1.311v-1.043h-.029c-.536.888-1.438 1.255-2.425 1.255-1.481 0-2.327-1.128-2.327-2.553v-4.738h1.34v4.188c0 1.227.282 2.13 1.565 2.13.55 0 1.297-.282 1.58-1.016.253-.662.267-1.494.267-1.664v-3.638ZM77.83 27.741h.028c.451-.888 1.438-1.255 2.143-1.255.494 0 2.68.127 2.68 2.398v4.893h-1.34v-4.456c0-1.171-.493-1.805-1.621-1.805 0 0-.734-.042-1.298.522-.197.197-.564.508-.564 1.889v3.85h-1.34v-7.079h1.312v1.043ZM87.76 33.058c1.622 0 2.003-1.509 2.003-2.834 0-1.284-.479-2.807-2.003-2.807-1.607 0-2.002 1.481-2.002 2.807 0 1.325.494 2.834 2.002 2.834Zm1.989-9.463h1.34v8.927c0 .424.042.846.07 1.255h-1.368l-.042-1.057v-.071h-.028c-.48.987-1.411 1.34-2.44 1.34-2.101 0-2.933-1.932-2.933-3.751 0-1.918.973-3.752 3.173-3.752.902 0 1.791.325 2.2 1.171h.028v-4.062ZM97.71 29.561c.028-1.185-.508-2.102-1.805-2.102-1.114 0-1.777.945-1.777 2.102h3.582Zm-3.582.931c-.099 1.241.409 2.524 1.777 2.524 1.043 0 1.565-.409 1.72-1.439h1.411c-.212 1.608-1.453 2.412-3.145 2.412-2.271 0-3.174-1.608-3.174-3.695 0-2.073 1.044-3.808 3.286-3.808 2.116.043 3.117 1.382 3.117 3.343v.663h-4.992ZM57.884 16.649c.733 0 1.033-.429 1.033-1.087 0-.77-.452-1.109-1.192-1.088h-.369v2.175h.528Zm-.058-2.391c.856 0 1.344.44 1.344 1.304 0 .863-.488 1.304-1.344 1.304h-.705v-2.608h.705ZM61.017 15.811c-.026-.35-.214-.614-.589-.614-.354 0-.542.296-.571.614h1.16Zm-1.168.199c.008.387.185.712.629.712a.54.54 0 0 0 .524-.434h.228c-.112.434-.383.633-.82.633-.542 0-.795-.467-.795-.962 0-.491.271-.961.809-.961.607 0 .827.445.827 1.012h-1.402ZM62.552 16.722c.416 0 .521-.459.521-.795 0-.347-.141-.73-.553-.73-.423 0-.586.35-.586.719 0 .412.145.806.618.806Zm-.618.838h-.216v-2.099c.003-.141-.011-.286-.018-.409h.224l.01.268.008.007c.126-.213.379-.329.621-.329.539 0 .745.485.745.954 0 .455-.206.969-.734.969a.741.741 0 0 1-.632-.337h-.008v.976ZM64.287 16.722c.473 0 .564-.39.542-.77-.307.011-.95-.047-.95.408 0 .246.188.362.408.362Zm.542-1.135c-.022-.296-.174-.39-.43-.39-.228 0-.416.069-.445.314h-.231c.054-.372.333-.513.68-.513.401 0 .65.185.643.6v.86c-.004.141.011.286.018.408h-.224l-.008-.267h-.007l-.01.025c-.08.152-.322.297-.568.297-.336 0-.603-.206-.603-.561 0-.245.148-.433.365-.523.242-.105.556-.069.82-.084v-.166ZM65.83 16.866h-.217v-1.405c.004-.141-.011-.286-.018-.409h.224l.011.268h.007a.469.469 0 0 1 .408-.322c.073-.003.145 0 .217.004v.209c-.043-.003-.09-.014-.133-.014-.322 0-.492.231-.499.578v1.091ZM67.091 15.251h-.361v-.199h.361v-.386l.217-.094v.48h.412v.199h-.412v1.214c-.004.166.083.257.249.257.065 0 .13-.004.188-.022v.188a.908.908 0 0 1-.22.033c-.459 0-.434-.293-.434-.539v-1.131ZM68.352 15.32l.007.007a.625.625 0 0 1 .568-.329c.285 0 .509.159.589.398.133-.213.343-.398.625-.398.592 0 .639.524.639.734v1.134h-.217v-1.17c0-.315-.18-.499-.476-.499-.358 0-.521.3-.521.625v1.044h-.217v-1.17c0-.315-.18-.499-.477-.499-.357 0-.52.3-.52.625v1.044h-.217v-1.405c0-.141-.011-.286-.018-.409h.224l.011.268ZM72.652 15.811c-.025-.35-.213-.614-.589-.614-.354 0-.542.296-.571.614h1.16Zm-1.167.199c.007.387.184.712.629.712a.541.541 0 0 0 .524-.434h.227c-.112.434-.383.633-.82.633-.542 0-.795-.467-.795-.962 0-.491.271-.961.81-.961.607 0 .827.445.827 1.012h-1.402ZM73.588 16.866h-.217v-1.405c0-.141-.011-.286-.018-.409h.224l.011.268.007.007a.625.625 0 0 1 .567-.329c.593 0 .64.524.64.734v1.134h-.217v-1.17c0-.315-.18-.499-.477-.499-.357 0-.52.3-.52.625v1.044ZM75.507 15.251h-.362v-.199h.362v-.386l.217-.094v.48h.412v.199h-.412v1.214c-.004.166.083.257.249.257.065 0 .13-.004.188-.022v.188a.908.908 0 0 1-.221.033c-.458 0-.433-.293-.433-.539v-1.131ZM76.21 19.326c-.027-.234-.131-.425-.359-.51a.654.654 0 0 0-.687.115l-.217.18c-.202-.398-.768-.5-1.154-.033 0-.077-.003-.121 0-.165.011-.117-.074-.077-.13-.084-.073-.009-.102.008-.101.097.009.54.012 1.081.012 1.621 0 .086.011.13.112.13.099 0 .114-.038.113-.125-.004-.304-.001-.607-.002-.911a.957.957 0 0 1 .034-.277c.081-.275.297-.421.567-.385.238.032.378.204.397.488.003.049.002.099.002.149 0 .315.004.629-.003.943-.001.1.034.116.121.117.106.002.092-.062.093-.128.01-.364-.025-.729.02-1.091a.535.535 0 0 1 .244-.411c.335-.207.724.008.731.408.007.375.004.751 0 1.126-.001.089.038.103.106.093.051-.008.127.033.124-.074-.012-.425.026-.85-.023-1.273ZM66.353 20.195c-.076.186-.198.317-.406.328-.228.013-.422-.062-.531-.276a1.1 1.1 0 0 1-.035-.942.499.499 0 0 1 .499-.328c.233.001.384.122.475.332.061.139.077.286.083.432a1.45 1.45 0 0 1-.085.454Zm-.554-1.417a.78.78 0 0 0-.496.312v-.926c-.001-.077.028-.158-.112-.158-.134 0-.116.07-.116.153-.001.8-.002 1.6-.008 2.399-.001.083.008.12.1.117.082-.002.138-.01.127-.115-.004-.04-.014-.087.029-.131.033.035.063.071.097.103.393.361.964.228 1.158-.272.124-.319.13-.647.025-.971-.124-.381-.438-.578-.804-.511ZM63.106 18.007c-.14-.002-.112.077-.113.156-.001.534.006 1.069-.006 1.604-.008.396-.231.668-.562.726-.49.084-.857-.222-.862-.732a89.218 89.218 0 0 1 .001-1.636c.001-.1-.034-.117-.12-.115-.081.002-.124.008-.124.112.006.563-.004 1.125.005 1.687.01.575.389.93.966.923.562-.006.928-.373.934-.939.003-.264 0-.529 0-.793 0-.281-.001-.562.001-.843.001-.089.007-.149-.12-.15ZM67.662 20.525c-.236.002-.384-.106-.415-.304-.034-.211.071-.359.31-.425.178-.05.362-.053.545-.05.044.001.079.002.093.063.076.354-.189.713-.533.716Zm.743-.278-.001-.91c-.001-.199-.058-.378-.241-.472a.852.852 0 0 0-.826.009.458.458 0 0 0-.225.291c-.012.042-.06.11.012.121.062.01.148.053.2-.04.143-.255.349-.334.622-.241.169.057.28.243.236.453-.034.161-.184.078-.28.084-.211.013-.423.01-.614.121a.572.572 0 0 0-.281.586c.03.23.178.397.411.457.302.078.55-.026.772-.265.002.04.004.051.003.062-.001.093-.021.18.132.175.174-.005.079-.119.087-.184.009-.081-.007-.164-.007-.247ZM58.2 20.323c-.251.299-.688.266-.898-.072a.907.907 0 0 1-.132-.504c.004-.227.056-.437.218-.604a.536.536 0 0 1 .795.015c.262.294.271.863.017 1.165Zm-.481-1.553c-.283.006-.542.156-.685.483-.144.33-.145.665 0 .994a.79.79 0 0 0 .908.47c.457-.093.735-.542.675-1.089-.058-.534-.371-.857-.898-.858ZM72.722 19.668c-.197-.058-.396-.11-.591-.173-.104-.033-.182-.101-.18-.226.001-.126.071-.203.179-.251.257-.115.512-.032.664.215.058.094.151.053.219.041.061-.012.014-.085.003-.126-.065-.251-.28-.378-.706-.378a.78.78 0 0 0-.39.118.447.447 0 0 0-.208.42.394.394 0 0 0 .253.371c.089.039.183.065.276.093.145.043.298.058.436.125.177.086.24.267.141.424-.117.186-.305.217-.501.202-.179-.014-.354-.061-.407-.265-.039-.149-.149-.101-.219-.086-.097.021-.024.109-.013.159a.439.439 0 0 0 .252.305.933.933 0 0 0 .903-.034c.199-.113.284-.299.262-.527-.022-.228-.17-.347-.373-.407ZM70.396 19.415c-.017-.447-.309-.694-.729-.641a.67.67 0 0 0-.454.282c-.044-.026-.034-.067-.031-.093.017-.128-.049-.138-.151-.137-.138.001-.066.098-.071.15-.008.081.007.165.007.247v1.323c0 .066-.016.131.091.13.096 0 .129-.02.13-.126.004-.369-.034-.739.02-1.106.049-.322.268-.495.564-.466.266.026.408.211.41.538.001.352.003.705-.002 1.058-.001.081.022.105.1.101.072-.003.123-.002.121-.103-.005-.385.01-.772-.005-1.157ZM59.419 18.486c.005-.235.076-.304.303-.309.048-.001.122.051.13-.063.007-.101-.05-.119-.124-.133-.336-.064-.518.099-.519.462-.001.111.028.233-.009.328-.051.13-.189.037-.287.055-.068.012-.074.044-.074.099 0 .061.003.111.084.104.054-.004.109.005.162-.002.104-.013.129.032.126.131-.007.231-.002.463-.002.694 0 .232.002.463-.002.695-.001.082.004.129.109.13.111.002.105-.056.104-.133l-.001-1.19c0-.316 0-.318.303-.324.073-.002.119-.003.12-.102 0-.101-.048-.099-.12-.1-.306-.005-.306-.007-.303-.325v-.017ZM64.637 18.767c-.23-.015-.407.066-.538.301-.006-.063-.013-.09-.009-.115.015-.107-.038-.124-.131-.127-.12-.004-.093.069-.093.139.003.518.004 1.036.006 1.555 0 .077-.029.158.11.159.131.001.118-.066.118-.152a63.506 63.506 0 0 1 0-.976c.002-.379.172-.562.539-.569.085-.002.084-.037.083-.097 0-.062.009-.112-.085-.118ZM71.093 18.825c-.088.002-.123.021-.122.12.004.538.004 1.077 0 1.616-.001.103.042.111.125.115.097.005.101-.044.1-.119-.002-.269-.001-.538-.001-.808 0-.269-.002-.539.002-.808.001-.08-.013-.118-.104-.116ZM71.075 18.009c-.127-.012-.128.057-.115.149-.023.103.017.133.124.137.13.004.126-.061.133-.158.009-.124-.053-.12-.142-.128Z" style="fill:#231f20;fill-rule:nonzero"/></svg>