<?xml version="1.0" encoding="UTF-8" standalone="no"?><!DOCTYPE svg PUBLIC "-//W3C//DTD SVG 1.1//EN" "http://www.w3.org/Graphics/SVG/1.1/DTD/svg11.dtd"><svg width="100%" height="100%" viewBox="0 0 1212 768" version="1.1" xmlns="http://www.w3.org/2000/svg" xmlns:xlink="http://www.w3.org/1999/xlink" xml:space="preserve" xmlns:serif="http://www.serif.com/" style="fill-rule:evenodd;clip-rule:evenodd;stroke-linejoin:round;stroke-miterlimit:2;"><g opacity="0.5"><path d="M942.968,766.101l4.378,3.604l-0.864,3.605l-3.739,-1.492l0.225,-5.717Z" style="fill:#7f7f7f;"/><path d="M141.257,834.682l9.536,-4.791l-0.192,1.893l0.252,0.226l0.161,0.041l0.707,-0.429l-0.17,0.878l2.304,1.471l-1.954,-5.217l35.053,-7.765l16.219,-10.749l0.559,-2.261l1.133,0.514l-0.506,-1.193l2.749,-1.203l0.232,-1.047l1.116,1.29l1.757,0.11l0.375,-1.416l0.445,0.683l0.133,0.057l0.154,-0.055l0.44,-0.98l-0.497,0.998l-0.432,-0.592l-0.213,-0.135l-0.11,0.057l-0.316,1.369l-1.668,-0.112l-1.202,-1.302l-9.491,6.301l13.947,-14.628l13.274,-26.757l14.146,-0.919l5.066,16.722l14.465,10.628l18.545,-0.693l8.785,4.709l10.071,-6.072l2.251,10.596l21.499,4.539l17.954,-5.904l10.135,-9.951l7.785,1.557l6.667,-5.039l8.092,3.916l10.877,-10.143l19.309,-6.844l36.657,0.952l8.895,-5.637l46.878,1.12l13.878,8.419l27.872,-12.013l11.198,6.797l7.113,-1.987l-1.017,-3.854l17.903,7.777l12.977,-1.272l32.646,-13.339l3.591,2.125l-2.797,1.176l0.925,2.98l1.64,-3.91l9.795,2.661l-3.565,1.241l5.46,8.254l-4.047,2.186l4.247,2.211l16.551,-11.226l2.606,6.453l-16.458,22.331l4.696,10.033l10.071,5.498l1.881,13.818l-509.038,4.848Zm443.558,-57.573l-0.002,0.005l0.008,-0l0,-0.007l-0.006,0.002Zm-18.142,0.38l0,0.008l0.015,-0l-0.002,-0.005l-0.013,-0.003Zm0.026,-0.012l-0.008,0.01l0.019,-0l0.002,-0.005l-0.013,-0.005Z" style="fill:#7f7f7f;"/><path d="M1050.58,761.793l2.278,9.894l-2.057,3.515l-2.98,-5.572l2.759,-7.837Z" style="fill:#7f7f7f;"/><path d="M1002,752.065l2.821,1.746l-0.681,2.444l-2.278,-0.325l0.138,-3.865Z" style="fill:#7f7f7f;"/><path d="M979.621,747.644l0.45,2.925l-4.852,1.687l0.006,-3.036l4.396,-1.576Z" style="fill:#7f7f7f;"/><path d="M998.404,743.203l2.722,1.865l-0.754,2.353l-2.849,-1.768l0.881,-2.45Z" style="fill:#7f7f7f;"/><path d="M1025.42,742.095l2.409,1.464l-4.109,2.85l-1.059,-2.361l2.759,-1.953Z" style="fill:#7f7f7f;"/><path d="M1049.62,741.662l2.869,1.742l-1.173,1.254l-2.797,-0.961l1.101,-2.035Z" style="fill:#7f7f7f;"/><path d="M1070.78,737.459l-0.717,12.753l-7.095,7.206l-3.294,-7.902l11.106,-12.057Z" style="fill:#7f7f7f;"/><path d="M1014.52,735.339l2.118,0.812l-7.554,5.125l5.436,-5.937Z" style="fill:#7f7f7f;"/><path d="M995.834,732.58l-0.102,4.458l-3.013,1.084l0.03,-3.628l3.085,-1.914Z" style="fill:#7f7f7f;"/><path d="M756.307,730.269l-9.622,25.015l6.962,14.462l-5.686,11.353l-14.72,-3.33l-6.179,-7.89l-12.693,-2.107l-14.717,-9.739l-12.22,-1.593l-6.274,-7.115l7.085,-11.998l4.348,4.851l9.859,-6.469l10.645,7.226l28.105,-8.339l4.895,1.864l2.447,-4.721l7.765,-1.47Z" style="fill:#7f7f7f;"/><path d="M1001.73,729.78l2.264,3.286l-3.176,5.683l-3.319,-4.194l4.231,-4.775Z" style="fill:#7f7f7f;"/><path d="M1045.31,729.209l2.132,1.252l-9.456,6.982l-0.417,-1.766l7.741,-6.468Z" style="fill:#7f7f7f;"/><path d="M881.798,728.087l1.289,2.088l6.622,3.897l-6.853,0.224l-1.058,-6.209Z" style="fill:#7f7f7f;"/><path d="M973.759,726.683l1.635,2.253l-2.416,3.513l-0.617,-3.588l1.398,-2.178Z" style="fill:#7f7f7f;"/><path d="M1034.95,726.436l3.894,1.169l0.811,1.948l-3.496,0.591l-1.209,-3.708Z" style="fill:#7f7f7f;"/><path d="M984.398,723.654l2.688,2.925l-2.097,1.632l-0.725,-0.924l0.134,-3.633Z" style="fill:#7f7f7f;"/><path d="M951.13,721.964l-0.31,2.478l-1.791,0.449l-1.091,-2.102l3.192,-0.825Z" style="fill:#7f7f7f;"/><path d="M996.863,721.674l1.658,1.21l-3.475,2.051l-0.293,-2.704l2.11,-0.557Z" style="fill:#7f7f7f;"/><path d="M970.677,720.966l1.622,0.924l-2.585,4.34l-0.654,-2.509l1.617,-2.755Z" style="fill:#7f7f7f;"/><path d="M987.444,718.007l5.226,1.015l-0.118,2.299l-6.835,-2.415l1.727,-0.899Z" style="fill:#7f7f7f;"/><path d="M1228.77,715.994l-12.617,18.183l6.744,7.402l-9.703,2.506l-12.689,17.154l-16.733,-0.986l-5.573,-9.21l13.492,-5.661l-0.355,-8.027l17.786,-4.115l19.648,-17.246Z" style="fill:#7f7f7f;"/><path d="M948.722,715.297l2.085,1.321l-2.815,2.72l-1.14,-3.068l1.87,-0.973Z" style="fill:#7f7f7f;"/><path d="M876.466,712.237l1.465,5.113l5.484,6.691l-6.766,-0.375l-2.324,-5.199l-2.144,3.408l4.285,-9.638Z" style="fill:#7f7f7f;"/><path d="M878.585,711.093l2.813,3.737l-0.463,2.108l-3.199,-4.591l0.849,-1.254Z" style="fill:#7f7f7f;"/><path d="M1018.76,711.024l-2.666,4.285l-5.5,3.036l1.787,-4.258l6.379,-3.063Z" style="fill:#7f7f7f;"/><path d="M582.984,710.04l2.278,1.955l-1.346,2.865l-1.474,-3.693l0.542,-1.127Z" style="fill:#7f7f7f;"/><path d="M979.549,709.573l4.53,2.241l1.253,6.413l-7.982,-5.93l2.199,-2.724Z" style="fill:#7f7f7f;"/><path d="M416.27,709.319l3.152,2.991l-0.2,0.97l-4.528,-0.218l1.576,-3.743Z" style="fill:#7f7f7f;"/><path d="M1033.09,704.568l2.293,2.079l-4.248,3.27l-7.243,-0.055l9.198,-5.294Z" style="fill:#7f7f7f;"/><path d="M878.099,700.408l1.567,6.715l-4.054,2.559l2.487,-9.274Z" style="fill:#7f7f7f;"/><path d="M419.717,699.101l1.754,2.951l-5.689,5.332l-4.201,-1.685l8.136,-6.598Z" style="fill:#7f7f7f;"/><path d="M1005.1,685.575l4.02,1.221l-1.319,12.366l-6.501,-10.798l3.8,-2.789Z" style="fill:#7f7f7f;"/><path d="M939.491,684.969l7.673,7.045l13.949,0.901l4.373,12.322l8.425,0.481l0.208,5.527l-8.999,-1.577l-5.215,-8.593l-9.612,1.61l-12.761,-11.154l-8.631,1.797l10.59,-8.359Z" style="fill:#7f7f7f;"/><path d="M967.214,681.428l2.562,1.353l3.165,4.086l-6.429,-1.939l0.702,-3.5Z" style="fill:#7f7f7f;"/><path d="M945.468,678.515l4.746,1.869l-0.466,1.122l-2.643,0.56l-1.637,-3.551Z" style="fill:#7f7f7f;"/><path d="M460.968,677.578l-1.305,5.471l7.768,2.49l-10.706,12.686l-8.813,-9.789l-7.314,0.209l20.37,-11.067Z" style="fill:#7f7f7f;"/><path d="M482.554,675.414l4.121,3.101l-0.065,5.645l-10.565,-4.22l0.343,-3.909l6.166,-0.617Z" style="fill:#7f7f7f;"/><path d="M854.583,673.85l3.074,9.938l4.776,3.168l-6.1,-2.139l-6.693,-8.194l4.943,-2.773Z" style="fill:#7f7f7f;"/><path d="M1008.33,660.386l8.353,8.909l-4.328,-0.984l2.547,3.667l-10.704,-0.847l3.767,-4.712l-4.064,4.363l-6.229,-1.734l10.658,-8.662Z" style="fill:#7f7f7f;"/><path d="M934.226,650.065l4.15,3.997l6.83,2.65l-9.294,0.516l-1.686,-7.163Z" style="fill:#7f7f7f;"/><path d="M983.879,645.477l-0.712,7.995l-3.005,-3.415l-0.036,3.599l-4.352,-0.254l-0.846,-4.506l8.951,-3.419Z" style="fill:#7f7f7f;"/><path d="M604.147,645.16l7.768,4.41l-1.452,3.241l3.709,0.424l-3.984,2.374l5.415,2.244l2.336,9.605l-4.843,8.412l0.113,29.026l-2.653,6.093l-12.189,-5.336l0.103,8.593l-9.101,3.486l-6.402,-10.751l2.116,-16.488l2.677,1.975l1.292,-5.395l-2.128,-3.632l-2.873,2.467l2.281,-11.692l-4.039,-9.349l-3.605,0.534l0.839,-10.807l9.06,3.278l15.56,-12.712Z" style="fill:#7f7f7f;"/><path d="M994.176,636.918l1.746,2.963l-7.502,1.837l2.415,-3.232l3.341,-1.568Z" style="fill:#7f7f7f;"/><path d="M985.187,630.656l0.163,3.333l-4.03,-1.716l3.867,-1.617Z" style="fill:#7f7f7f;"/><path d="M961.443,626.221l3.943,4.655l-2.889,2.347l-3.546,-2.146l2.492,-4.856Z" style="fill:#7f7f7f;"/><path d="M631.309,596.063l0.268,4.99l-7.27,-1.733l5.734,-1.015l1.268,-2.242Z" style="fill:#7f7f7f;"/><path d="M608.991,591.831l2.824,26.952l-8.803,23.129l-8.961,-5.982l2.953,-4.016l-5.846,-1.615l3.398,-4.62l-4.409,-0.17l3.184,-4.624l-4.478,-9.793l4.233,-6.472l13.029,-2.633l2.876,-10.156Z" style="fill:#7f7f7f;"/><path d="M780.384,585.385l3.626,1.576l-13.053,-0.838l9.427,-0.738Z" style="fill:#7f7f7f;"/><path d="M769.011,578.634l3.559,2.058l10.75,-0.033l-12.011,1.217l-6.708,-1.646l4.41,-1.596Z" style="fill:#7f7f7f;"/><path d="M768.165,573.998l5.978,0.577l1.971,1.429l-10.866,0.403l2.917,-2.409Z" style="fill:#7f7f7f;"/><path d="M733.675,553.117l7.212,5.351l1.883,2.219l-2.089,-0.49l-7.006,-7.08Z" style="fill:#7f7f7f;"/><path d="M729.042,552.844l8.555,7.717l-0.417,1.262l-8.838,-8.012l0.7,-0.967Z" style="fill:#7f7f7f;"/><path d="M725.35,536.955l7.27,5.341l-3.029,-0.826l7.891,6.355l-3.161,0.31l-8.971,-11.18Z" style="fill:#7f7f7f;"/><path d="M724.889,532.475l0.832,0.289l2.553,3.977l-4.457,-1.829l1.072,-2.437Z" style="fill:#7f7f7f;"/><path d="M715.659,523.12l3.849,6.524l1.62,14.6l-3.519,-2.494l-1.95,-18.63Z" style="fill:#7f7f7f;"/><path d="M720.478,520.69l6.205,7.718l-1.319,1.384l-7.15,-3.536l2.264,-5.566Z" style="fill:#7f7f7f;"/><path d="M379.722,480.537l3.392,2.484l-0.652,5.558l-2.664,-5.09l-0.076,-2.952Z" style="fill:#7f7f7f;"/><path d="M348.107,433.58l3.474,2.95l-0.416,0.782l-3.206,-1.036l0.148,-2.696Z" style="fill:#7f7f7f;"/><path d="M377.96,380.664l4.184,1.46l-0.399,1.98l-4.11,-1.055l0.325,-2.385Z" style="fill:#7f7f7f;"/><path d="M403.432,337.889l4.175,3.116l-2.667,2.416l-7.336,-3.209l5.828,-2.323Z" style="fill:#7f7f7f;"/><path d="M508.503,317.071l4.804,4.368l2.271,0.933l-13.465,-0.508l6.39,-4.793Z" style="fill:#7f7f7f;"/><path d="M527.371,277.454l0.565,3.288l-3.454,2.65l0.25,-2.549l2.639,-3.389Z" style="fill:#7f7f7f;"/><path d="M690.417,248.707l8.359,7.231l9.084,-3.691l-2.762,7.05l-2.947,-2.937l-10.904,2.24l3.791,-4.221l-5.095,-0.903l0.474,-4.769Z" style="fill:#7f7f7f;"/><path d="M360.081,247.12l6.17,4.966l-6.308,4.508l-3.676,-5.595l3.814,-3.879Z" style="fill:#7f7f7f;"/><path d="M641.032,239.317l2.93,0.992l1.462,2.992l-5.431,-1.128l1.039,-2.856Z" style="fill:#7f7f7f;"/><path d="M682.843,233.442l6.523,10.202l-6.492,3.984l-5.158,-3.256l0.244,-6.493l6.534,1.683l-4.782,-2.167l3.131,-3.953Z" style="fill:#7f7f7f;"/><path d="M642.966,226.259l9.818,2.429l1.755,6.768l-6.512,1.506l-8.248,-4.622l3.187,-6.081Z" style="fill:#7f7f7f;"/><path d="M625.634,226.073l4.665,2.566l0.888,1.307l-1.858,0.813l-3.695,-4.686Z" style="fill:#7f7f7f;"/><path d="M654.173,225.791l6.102,3.917l-3.232,8.516l-4.982,-11.297l2.112,-1.136Z" style="fill:#7f7f7f;"/><path d="M594.192,223.131l1.066,5.591l-3.534,4.065l0.174,-5.13l2.294,-4.526Z" style="fill:#7f7f7f;"/><path d="M661.755,222.722l4.619,1.482l0.418,1.842l-6.953,2.245l1.916,-5.569Z" style="fill:#7f7f7f;"/><path d="M617.602,222.641l4.117,2.744l1.466,3.626l-4.84,-0.696l-0.743,-5.674Z" style="fill:#7f7f7f;"/><path d="M638.473,220.067l-0.727,5.184l-3.481,8.405l-1.694,-3.479l5.902,-10.11Z" style="fill:#7f7f7f;"/><path d="M367.253,217.606l-1.917,6.726l-7.639,2.656l2.266,-4.686l7.29,-4.696Z" style="fill:#7f7f7f;"/><path d="M705.404,213.303l6.99,4.622l-0.95,4.488l-7.107,-2.726l1.067,-6.384Z" style="fill:#7f7f7f;"/><path d="M627.348,206.127l1.9,1.067l2.489,2.172l-2.324,2.444l3.425,-1.568l-0.12,-4.008l2.294,4.134l-3.577,1.149l5.435,4.413l-2.487,7.473l-11.117,-0.544l-6.913,-13.382l10.995,-3.35Z" style="fill:#7f7f7f;"/><path d="M263.213,204.813l3.836,0.688l-0.857,4.658l-4.556,-4.466l1.577,-0.88Z" style="fill:#7f7f7f;"/><path d="M667.349,203.038l1.142,3.261l-1.476,1.097l-1.509,-1.628l1.843,-2.73Z" style="fill:#7f7f7f;"/><path d="M631.654,194.72l2.03,3.31l-0.994,3.718l-1.565,-0.795l0.529,-6.233Z" style="fill:#7f7f7f;"/><path d="M661.535,190.039l5.47,2.525l0.316,9.942l-6.995,6.547l4.575,6.58l-7.446,4.137l2.869,1.433l-2.598,4.644l-6.256,-3.2l2.745,0.75l-1.639,-4.638l-8.661,0.004l-5.796,-14.14l2.939,-0.275l-4.071,-2.004l6.22,1.313l4.581,-4.711l-3.88,-4.863l8.615,0.829l-1.955,7.897l3.2,1.082l1.678,-7.707l2.574,8.581l-1.37,-9.516l-2.965,-0.062l7.85,-5.148Z" style="fill:#7f7f7f;"/><path d="M322.1,177.065l6.605,6.225l-7.212,4.425l6.252,-3.33l15.312,3.495l3.675,13.245l-5.264,4.872l6.242,-0.687l1.348,6.292l-2.251,4.364l-1.471,-8.209l0.978,8.728l-5.407,-0.231l-5.103,6.537l-4.567,-4.521l2.857,5.317l-5.211,0.445l0.008,31.02l-13.437,16.265l1.871,5.531l-7.046,-4.055l-3.995,3.56l0.312,-3.687l-2.051,2.957l-11.434,-1.873l0.119,3.608l-5.595,-1.507l-4.428,4.768l-6.619,-4.576l2.624,3.929l-7.068,0.055l0.832,4.469l-24.809,-1.8l9.087,-6.569l-13.883,-0.063l13.168,-4.899l-11.653,1.38l-3.697,-5.517l14.022,-4.962l-12.736,-4.406l13.831,1.506l-2.378,-5.903l7.179,-3.103l2.233,1.636l14.835,0.325l-3.586,-5.053l-5.026,4.207l-14.339,-2.086l9.474,-3.489l7.026,-10.615l7.663,-0.045l-21.431,-12.233l3.494,-0.883l-1.553,-3.818l8.806,1.306l-2.714,-5.731l6.519,0.647l0.351,-3.135l-6.701,-0.929l4.093,-6.394l-2.917,0.633l0.693,-5.097l-3.039,3.35l1.523,-4.235l6.245,1.421l0.158,-2.897l8.641,3.536l0.571,6.189l2.964,-4.744l8.702,5.078l-1.831,-5.192l12.086,-6.243l-6.654,0.95l-4.759,-5.52l6.993,-0.095l-1.896,-2.594l3.968,0.867l1.804,-0.995l-2.662,-4.57l9.846,-4.576l1.181,3.468l2.351,-3.502l-0.919,1.569l0.001,0.679l1.28,2.857l2.435,-5.099l-2.223,9.379l4.095,-9.179l4.665,1.41l-1.453,-3.653Z" style="fill:#7f7f7f;"/><path d="M359.876,175.167l2.207,5.781l-1.206,3.218l-3.701,-2.893l2.7,-6.106Z" style="fill:#7f7f7f;"/><path d="M362.811,169.312l2.146,3.07l-0.833,3.624l-2.028,-5.511l0.715,-1.183Z" style="fill:#7f7f7f;"/><path d="M347.144,165.465l0.013,7.994l-5.631,1.918l2.371,-5.583l-4.691,2.215l0.899,-3.592l7.039,-2.952Z" style="fill:#7f7f7f;"/><path d="M604.024,164.571l-0.956,5.868l-4.01,3.434l-1.626,-3.65l6.592,-5.652Z" style="fill:#7f7f7f;"/><path d="M355.58,160.724l-4.548,7.145l-3.372,2.199l-0.079,-3.35l7.999,-5.994Z" style="fill:#7f7f7f;"/><path d="M641.08,153.783l-2.393,3.398l-2.232,-1.142l1.042,-1.357l3.583,-0.899Z" style="fill:#7f7f7f;"/><path d="M739.275,146.875l0.337,5.903l-8.415,30.961l-1.144,-12.443l9.222,-24.421Z" style="fill:#7f7f7f;"/><path d="M341.2,144.563l-3.096,2.725l-1.383,-0.537l0.516,-1.913l3.963,-0.275Z" style="fill:#7f7f7f;"/><path d="M352.188,143.978l6.302,8.71l-12.281,2.093l6.178,-2.285l-4.52,-5.786l4.321,-2.732Z" style="fill:#7f7f7f;"/><path d="M632.081,140.91l-4.539,23.371l-9.185,-3.601l-15.454,2.306l-7.968,10.36l2.56,3.292l-5.237,-3.888l6.176,-12.803l13.468,-1.004l9.371,-13.218l10.808,-4.815Z" style="fill:#7f7f7f;"/><path d="M351.678,131.126l1.163,1.995l-1.67,1.796l-1.894,-2.753l2.401,-1.038Z" style="fill:#7f7f7f;"/><path d="M649.474,130.115l1.172,2.536l-2.782,2.5l-1.431,-3.565l3.041,-1.471Z" style="fill:#7f7f7f;"/><path d="M768.73,126.517l-2.853,9.662l3.355,6.244l-11.174,16.637l2.187,-6.017l-4.812,-13.006l8.199,-12.932l1.912,2.679l3.186,-3.267Z" style="fill:#7f7f7f;"/><path d="M649.494,123.711l2.161,5.495l-5.662,1.769l-1.17,-3.076l4.671,-4.188Z" style="fill:#7f7f7f;"/><path d="M772.099,123.665l1.919,0.951l-3.197,4.082l-1.548,-2.42l2.826,-2.613Z" style="fill:#7f7f7f;"/><path d="M337.087,116.838l2.434,2.205l-2.037,7.501l-2.724,-1.714l2.327,-7.992Z" style="fill:#7f7f7f;"/><path d="M356.728,111.882l-0.564,12.77l8.003,3.143l-7.649,5.746l4.061,-4.447l-7.979,-0.956l0.422,-6.271l-6.022,-3.295l1.82,-2.454l1.504,3.215l0.55,-5.724l3.986,5.723l1.868,-7.45Z" style="fill:#7f7f7f;"/><path d="M340.661,108.311l3.588,2.639l-4.494,1.557l2.134,2.024l-5.643,-4.266l4.415,-1.954Z" style="fill:#7f7f7f;"/><path d="M826.88,95.603l7.989,4.643l-14.676,9.682l-2.82,9.598l1.932,-7.376l-6.997,-3.219l2.56,-3.074l-3.571,-3.485l4.575,1.729l5.628,-8.009l5.38,-0.489Z" style="fill:#7f7f7f;"/><path d="M831.538,92.941l2.732,0.695l1.345,4.011l-5.391,-1.617l1.314,-3.089Z" style="fill:#7f7f7f;"/><path d="M383.816,88.999l4.871,3.378l-1.98,2.841l3.355,-3.433l24.756,2.85l-4.868,9.499l-15.929,7.872l0.391,3.269l-5.361,-1.948l4.595,3.172l4.673,-0.731l-11.947,5.777l7.216,-0.786l-7.513,4.608l18.302,-3.998l21.434,4.699l2.815,6.406l-17.734,26.245l-13.608,4.052l8.48,-1.138l-2.147,2.41l4.569,3.638l-14.685,5.318l-5.543,-1.859l10.607,4.74l7.206,-2.324l8.332,6.013l6.735,11.605l2.883,30.185l10.354,5.951l7.19,12.32l-2.903,2.989l4.569,11.766l-0.659,2.284l-6.172,-6.116l-7.654,0.016l7.304,0.834l7.765,10.239l1.147,9.688l-6.606,5.508l5.439,3.74l4.065,-4.742l13.823,3.035l6.591,7.234l0.361,7.519l-4.857,11.685l-10.282,2.837l4.437,0.66l-1.355,3.696l-10.828,1.417l4.643,0.193l-0.352,3.489l-6.333,-1.067l4.425,3.315l-8.692,1.897l8.854,5.232l10.451,-0.722l-1.74,6.922l-8.895,6.465l-14.786,3.558l-8.715,-4.2l-11.142,1.779l0.054,-3.42l-6.61,0.832l-5.648,-5.447l1.878,4.473l-13.708,-0.505l0.942,4.501l-12.156,-4.026l2.231,4.782l-5.376,-7.328l-13.065,-1.19l-5.896,13.224l-8.689,-4.699l-1.015,-5.117l-0.274,4.876l-8.619,-4.067l-3.668,4.652l-5.738,-0.84l-3.699,7.08l-8.61,-7.168l18.97,-8.457l9.156,-13.678l9.103,0.069l-3.412,-2.745l3.695,-1.577l19.378,5.245l10.191,-11.866l-15.772,4.119l-7.003,-8.74l-9.11,-0.043l5.49,-2.849l-4.73,-0.506l0.196,-3.842l-14.355,2.634l2.692,-2.141l-4.471,-0.126l2.04,-5.015l-3.558,-1.038l22.966,-7.801l6.868,-7.77l-3.331,-2.398l3.384,-9.273l-13.876,1.379l12.776,-10.42l16.469,-1.388l4.014,4.68l-1.493,-5.196l3.167,-1.16l1.281,4.433l3.22,0.364l-4.992,-8.397l9.241,-19.781l-8.382,3.117l1.047,-5.456l-2.126,2.288l-3.771,-10.887l6.265,-9.879l7.131,-1.909l-9.416,-2.796l-8.427,5.77l-7.103,-6.757l-0.592,8.064l-6.818,-7.438l-1.542,7.087l-3.495,-7.885l13.114,-17.14l-3.53,-7.14l2.016,-7.211l5.986,1.734l-4.322,-5.718l-0.941,2.599l0.001,-2.088l3.175,-4.021l-3.121,0.693l-2.988,8.852l-1.417,-4.913l-4.278,3.84l9.385,-11.023l-10.245,5.174l0.392,8.028l-6.288,11.93l-5.188,0.608l9.934,-15.156l-4.204,0.878l5.06,-15.66l3.087,-3.171l3.226,1.273l2.74,-1.782l-6.323,-0.391l3.736,-4.59l5.965,-0.641l-4.515,-0.569l3.186,-3.539l-3.461,-1.477l3.146,1.75l-11.443,7.806l-4.186,-5.731l7.867,0.598l-10.98,-3.759l8.173,0.14l0.279,-7.066l5.136,1.493l-4.17,-3.083l6.812,0.151l-4.493,-2.891l5.022,-3.487l-4.809,-0.09l1.15,-1.553l2.486,0.2l1.776,-1.346l-6.302,-0.024l1.172,-6.412l5.009,2.145l-4.183,-3.968l1.569,-6.42l2.804,3.361l0.763,-4.736l5.67,3.734l-1.443,-3.267l3.923,4.368l-4.539,-8.768l3.927,-1.448l-1.344,-3.935l6.594,2.881l-2.946,-4.877l4.727,-7.574Z" style="fill:#7f7f7f;"/><path d="M363.354,87.884l-0.6,9.362l-8.364,2.148l4.082,1.215l-3.875,4.124l-1.384,-4.816l-0.902,5.421l-5.985,3.341l-1.684,-3.789l5.511,-0.745l-4.062,-3.754l3.697,-1.038l-2.059,-4.693l5.968,1.879l-0.402,-4.342l10.059,-4.313Z" style="fill:#7f7f7f;"/><path d="M547.489,87.684l1.097,4.384l-1.607,3.955l-1.106,-2.139l1.616,-6.2Z" style="fill:#7f7f7f;"/><path d="M411.378,85.012l1.886,2.099l-0.923,3.054l-2.586,-3.607l1.623,-1.546Z" style="fill:#7f7f7f;"/><path d="M820.829,82.339l7.861,6.308l-7.03,6.007l-3.675,-5.586l-5.877,-0.232l8.721,-6.497Z" style="fill:#7f7f7f;"/><path d="M754.298,81.961l4.215,3.891l-4.508,-0.35l1.466,2.693l-3.572,-3.295l3.325,4.819l-9.334,12.435l-4.978,-13.978l10.905,-4.111l2.678,1.177l-0.197,-3.281Z" style="fill:#7f7f7f;"/><path d="M831.596,81.755l1.051,1.895l-3.17,1.049l-1.028,-2.278l3.147,-0.666Z" style="fill:#7f7f7f;"/><path d="M730.881,81.25l2.078,1.49l-0.574,3.117l-1.938,-2.004l0.434,-2.603Z" style="fill:#7f7f7f;"/><path d="M414.508,78.706l1.052,4.805l5.718,3.679l-9.722,-3.16l2.952,-5.324Z" style="fill:#7f7f7f;"/><path d="M756.539,77.668l1.575,0.328l-2.523,3.799l-1.016,-2.061l1.964,-2.066Z" style="fill:#7f7f7f;"/><path d="M547.579,73.422l2.945,5.567l-3.578,3.641l0.633,-9.208Z" style="fill:#7f7f7f;"/><path d="M549.945,70.36l2.948,3.179l-0.848,4.031l-2.265,-1.182l0.165,-6.028Z" style="fill:#7f7f7f;"/><path d="M555.605,67.688l-0.432,5.369l-1.897,0.392l-2.447,-3.339l4.776,-2.422Z" style="fill:#7f7f7f;"/><path d="M778.11,55.719l1.29,1.509l-1.186,4.649l-3.589,-2.739l3.485,-3.419Z" style="fill:#7f7f7f;"/><path d="M545.958,55.497l1.93,4.295l-1.056,4.541l-1.937,-3.341l1.063,-5.495Z" style="fill:#7f7f7f;"/><path d="M768.019,52.691l1.55,3.354l-1.321,1.827l-1.752,-3.072l1.523,-2.109Z" style="fill:#7f7f7f;"/><path d="M771.656,48.598l6.533,3.501l-1.121,3.558l-3.461,-3.378l0.805,7.278l-5.903,-6.293l3.185,2.36l-0.038,-7.026Z" style="fill:#7f7f7f;"/><path d="M556.502,48.512l0.365,7.256l-2.739,1.148l-2.697,-3.634l5.071,-4.77Z" style="fill:#7f7f7f;"/><path d="M545.157,46.554l2.117,1.247l2.515,4.614l-4.817,-4.289l0.185,-1.572Z" style="fill:#7f7f7f;"/><path d="M818.232,44.532l-0.812,9.398l-5.813,1.589l-0.2,-7.348l6.825,-3.639Z" style="fill:#7f7f7f;"/><path d="M451.998,39.065l-2.354,7.054l5.252,-0.728l-6.434,17.462l1.803,-12.168l-3.103,2.805l-3.048,-3.842l7.114,-1.85l-4.841,-4.882l5.611,-3.851Z" style="fill:#7f7f7f;"/><path d="M791.551,38.085l4.41,3.745l-0.667,1.573l-4.511,-3.387l0.768,-1.931Z" style="fill:#7f7f7f;"/><path d="M455.473,36.723l1.404,3.015l-2.715,4.456l-0.736,-3.931l2.047,-3.54Z" style="fill:#7f7f7f;"/><path d="M546.347,32.34l1.59,3.267l-2.783,1.811l-0.328,-3.359l1.521,-1.719Z" style="fill:#7f7f7f;"/><path d="M548.783,11.188l4.093,1.599l0.129,0.915l-5.055,1.692l0.833,-4.206Z" style="fill:#7f7f7f;"/><path d="M560.954,-0.307l0.861,2.585l-3.211,0.994l-0.457,-2.98l2.807,-0.599Z" style="fill:#7f7f7f;"/><path d="M564.217,-3.594l2.152,2.392l-4.569,2.796l-0.468,-2.268l2.885,-2.92Z" style="fill:#7f7f7f;"/><path d="M376.226,-7.979l2.613,2.965l-0.322,5.639l-2.036,-2.891l-0.255,-5.713Z" style="fill:#7f7f7f;"/><path d="M1308.56,-29.618l1.286,483.519l-16.281,-5.219l-11.51,2.67l-44.036,-19.217l-13.345,0.927l-11.467,-5.856l-5.998,3.662l-7.824,-6.522l-15.198,-1.123l6.929,-5.735l-5.893,-1.912l-1.682,4.268l1.832,-5.176l1.256,-0.812l6.976,0.736l-0.478,1.13l0.654,1.062l-1.003,0.561l0.619,0.778l4.582,-4.892l0.5,1.712l1.637,2.081l4.415,-0.154l-6.06,-2.001l4.937,-0.283l-4.143,-2.014l2.602,-14.024l0.177,0.594l0.969,0.889l4.326,-2.753l0.793,0.093l0.419,0.775l0.464,0.175l0.233,-0.239l0.17,0.199l0.191,-0.11l0.107,-0.284l0.601,0.053l-0.523,3.713l0.329,2.243l1.287,2.529l-0.161,1.651l11.709,3.592l-11.667,-3.601l0.151,-1.698l-1.614,-4.704l0.498,-3.755l-0.608,-0.059l-0.267,0.386l-0.175,-0.192l-0.289,0.245l-0.846,-0.949l-0.805,-0.092l-5.284,1.847l3.961,-19.747l4.589,4.5l3.242,-2.209l-12.489,-4.806l-3.885,1.113l-6.769,-6.637l17.067,-6.075l-4.54,-0.263l0.275,-5.266l18.249,-17.942l-11.428,1.436l-16.31,15.59l-10.771,1.688l-10.604,19.763l-2.82,-3.826l-6.741,9.246l-7.881,0.539l-9.261,20.487l-2.903,2.651l4.616,-10.974l-12.615,10.723l0.95,4.245l-1.851,3.518l-3.003,-3.837l3.106,-3.686l-5.707,0.348l-0.459,5.368l-3.185,-3.77l-1.056,4.224l11.251,3.385l2.553,-3.156l-1.109,5.401l4.444,-5.076l-1.768,3.964l7.668,0.937l6.29,9.046l7.386,-1.285l-18.073,-10.421l-2.364,-6.387l-3.453,-1.017l2.314,-2.395l21.388,20.057l5.972,-7.79l16.911,-3.336l-2.164,11.44l-10.228,5.771l-8.097,-0.937l-5.272,12.52l-9.583,4.008l-9.475,15.607l-13.978,-1.536l4.527,-2.058l-3.604,-11.545l-15.597,-5.632l3.299,-4.944l-3.404,4.895l-10.849,1.469l10.475,-16.807l9.897,-4.439l-4.647,-8.62l-0.667,4.384l-7.332,-2.312l-12.518,7.259l11.457,-1.799l-3.215,1.194l-8.962,0.883l-10.082,-0.025l4.08,-1.197l-10.287,0.073l3.478,-6.771l-6.376,2.315l-5.171,-3.176l17.862,-1.73l5.922,-7.31l-10.975,5.824l-6.139,-4.909l0.692,-4.525l-1.89,10.011l-7.629,1.786l1.528,-4.31l-2.949,-0.903l1.233,5.506l-12.669,6.089l-1.745,15.4l-13.063,21.96l4.5,4.534l-0.187,16.193l-15.742,10.445l1.028,4.629l3.206,-7.361l-5.021,12.244l4.702,26.471l-9.488,4.663l-2.814,6.436l3.24,14.712l-8.511,9.56l6.673,0.062l16.85,23.728l21.88,3.481l-1.238,7.729l-8.091,3.309l-3.392,-5.541l1.724,5.313l-7.651,-1.032l-15.46,6.988l-2.876,9.211l-12.34,10.628l-9.185,14.923l-0.932,-8.474l11.619,-12.875l-15.465,5.17l-3.825,-6.271l-19.78,0.409l-2.221,-4.249l-5.734,8.797l-7.288,-2.07l-8.359,8.945l-8.272,0.655l4.816,9.66l3.071,-1.802l10.455,7.163l-16.331,-3.068l7.884,11.151l-9.124,-6.943l-7.538,2.209l-10.847,-3.557l-0.239,-8.06l-7.126,6.415l2.199,13.659l21.61,21.788l-6.064,4.195l3.078,-3.487l-7.479,-4.258l-2.105,5.023l6.44,4.884l-11.68,6.883l19.515,3.288l1.15,4.269l5.171,-1.205l14.25,7.938l1.406,15.706l-14.096,-9.663l-11.954,7.145l14.752,11.291l-7.753,5.813l-1.892,-4.734l-10.266,-1.733l16.816,31.869l-15.57,-8.746l-1.739,13.197l-11.113,-17.717l-4.962,1.955l-0.191,8.166l-4.63,-2.203l-3.737,-18.382l-14.968,-10.62l4.985,-11.99l5.901,1.369l4.983,-6.797l26.255,8.182l7.368,-8.161l-10.946,-0.467l-3.599,-4.11l-2.053,3.546l-4.258,-4.449l-0.128,3.63l-10.87,-0.558l-9.754,4.947l-5.363,-5.463l-0.959,6.224l-3.567,-0.506l-0.867,-5.868l-9.928,-7.298l0.327,-4.433l10.073,1.346l-2.02,-5.056l-7.375,-1.187l-1.569,5.248l-20.344,-19.895l-4.021,-10.114l-14.765,-9.899l4.789,1.653l-5.091,-9.114l2.965,-35.18l-10.792,-3.035l-15.477,-12.682l4.623,-2.869l-5.511,1.579l0.427,1.946l-15.562,-10.383l-20.344,-4.681l17.008,3.594l-20.756,-15.333l-10.553,-3.495l-10.489,2.103l-0.772,-9.566l-5.517,2.121l-13.05,-12.198l2.642,-4.417l8.187,5.359l-14.97,-12.284l-4.11,-16.31l-6.914,-5.38l-4.865,-1.101l-8.057,18.253l-10.051,-21.446l6.751,-4.199l-6.267,-5.556l-29.387,13.824l4.238,11.468l5.027,1.19l-9.634,10.887l3.321,-1.357l3.466,13.517l28.105,19.131l11.087,27.784l16.222,15.27l9.487,4.436l22.95,-1.409l-3.183,14.117l49.853,20.419l13.099,14.091l-2.959,10.875l-7.415,-3.422l-5.435,-10.307l-15.687,-2.223l2.366,-3.04l-9.479,2.863l-8.064,21.28l16.721,9.544l2.144,11.231l-13.856,7.819l0.104,11.706l-11.165,16.201l-10.564,-1.914l-0.419,-6.582l6.33,-7.839l-2.326,-5.099l8.767,-7.205l-15.457,-34.45l-9.542,0.912l-8.928,-6.142l1.83,-4.611l-5.342,-7.977l-10.746,3.528l2.917,-5.456l-9.755,-0.898l-7.703,-13.2l-16.103,1.008l-33.602,-31.69l-12.02,-2.597l1.934,-4.207l-10.334,-8.122l0.892,-3.309l-6.251,-0.624l0.632,-9.39l-8.279,-22.007l-30.846,-14.394l-15.388,16.022l-20.487,6.576l-13.493,11.098l1.459,3.282l-11.218,3.763l-18.045,-6.736l-0.348,-4.539l-9.823,-3.482l1.125,2.203l-1.376,1.491l-2.862,-0.735l-3.62,-6.978l0.243,6.324l-10.164,-7.005l-9.856,2.367l-14.638,12.425l-1.3,-4.203l-0.221,18.507l5.519,7.417l-4.998,2.881l1.221,9.855l-26.047,15.643l-25.837,4.296l-8.697,6.708l3.262,4.018l-8.005,2.832l-23.975,29.51l1.934,15.924l8.395,9.101l-19.146,9.784l-10.771,17.09l3.805,3.291l-15.708,-0.126l-9.223,4.932l-13.547,16.995l-5.31,-4.172l-10.467,3.231l-39.729,-8.409l-7.003,5.305l-13.57,0.172l-5.737,8.304l-6.983,1.736l-9.481,-7.411l-6.763,-18.13l2.814,-1.817l-11.958,-14.846l2.753,-2.974l-2.801,2.251l-0.33,-3.154l-0.106,4.485l-11.961,-4.236l-11.676,4.508l-16.183,-8.36l-9.15,1.724l7.478,-14.983l3.447,-29.212l5.354,3.73l-0.442,-5.011l-12.669,1.71l0.835,-7.626l6.084,1.932l2.08,-8.527l-4.926,6.037l-8.006,-4.375l6.153,-16.68l9.288,-4.609l18.533,-31.17l-0.276,-4.44l-3.768,5.826l5.132,-10.548l1.905,-33.831l7.872,-4.822l-6.282,0.807l6.063,-4.005l-6.065,-2.729l6.222,-5.133l-8.036,2.939l5.959,-8.275l-5.387,1.454l-2.278,-10.637l11.973,-6.014l11.991,1.171l1.11,3.935l-1.062,-5.167l4.06,-1.245l-4.295,0.887l0.963,-3.275l15.17,-3.357l11.639,12.738l27.371,0.326l25.136,13.41l18.218,0.42l-0.447,3.027l5.429,-2.676l11.534,7.868l6.502,-2.921l11.893,7.211l11.726,-1.226l5.913,-6.901l7.963,-26.311l5.813,-3.33l-2.595,-3.591l-2.815,3.944l9.184,-29.121l-3.981,-3.509l4.852,-6.715l0.033,-10.892l-13.41,-7.991l-5.29,-10.98l4.389,-5.746l-5.103,-4.096l5.185,-4.405l-10.457,-1.371l3.007,-6.131l-9.329,-2.943l3.812,0.823l1.12,-1.491l-0.164,-1.562l-8.774,-0.069l-0.269,3.915l-1.155,-5.585l1.831,-3.023l-1.894,3.005l-0.796,-4.505l-3.771,2.058l-9.446,-8.436l-8.666,1.786l-0.853,-7.692l-5.047,-1.072l9.474,-0.134l-1.969,-4.59l-3.102,1.534l1.06,-5.037l6.372,4.349l0.839,-1.63l-5.357,-2.013l3.743,-2.388l-9.986,1.056l1.671,-6.343l15.845,-2.608l8.12,3.325l0.67,-4.106l7.511,-0.604l8.754,13.267l8.342,-4.596l6.137,5.776l1.535,-4.964l11.153,3.564l-3.668,-3.75l2.556,-8.167l-5.157,-22.642l13.03,3.049l1.336,11.055l17.132,4.969l10.733,-3.57l-3.771,-3.103l3.574,-5.729l30.321,-10.683l0.761,-21.204l32.021,-11.531l20.621,1.801l-15.148,-6.755l7.88,-1.562l6.801,5.766l-3.981,-5.133l12.759,-2.698l-11.986,-7.37l10.437,-11.522l5.931,-19.169l5.656,1.26l16.403,-12.957l7.8,2.629l-2.18,-2.933l11.477,-1.064l6.843,7.213l-2.798,-9.168l5.26,-4.401l12.902,-0.431l3.263,9.547l1.527,-6.489l5.374,3.729l0.565,-11.553l9.006,0.455l-4.927,-4.954l2.47,-8.95l-6.46,-0.509l8.213,-4.363l-4.344,0.1l-3.767,-12.77l1.045,-16.559l-9.479,-4.293l1.142,-13.435l0.901,5.381l3.611,-2.405l-4.213,-6.622l-0.41,3.622l2.326,-21.67l1.304,4.872l7.305,2.388l-0.835,-4.445l6.664,-5.389l-0.382,7.391l1.739,-2.862l2.472,4.142l-1.568,-12.738l13.624,-4.296l4.951,2.865l0.457,8.494l-8.988,2.129l9.098,-1.947l-2.129,7.027l1.522,-4.142l11.186,4.876l-4.058,9.31l-5.739,-0.735l1.243,-3.91l-3.671,3.434l-0.719,10.603l-5.852,-1.294l3.027,5.585l-8.435,-0.322l5.476,2.523l-6.57,4.112l3.667,0.889l-3.502,6.543l3.922,-0.128l-5.257,6.671l6.323,3.773l-2.847,-0.715l-3.28,4.464l3.148,-2.694l7.486,5.84l-0.947,-0.458l-4.841,5.544l-2.902,0.22l0.447,1.148l2.374,-0.474l5.239,-5.601l-3.015,6.141l6.528,0.56l-1.162,4.419l3.271,-3.81l7.092,3.947l7.437,-2.714l-6.244,15.399l7.356,-3.901l5.027,3.565l1.681,-6.116l10.23,-1.996l6.834,-10.547l7.21,1.561l-4.199,0.008l-4.506,1.789l-1.17,3.523l11.686,-5.688l8.235,10.285l6.137,-0.786l0.706,8.047l13.908,7.137l2.187,-13.677l23.929,-9.454l7.032,-8.876l26.145,-11.676l4.605,-0.55l8.656,4.557l-6.864,-3.307l4.028,10.235l5.7,2.16l10.831,-3.103l5.634,-8.06l-4.041,7.126l-3.843,2.756l-2.387,0.881l3.105,3.192l16.318,-16.046l-9.059,2.007l-0.223,-8.472l12.687,-6.812l3.584,-20.579l1.267,11.986l-2.607,6.032l-4.892,6.737l12.57,-1.52l-12.102,-47.216l6.687,-33.572l13.505,-8.222l14.49,18.254l6.641,2.602l10.908,-10.646l-3.812,-33.076l-4.699,-1.096l-2.166,5.127l-6.442,-2.033l-6.22,-9.774l3.415,-3.437l-4.63,1.275l-1.354,-5.282l3.508,-1.61l-4.327,-0.807l0.41,-6.423l8.707,-3.12l2.78,-6.846l6.809,-0.5l-0.796,-3.821l10.329,0.227l2.81,-6.205l2.354,2.839l32.967,-2.928l-0.421,-12.254l5.364,2.649l-0.056,-5.252l5.9,-0.135l3.547,-7.72l16.187,-0.575l0.046,-3.621l-27.964,-4.025l-4.246,-5.075l4.962,2.121l-2.933,-9.945l-4.71,9.705l-5.814,2.808l-2.041,-3.032l-2.777,4.568l-5.195,-2.855l-2.528,5.247l-7.446,-0.103l2.099,4.718l-9.946,-2.396l4.06,4.208l-1.336,2.249l-3.408,-3.848l1.941,4.879l-4.299,-3.157l-6.927,8.317l-8.04,1.281l1.803,1.892l-2.956,4.872l-1.735,-3.642l-13.604,8.23l1.734,-5.972l-2.937,8.525l-4.878,1.967l3.504,-7.759l-3.335,4.78l-2.943,-3.027l6.599,-2.621l-6.565,-1.981l2.181,-6.93l-7.705,6.399l0.77,-6.109l-13.736,0.185l0.513,-5.029l-3.05,4.996l-5.385,-5.639l0.991,-6.244l-3.757,1.072l1.062,-3.958l2.737,2.161l-3.23,-20.547l3.16,0.466l-14.335,-30.448l1.47,-7.584l529.001,-1.682Zm-768.552,324.01l-0.008,-0.002l0.002,0.008l0.006,-0.006Z" style="fill:#7f7f7f;"/><path d="M1310.83,823.543l-48.19,0.459l3.579,-75.447l5.903,-10.102l-9.526,-25.216l-6.17,-3.239l2.484,-14.572l-7.474,-7.338l7.068,-11.383l-1.448,-5.767l-5.86,-2.516l-11.999,16.884l-18.348,-2.388l-11.376,22.211l-2.86,-1.737l-2.779,6.703l-20.125,10.114l-10.977,-1.314l-11.452,-8.422l-26.055,-2.47l-9.97,3.297l-0.311,19.917l-5.895,-1.692l-10.901,8.686l-15.71,-3.948l-2.169,-8.591l-4.419,-1.292l-0.89,5.454l-11.244,-6.295l-8.091,11.862l0.708,-7.734l-16.505,8.36l4.763,-5.734l9.548,-1.525l-1.05,-4.08l6.43,-5.446l-24.921,8.584l-1.228,-4.829l5.515,0.205l2.291,-6.544l-3.691,1.562l-1.987,-4.678l-4.965,3.083l-0.776,-7.1l-5.57,-0.973l5.293,-3.624l-1.255,-7.138l-9.541,0.471l-3.681,-5.181l-3.206,4.418l-9.547,-3.122l5.826,-6.154l-3.833,-7.031l8.256,9.674l0.028,-3.839l2.738,1.851l8.064,-4.514l-5.065,1.267l-6.66,-5.204l6.661,-8.571l-6.608,-0.779l0.946,-4.656l-7.41,-4.029l6.217,-10.226l-20.083,6.914l-0.329,-15.873l3.935,-7.258l18.453,-12.903l2.307,3.339l9.591,-0.872l2.256,-2.74l-3.869,-3.846l6.641,-0.108l-0.73,4.249l24.722,-6.584l1.678,-2.741l-8.896,-1.311l24.583,-12.182l-15.885,1.971l-7.067,-4.6l1.751,-7.14l47.518,-9.457l1.74,-7.28l16.116,-17.775l20.387,-16.05l30.437,-7.718l5.032,-6.604l4.822,0.666l-1.675,3.765l5.978,4.63l7.115,0.185l7.456,-6.001l13.776,10.591l8.731,-6.344l18.025,4.531l2.241,-5.355l5.843,2.668l13.569,-3.027l17.938,-13.803l17.552,-0.928l6.925,-8.205l0.836,314.574Zm-39.576,-87.496l0.019,-0.011l-0.016,-0.028l-0.015,0.005l0.012,0.034Zm-3.718,10.644l0.006,-0.01l-0.008,0.002l0.002,0.008Zm-1.728,16.209l0.001,0.013l0.004,-0.017l-0.005,0.004Zm0.021,0.056l-0.005,-0.048l-0.004,0.004l0.009,0.044Zm0.011,0.013l0.004,-0.018l-0.005,0.004l0.001,0.014Zm0.016,0.027l-0.001,-0.032l-0.004,0.004l0.005,0.028Zm0.013,0.02l0.002,-0.025l-0.005,0.005l0.003,0.02Zm0.02,0.043l-0.005,-0.047l-0.004,0.004l0.009,0.043Zm0.011,0.013l0.004,-0.017l-0.004,0.004l0,0.013Zm0.018,0.035l-0.003,-0.04l-0.004,0.004l0.007,0.036Zm0.013,0.021l0.002,-0.025l-0.004,0.004l0.002,0.021Zm0.014,0.02l0.001,-0.025l-0.004,0.004l0.003,0.021Zm0.021,0.05l-0.006,-0.055l-0.004,0.004l0.01,0.051Zm0.014,0.021l0.001,-0.025l-0.004,0.004l0.003,0.021Zm0.015,0.027l0,-0.032l-0.004,0.004l0.004,0.028Zm0.01,0.005l0.005,-0.009l-0.004,0.004l-0.001,0.005Zm0.02,0.043l-0.005,-0.047l-0.004,0.004l0.009,0.043Zm-0.23,-0.434l0.003,0.04l0.004,-0.004l-0.007,-0.036Zm2.215,-5.457l0.004,-0.004l0.001,-0.006l-0.007,0.002l0.002,0.008Z" style="fill:#7f7f7f;"/><path d="M739.234,-27.808l-2.701,1.186l5.136,0.962l-5.401,6.619l-6.949,-6.48l4.672,14.418l-7.878,2.299l5.697,6.765l-3.785,9.713l3.442,9.093l-5.835,-2.622l-0.58,4.729l7.278,23.293l-2.393,3.706l7.432,0.723l0.796,3.78l4.323,-3.485l10.663,9.515l-4.065,-0.37l4.541,6.494l2.1,-2.284l1.606,4.255l-0.644,-4.421l5.187,6.915l-3.502,-1.383l-1.672,5.986l5.637,0.218l-10.176,11.575l-5.999,-1.08l3.48,3.295l-6.187,-1.513l0.689,-5.507l-4.589,-6.472l-3.193,2.182l2.054,3.086l1.975,-3.231l2.226,8.82l-5.688,-6.11l0.588,6.558l-13.59,-3.943l-1.244,4.033l-6.886,-0.138l7.383,0.838l-1.087,5.264l-17.531,1.5l9.447,3.881l8.488,-5.257l0.94,-5.268l6.712,1.83l-1.695,-3.554l14.706,10.387l-1.623,10.221l-7.787,1.754l1.808,2.89l-14.697,1.562l12.674,3.666l-8.549,1.066l7.915,7.899l-4.088,0.177l4.068,9.91l-5.387,-0.863l4.531,5.134l-5.44,-4.168l5.606,4.564l-3.326,0.034l3.83,6.957l-3.646,7.147l1.93,15.115l-8.845,22.189l-4.692,-3.874l-15.342,2.47l1.713,4.355l-4.025,-0.971l-4.982,7.184l0.31,13.939l-21.779,0.599l1.695,-8.843l-11.352,-18.5l6.171,2.003l-3.385,-5.752l5.229,-5.146l-10.181,-10.008l-8.292,-23.32l-3.302,-0.347l1.881,-18.997l-5.582,2.453l1.045,-7.052l-1.706,6.357l-0.089,-5.732l-3.49,3.208l-2.421,-19.499l3.55,-3.664l2.264,3.876l-1.473,-4.087l-2.637,0.449l-0.32,0.432l-0.313,-3.206l-7.161,-0.993l0.087,-20.69l-4.324,2.239l0.734,9.653l-1.303,-5.027l-3.408,-1.585l5.029,12.874l-3.434,7.974l-7.115,2.995l-0.906,-4.01l-4.561,-1.214l3.764,4.32l-10.961,6.963l2.524,2.292l-16.602,17.113l-2.855,-3.806l-1.475,4.877l-14.734,2.429l2.264,-4.699l-3.085,3.171l-1.728,-5.302l-1.166,4.277l-4.225,-2.029l6.393,-4.997l-8.754,0.166l-10.937,-8.871l-0.73,-15.093l2.263,5.657l2.649,-3.406l3.419,3.756l2.502,0.487l-2.275,-3.372l8.38,-2.922l-6.111,1.033l-2.669,1.941l-0.515,1.216l-2.594,-5.656l10.93,-6.691l-8.391,-1.098l9.433,-6.174l-5.223,1.022l0.874,-3.749l-1.761,5.044l-3.971,3.501l3.689,-3.706l-5.292,-2.259l-3.752,8.476l0.21,-7.451l-4.805,6.921l-1.463,-8.046l5.1,-6l-1.535,7.593l2.491,-6.032l3.043,2.667l9.055,-7.152l-5.344,2.797l-5.175,-3.237l10.369,-7.969l-3.459,-2.141l4.439,-5.239l4.869,-0.848l-2.442,10.187l2.662,-9.583l7.019,-3.158l-3.419,0.037l1.768,-2.763l-5.085,4.548l0.331,-2.8l-7.685,1.23l-7.71,14.587l0.457,-6.329l-2.987,0.696l3.283,-7.088l-5.411,7.737l-3.602,-7.631l2.239,-4.53l6.452,2.579l0.441,-6.195l3.287,0.698l-3.482,-4.01l-2.489,3.955l-4.467,2.484l-4.41,-8.518l7.39,5.869l-2.635,-4.322l5.029,-2.875l-7.435,0.881l-1.09,-4.265l1.446,3.123l3.198,-3.434l-4.244,-1.744l6.809,1.902l6.813,-3.976l6.974,4.207l3.753,-5.018l5.352,3.853l-2.827,5.257l3.227,-3.055l0.96,3.88l-0.891,-7.46l6.359,0.304l3.775,-3.881l-5.856,-2.188l4.287,-5.902l-4.57,2.893l0.377,7.286l-5.784,1.118l3.488,-4.631l-2.662,3.29l-5.839,-1.77l2.628,-6.395l-4.639,9.107l-5.873,-3.464l-12.601,2.673l-3.305,-5.671l10.446,-1.745l-10.16,-2.427l12.879,-0.359l-9.742,-2.32l4.32,-2.021l-6.773,-0.688l6.354,-1.112l-6.319,0.236l0.226,-3.451l6.792,-5.004l2.915,3.426l4.924,-0.828l-1.239,3.511l1.888,-3.386l11.915,-0.081l-20.15,-3.306l-4.026,1.078l3.892,-3.518l-4.322,-5.631l4.75,6.163l0.798,-5.994l3.204,3.658l2.954,-2.919l-1.317,5.545l2.197,-4.089l4.622,2.827l-5.228,-5.25l6.223,-4.33l2.525,8.341l-1.62,-8.69l4.61,-1.788l3.805,5.291l-2.285,5.979l4.775,-0.172l-3.379,-0.661l1.317,-4.842l5.568,0.898l-8.508,-7.367l-9.413,-0.061l8.154,-0.294l-6.46,-3.113l11.786,-1.595l0.613,4.031l0.591,-3.274l5.291,4.3l3.37,-2.347l-3.339,0.585l-2.071,-2.407l10.681,-1.529l-16.444,-1.569l3.778,-2.438l-4.727,-3.209l5.824,-2.885l1.688,3.455l8.559,-1.786l6.737,9.265l-7.243,-11.268l-1.633,1.191l3.014,-3.552l2.754,7.884l5.598,1.163l-3.835,-3.971l3.27,-1.232l-6.845,-3.915l11.511,-2.434l-6.095,-1.627l137.583,-0.438Z" style="fill:#7f7f7f;"/></g><path d="M562.59,270.892l0.35,0.015l-0.007,0.147l0.351,0.016l-0.007,0.146l0.263,0.012l0.007,-0.147l0.175,0.008l0.006,-0.147l0.088,0.004l-0.007,0.147l0.351,0.015l-0.013,0.294l-0.263,-0.012l0.007,-0.147l-0.088,-0.003l-0.007,0.146l-0.087,-0.003l0.006,-0.147l-0.087,-0.004l-0.007,0.147l0.263,0.011l0.175,0.008l-0.006,0.147l-0.175,-0.008l0.175,0.008l-0.007,0.147l0.263,0.011l0.007,-0.147l-0.176,-0.007l0.007,-0.147l0.088,0.004l0.006,-0.147l0.263,0.011l-0.006,0.147l0.175,0.008l-0.007,0.146l0.176,0.008l-0.007,0.147l0.176,0.007l-0.007,0.147l-0.006,0.147l-0.088,-0.004l-0.006,0.147l-0.088,-0.004l-0.026,0.588l0.088,0.003l-0.006,0.147l0.087,0.004l-0.006,0.147l0.088,0.003l-0.088,-0.003l-0.006,0.147l0.087,0.003l-0.012,0.294l-0.007,0.147l-0.006,0.147l0.088,0.003l-0.013,0.294l-0.006,0.147l-0.007,0.147l0.088,0.003l-0.088,-0.003l0.088,0.003l-0.088,-0.003l0.088,0.003l-0.006,0.147l0.088,0.004l-0.007,0.147l0.007,-0.147l0.088,0.004l-0.007,0.146l0.176,0.008l-0.006,0.147l0.175,0.007l-0.006,0.147l0.176,0.007l-0.006,0.147l0.087,0.004l-0.006,0.147l0.088,0.004l-0.176,-0.008l0.007,-0.147l-0.088,-0.003l-0.007,0.146l0.352,0.015l-0.006,0.147l0.263,0.011l0.088,0.004l-0.006,0.147l0.352,0.014l-0.006,0.147l0.351,0.015l0.006,-0.147l-0.006,0.147l0.088,0.003l-0.088,-0.003l-0.006,0.146l0.176,0.008l-0.006,0.146l0.528,0.022l0.176,0.007l0.351,0.014l0.176,0.008l0.006,-0.147l0.264,0.01l-0.088,-0.003l-0.006,0.147l-0.088,-0.004l-0.006,0.147l-0.176,-0.007l-0.012,0.294l0.088,0.003l-0.006,0.147l-0.088,-0.004l-0.011,0.294l-0.088,-0.004l-0.006,0.147l0.088,0.004l-0.006,0.147l0.088,0.003l-0.006,0.147l0.176,0.007l-0.006,0.147l0.264,0.01l-0.006,0.147l0.088,0.004l0.006,-0.147l-0.006,0.147l0.44,0.017l0.088,0.004l-0.005,0.147l0.528,0.02l-0.006,0.147l0.265,0.01l0.352,0.014l-0.006,0.147l0.006,-0.147l0.082,0.15l-0.005,0.147l-0.006,0.147l0.077,0.297l-0.012,0.294l-0.005,0.146l-0.012,0.294l-0.088,-0.003l-0.094,0.143l0.088,0.004l0.259,0.157l-0.182,0.14l-0.176,-0.007l-0.282,0.43l-0.006,0.147l-0.088,-0.003l-0.006,0.146l0.088,0.004l-0.005,0.147l-0.094,0.143l-0.089,-0.003l-0.005,0.146l-0.089,-0.003l0.083,0.15l-0.012,0.294l0.089,0.003l-0.095,0.144l0.177,0.007l0.171,0.153l-0.011,0.294l-0.029,0.734l-0.011,0.294l0.06,0.737l0.048,1.032l-0.005,0.146l0.088,0.004l-0.006,0.147l-0.094,0.143l-0.194,0.434l-0.212,0.874l-0.088,-0.003l-0.106,0.437l-0.189,0.286l-0.284,0.43l-0.094,0.144l-0.095,0.143l-0.378,0.574l-0.189,0.286l-0.095,0.143l-0.095,0.144l-0.095,0.143l-0.373,0.426l-0.006,0.147l0.083,0.151l-0.006,0.146l-0.385,0.72l-0.006,0.147l-0.024,0.587l-0.113,0.584l-0.018,0.44l-0.029,0.735l-0.102,0.29l-0.017,0.44l-0.012,0.294l-0.107,0.437l-0.024,0.587l-0.114,0.584l0.09,0.003l-0.191,0.287l-0.179,-0.008l-0.267,-0.011l-0.179,-0.007l-0.083,-0.15l-0.09,-0.004l-0.083,-0.151l-0.095,0.143l-0.09,-0.003l-0.083,-0.151l-0.268,-0.011l-0.006,0.147l-0.268,-0.011l-0.714,-0.03l-0.166,-0.302l-0.536,-0.022l-0.089,-0.004l0.007,-0.147l-0.09,-0.004l-0.095,0.143l-0.268,-0.012l-0.089,-0.003l-0.083,-0.151l-0.179,-0.008l-0.006,0.147l-0.536,-0.024l0.007,-0.146l-0.185,0.139l0.006,-0.147l-0.268,-0.012l-0.095,0.143l-0.357,-0.016l-0.007,0.147l-0.089,-0.004l0.006,-0.147l0.09,0.004l-0.09,-0.004l-0.096,0.143l-0.178,-0.008l-0.007,0.147l-0.089,-0.005l-0.192,0.286l-0.178,-0.008l-0.007,0.147l0.089,0.004l-0.007,0.147l0.179,0.008l-0.013,0.293l-0.007,0.147l-0.096,0.143l-0.013,0.293l-0.096,0.143l0.778,0.623l0.083,0.151l-0.186,0.139l-0.089,-0.004l-0.172,-0.155l-0.269,-0.012l-0.102,0.29l-0.09,-0.004l-0.007,0.147l-0.53,-0.172l-0.089,-0.004l0.076,0.298l-0.007,0.147l0.083,0.151l0.09,0.004l0.069,0.444l0.089,0.004l-0.096,0.143l-0.006,0.147l-0.014,0.293l-0.096,0.143l-0.007,0.147l-0.006,0.147l0.434,0.313l0.09,0.005l0.172,0.154l0.09,0.004l0.083,0.151l0.173,0.155l0.269,0.012l0.083,0.151l0.269,0.012l0.448,0.019l0.096,-0.143l0.359,0.016l0.173,0.155l0.179,0.007l-0.096,0.143l-0.007,0.147l0.186,-0.139l0.09,0.004l0.442,0.166l0.09,0.004l0.173,0.154l0.089,0.004l0.263,0.158l0.09,0.004l0.263,0.158l0.096,-0.143l0.089,0.004l0.096,-0.143l0.09,0.004l0.192,-0.286l0.095,-0.143l0.013,-0.294l0.179,0.007l0.096,-0.143l-0.006,0.147l0.089,0.004l-0.006,0.147l0.084,0.15l-0.006,0.147l0.077,0.297l0.084,0.151l-0.012,0.293l0.263,0.158l-0.006,0.147l0.083,0.151l0.084,0.15l-0.006,0.147l0.18,0.007l-0.006,0.147l0.179,0.007l0.09,0.004l-0.006,0.147l0.084,0.15l0.162,0.448l-0.012,0.294l-0.012,0.293l-0.006,0.147l-0.186,0.14l-0.101,0.29l-0.006,0.146l-0.192,0.287l-0.006,0.147l-0.096,0.143l-0.09,-0.004l0.09,0.004l-0.192,0.286l-0.006,0.147l-0.096,0.143l-0.012,0.294l-0.012,0.293l0.084,0.151l-0.006,0.147l0.09,0.003l0.078,0.297l0.258,0.305l0.175,0.154l-0.193,0.286l-0.366,0.133l-0.451,-0.019l-0.45,-0.018l-0.09,-0.004l-0.007,0.147l-0.09,-0.004l-0.012,0.294l-0.096,0.143l-0.006,0.147l-0.091,-0.004l-0.096,0.143l-0.006,0.147l-0.09,-0.004l-0.006,0.147l-0.09,-0.004l-0.007,0.147l-0.09,-0.004l-0.006,0.147l-0.451,-0.019l-0.271,-0.012l-0.096,0.143l-0.091,-0.004l-0.006,0.147l-0.187,0.139l-0.096,0.143l-0.187,0.139l-0.115,0.584l-0.007,0.147l-0.09,-0.004l-0.006,0.146l-0.181,-0.007l-0.097,0.143l-0.18,-0.008l-0.368,0.131l-0.091,-0.004l-0.361,-0.016l-0.632,-0.028l-0.181,-0.008l-0.013,0.294l-0.013,0.293l-0.091,-0.004l-0.006,0.147l0.006,-0.147l-0.09,-0.004l-0.006,0.147l-0.091,-0.004l-0.006,0.147l0.09,0.004l-0.007,0.147l-0.09,-0.004l-0.194,0.285l-0.362,-0.016l-0.278,0.134l-0.18,-0.008l0.09,0.004l-0.007,0.147l-0.194,0.285l-0.02,0.441l0.543,0.024l0.62,0.322l0.259,0.306l0.09,0.004l0.084,0.151l0.265,0.159l-0.006,0.146l0.44,0.314l-0.091,-0.004l0.356,0.163l0.084,0.15l-0.019,0.441l-0.006,0.146l-0.097,0.143l-0.272,-0.012l-0.091,-0.004l-0.097,0.143l-0.091,-0.004l-0.019,0.441l-0.097,0.142l-0.007,0.147l-0.187,0.139l0.09,0.004l-0.285,0.282l-0.097,0.142l-0.272,-0.012l-0.007,0.147l-0.091,-0.004l-0.006,0.147l-0.273,-0.012l-0.006,0.146l-0.091,-0.004l-0.006,0.147l-0.182,-0.008l-0.35,-0.31l0.007,-0.147l-0.091,-0.004l0.007,-0.147l-0.273,-0.012l0.007,-0.147l-0.097,0.143l-0.182,-0.008l-0.097,0.142l-0.091,-0.004l-0.188,0.138l-0.273,-0.012l-0.006,0.147l-0.363,-0.017l-0.28,0.134l-0.272,-0.013l-0.188,0.138l-0.091,-0.004l-0.189,0.138l-0.09,-0.004l0.084,0.151l-0.182,-0.008l0.007,-0.147l-0.091,-0.004l-0.007,0.146l-0.084,-0.151l-0.007,0.147l-0.181,-0.009l-0.007,0.147l-0.091,-0.004l-0.098,0.142l-0.182,-0.008l-0.09,-0.005l-0.098,0.143l-0.091,-0.005l-0.007,0.147l-0.091,-0.004l-0.098,0.142l-0.363,-0.017l-0.007,0.146l-0.091,-0.004l-0.084,-0.151l-0.091,-0.005l0.007,-0.146l-0.09,-0.005l0.007,-0.147l-0.091,-0.004l-0.098,0.142l-0.182,-0.009l-0.007,0.147l-0.084,-0.151l0.008,-0.147l-0.273,-0.013l0.007,-0.147l-0.181,-0.009l-0.008,0.147l-0.09,-0.005l0.007,-0.146l-0.182,-0.009l-0.007,0.146l-0.091,-0.004l-0.007,0.147l0.091,0.004l0.083,0.151l0.091,0.005l0.084,0.151l0.091,0.005l-0.098,0.142l-0.099,0.142l0.091,0.005l-0.007,0.146l0.091,0.005l-0.007,0.147l-0.084,-0.152l-0.014,0.294l0.09,0.004l-0.272,-0.013l-0.084,-0.151l-0.363,-0.018l-0.175,-0.156l0.015,-0.294l-0.273,-0.013l0.008,-0.147l-0.364,-0.018l-0.272,-0.014l-0.008,0.147l-0.091,-0.005l-0.083,-0.151l0.007,-0.147l-0.083,-0.151l0.008,-0.147l-0.091,-0.005l0.007,-0.147l-0.272,-0.013l-0.083,-0.152l-0.091,-0.005l-0.008,0.147l-0.091,-0.004l-0.098,0.142l-0.272,-0.014l0.007,-0.147l-0.098,0.142l-0.091,-0.005l0.008,-0.146l-0.182,-0.01l-0.008,0.147l-0.363,-0.019l0.008,-0.147l-0.091,-0.004l-0.174,-0.157l-0.174,-0.156l0.008,-0.147l0.181,0.01l-0.09,-0.005l0.007,-0.147l-0.09,-0.004l-0.257,-0.308l-0.182,-0.01l0.008,-0.146l-0.181,-0.01l-0.19,0.137l-0.272,-0.014l-0.008,0.146l-0.082,-0.151l-0.091,-0.005l-0.008,0.147l-0.083,-0.152l-0.099,0.142l-0.098,0.142l0.363,0.019l0.091,0.005l-0.008,0.147l0.181,0.01l-0.007,0.146l0.09,0.005l-0.007,0.147l0.09,0.005l-0.007,0.146l-0.008,0.147l0.181,0.01l-0.007,0.146l0.181,0.01l-0.031,0.587l-0.355,-0.166l-0.273,-0.014l-0.363,-0.02l-0.273,-0.014l-0.083,-0.152l-0.181,-0.01l-0.083,-0.151l-0.174,-0.157l-0.083,-0.151l-0.008,0.146l-0.09,-0.005l-0.008,0.147l-0.182,-0.01l0.083,0.152l-0.091,-0.005l-0.008,0.147l-0.182,-0.01l-0.098,0.142l-0.364,-0.02l-0.008,0.147l-0.091,-0.005l-0.008,0.146l-0.272,-0.015l-0.008,0.147l-0.273,-0.015l0.008,-0.147l-0.363,-0.02l0.008,-0.147l-0.198,0.284l-0.19,0.136l0.264,0.162l-0.008,0.147l-0.272,-0.015l0.09,0.005l-0.008,0.147l0.273,0.015l-0.008,0.147l0.091,0.005l0.083,0.151l0.082,0.152l-0.09,-0.005l0.09,0.005l-0.099,0.142l-0.008,0.146l0.182,0.01l0.083,0.152l0.008,-0.146l0.083,0.151l-0.182,-0.01l-0.008,0.147l0.083,0.152l0.091,0.005l-0.008,0.146l-0.281,0.132l-0.099,0.142l-0.091,-0.005l-0.19,0.136l-0.091,-0.005l-0.009,0.147l-0.091,-0.005l0.091,0.005l-0.008,0.147l-0.008,0.146l0.364,0.021l0.364,0.02l0.183,0.01l-0.008,0.146l0.273,0.015l-0.008,0.147l0.273,0.015l-0.008,0.147l0.091,0.005l-0.008,0.146l0.091,0.005l-0.091,-0.005l0.182,0.01l-0.008,0.147l-0.273,-0.015l-0.008,0.147l-0.091,-0.005l-0.008,0.147l-0.008,0.146l0.091,0.005l-0.016,0.294l-0.091,-0.005l0.091,0.005l-0.008,0.147l-0.008,0.146l-0.008,0.147l0.091,0.005l-0.008,0.147l0.539,0.176l0.183,0.01l0.091,0.005l-0.008,0.146l0.183,0.01l0.091,0.005l0.083,0.152l0.099,-0.142l0.091,0.005l0.175,0.156l-0.008,0.147l-0.091,-0.005l-0.099,0.142l0.091,0.005l-0.198,0.284l-0.115,0.435l-0.091,-0.005l-0.008,0.147l-0.016,0.293l0.084,0.152l0.258,0.308l0.183,0.01l0.083,0.151l0.076,0.298l0.092,0.005l0.167,0.303l0.175,0.157l0.251,0.454l0.076,0.299l0.092,0.005l-0.008,0.146l0.183,0.01l0.084,0.151l0.084,0.152l0.091,0.005l-0.008,0.146l0.168,0.303l-0.007,0.147l-0.031,0.587l0.084,0.151l0.077,0.299l-0.008,0.146l-0.008,0.147l-0.015,0.294l-0.091,-0.005l0.076,0.298l-0.183,-0.009l-0.015,0.293l-0.008,0.147l-0.13,0.729l-0.099,0.142l0.183,0.009l0.276,0.014l-0.199,0.284l-0.099,0.142l0.091,0.005l-0.091,-0.005l0.084,0.152l-0.008,0.147l0.084,0.151l-0.015,0.293l0.092,0.005l-0.007,0.147l-0.283,0.132l-0.192,0.138l-0.199,0.283l-0.092,-0.004l0.085,0.151l-0.368,-0.019l-0.092,-0.005l-0.007,0.147l-0.1,0.142l-0.092,-0.005l-0.008,0.147l-0.007,0.146l-0.1,0.142l-0.008,0.147l-0.199,0.284l-0.092,-0.005l-0.007,0.147l-0.192,0.137l-0.092,-0.005l-0.023,0.44l-0.184,-0.01l-0.008,0.147l-0.192,0.137l-0.1,0.142l-0.291,0.278l-0.093,-0.005l-0.099,0.142l-0.092,-0.005l0.16,0.45l-0.008,0.147l-0.276,-0.015l-0.016,0.293l-0.023,0.441l0.076,0.298l-0.008,0.147l-0.008,0.146l0.085,0.152l0.084,0.152l0.461,0.024l0.092,0.005l0.008,-0.146l0.092,0.004l0.008,-0.146l0.184,0.01l0.1,-0.142l0.185,0.009l0.192,-0.137l0.184,0.01l0.1,-0.142l0.261,0.308l-0.092,-0.005l-0.1,0.142l-0.184,-0.009l-0.385,0.274l0.269,0.161l0.354,0.313l-0.092,-0.005l-0.008,0.147l-0.092,-0.005l-0.008,0.147l-0.461,-0.025l-0.185,-0.01l-0.007,0.147l0.007,-0.147l-0.007,0.147l-0.093,-0.005l0.008,-0.146l-0.008,0.146l-0.092,-0.005l-0.1,0.142l-0.277,-0.015l-0.092,-0.004l-0.008,0.146l-0.184,-0.01l-0.008,0.147l-0.092,-0.005l0.084,0.152l-0.092,-0.005l-0.085,-0.152l-0.008,0.147l-0.1,0.142l0.093,0.005l-0.185,-0.01l-0.092,-0.005l-0.1,0.141l-0.101,0.142l-0.008,0.147l-0.184,-0.01l-0.008,0.147l-0.092,-0.005l-0.101,0.141l-0.369,-0.02l-0.008,0.147l-0.185,-0.01l-0.1,0.141l-0.092,-0.005l-0.008,0.147l-0.093,-0.005l-0.008,0.147l-0.185,-0.01l-0.008,0.146l-0.092,-0.005l0.092,0.005l-0.1,0.142l-0.1,0.141l-0.093,-0.005l0.093,0.005l-0.009,0.147l-0.092,-0.005l-0.024,0.44l-0.185,-0.01l-0.008,0.147l-0.008,0.146l0.008,-0.146l-0.277,-0.016l-0.185,-0.01l0.008,-0.147l-0.084,-0.152l-0.093,-0.005l0.016,-0.293l-0.084,-0.152l0.008,-0.147l-0.092,-0.005l-0.193,0.137l-0.092,-0.006l-0.101,0.142l-0.101,0.141l-0.092,-0.005l-0.37,-0.021l-0.008,0.147l0.084,0.152l-0.008,0.147l0.092,0.005l-0.008,0.146l-0.101,0.142l0.093,0.005l-0.008,0.147l-0.009,0.147l0.177,0.157l0.185,0.01l-0.008,0.147l-0.008,0.146l0.185,0.011l-0.008,0.147l-0.017,0.293l-0.201,0.283l-0.093,-0.005l0.093,0.005l-0.008,0.147l0.277,0.015l0.101,-0.141l0.185,0.01l0.101,-0.142l0.278,0.016l0.1,-0.142l0.093,0.005l0.084,0.152l0.085,0.152l0.277,0.015l0.008,-0.146l0.186,0.01l0.74,0.04l-0.008,0.147l-0.1,0.142l-0.008,0.146l-0.101,0.142l-0.008,0.147l-0.185,-0.01l-0.008,0.146l0.177,0.157l-0.024,0.44l0.178,0.157l0.37,0.02l-0.007,0.147l0.1,-0.142l0.085,0.152l-0.008,0.147l0.371,0.02l0.185,0.01l0.085,0.151l0.008,-0.146l0.093,0.004l-0.008,0.147l-0.093,-0.005l-0.008,0.147l-0.093,-0.005l-0.007,0.147l-0.093,-0.005l-0.016,0.293l-0.1,0.142l-0.008,0.147l0.093,0.005l-0.008,0.146l0.093,0.005l-0.008,0.147l0.093,0.005l-0.101,0.142l0.093,0.005l-0.008,0.146l-0.093,-0.005l-0.008,0.147l-0.092,-0.005l0.092,0.005l-0.201,0.283l-0.016,0.294l-0.085,-0.152l-0.278,-0.015l0.093,0.005l-0.085,-0.152l0.093,0.005l-0.093,-0.005l0.093,0.005l-0.093,-0.005l0.008,-0.146l-0.008,0.146l-0.186,-0.01l-0.008,0.147l0.008,-0.147l-0.008,0.147l-0.185,-0.01l-0.186,-0.01l-0.008,0.147l-0.186,-0.01l-0.015,0.293l-0.008,0.147l0.092,0.005l0.085,0.151l-0.093,-0.005l0.093,0.005l-0.015,0.294l-0.093,-0.005l0.093,0.005l-0.093,-0.005l0.093,0.005l-0.008,0.147l-0.186,-0.011l-0.008,0.147l-0.093,-0.005l-0.008,0.147l-0.279,-0.015l0.008,-0.147l-0.186,-0.01l0.008,-0.147l-0.093,-0.005l-0.008,0.147l-0.092,-0.006l-0.008,0.147l-0.093,-0.005l-0.008,0.147l0.185,0.01l-0.008,0.147l0.279,0.015l-0.008,0.147l0.093,0.005l-0.008,0.146l0.093,0.005l0.085,0.152l0.279,0.015l-0.008,0.147l-0.101,0.142l-0.008,0.146l-0.093,-0.005l0.085,0.152l-0.007,0.147l0.178,0.157l0.178,0.156l-0.008,0.147l-0.101,0.142l-0.008,0.146l-0.008,0.147l-0.093,-0.005l-0.085,-0.152l-0.154,-0.597l-0.085,-0.151l0.007,-0.147l-0.093,-0.005l-0.194,0.136l-0.178,-0.156l-0.279,-0.016l-0.178,-0.157l-0.186,-0.01l-0.008,0.147l-0.279,-0.016l-0.372,-0.02l-0.194,0.136l-0.093,-0.005l-0.085,-0.152l-0.093,-0.006l-0.262,-0.309l-0.473,0.121l-0.009,0.147l-0.27,-0.163l-0.186,-0.011l-0.279,-0.016l-0.102,0.142l-0.093,-0.005l-0.262,-0.31l-0.093,-0.005l0.009,-0.147l-0.093,-0.005l-0.085,-0.152l-0.177,-0.158l-0.093,-0.005l-0.102,0.141l-0.186,-0.011l-0.397,0.419l-0.279,-0.017l-0.279,-0.016l-0.101,0.141l-0.186,-0.011l0.008,-0.146l0.093,0.005l0.009,-0.147l0.11,-0.287l0.102,-0.142l0.008,-0.146l0.009,-0.147l0.008,-0.147l-0.084,-0.152l0.008,-0.146l-0.185,-0.011l-0.346,-0.462l-0.186,-0.011l-0.168,-0.305l0.009,-0.146l-0.076,-0.299l0.009,-0.147l0.008,-0.146l0.009,-0.147l0.102,-0.141l0.017,-0.294l0.185,0.011l0.195,-0.135l0.185,0.011l0.194,-0.136l0.009,-0.147l0.202,-0.282l0.11,-0.288l0.093,0.006l0.278,0.016l0.008,-0.147l0.102,-0.141l0.101,-0.141l0.008,-0.147l0.203,-0.283l0.202,-0.282l0.008,-0.147l0.093,0.006l0.008,-0.147l-0.084,-0.152l-0.185,-0.011l-0.008,0.147l-0.186,-0.011l-0.176,-0.158l0.008,-0.146l0.388,-0.272l0.101,-0.141l0.303,-0.424l0.219,-0.576l-0.093,-0.005l0.101,-0.142l0.008,-0.146l0.093,0.005l-0.084,-0.152l0.008,-0.147l-0.185,-0.011l0.009,-0.146l0.109,-0.288l0.193,-0.136l0.009,-0.147l0.101,-0.141l0.008,-0.147l0.093,0.005l0.084,0.152l0.092,0.006l0.101,-0.142l0.008,-0.146l0.008,-0.147l0.101,-0.141l0.009,-0.147l-0.093,-0.005l0.009,-0.147l0.1,-0.141l0.37,0.021l0.193,-0.136l0.1,-0.142l-0.084,-0.152l-0.184,-0.01l-0.084,-0.152l-0.093,-0.006l0.009,-0.146l0.201,-0.283l0.101,-0.141l0.276,0.015l0.101,-0.141l0.201,-0.283l-0.176,-0.157l-0.092,-0.005l-0.084,-0.152l0.016,-0.294l-0.276,-0.016l-0.101,0.142l-0.276,-0.016l-0.369,-0.021l-0.092,-0.006l0.092,0.006l0.009,-0.147l-0.093,-0.005l0.009,-0.147l0.1,-0.141l-0.092,-0.006l0.009,-0.146l-0.268,-0.163l-0.092,-0.005l-0.176,-0.158l-0.092,-0.005l-0.101,0.141l-0.184,-0.011l-0.193,0.136l-0.277,-0.016l-0.452,-0.174l-0.552,-0.032l0.008,-0.147l-0.074,-0.299l-0.092,-0.005l-0.628,-0.332l-0.092,-0.006l-0.635,-0.186l-0.25,-0.456l-0.113,-1.185l-0.598,-0.773l-0.092,-0.005l-0.175,-0.158l-0.276,-0.017l-0.202,0.282l-0.193,0.135l-0.275,-0.017l-0.101,0.141l-0.193,0.135l-0.184,-0.012l-0.009,0.147l-0.092,-0.006l-0.01,0.147l-0.275,-0.017l-0.993,-0.358l-0.193,0.135l-0.092,-0.006l-0.194,0.135l-0.275,-0.017l-0.828,-0.054l-0.266,-0.164l-0.285,0.129l-0.184,-0.012l-0.175,-0.159l0.01,-0.147l0.212,-0.428l0.13,-0.58l-0.174,-0.159l0.01,-0.146l-0.266,-0.165l-0.092,-0.006l-0.082,-0.153l-0.102,0.141l-0.091,-0.006l-0.46,-0.031l-0.468,0.117l-0.276,-0.019l-0.187,-1.338l-0.082,-0.152l-0.675,-0.929l-0.082,-0.153l0.02,-0.293l0.507,-0.703l-0.091,-0.006l0.039,-0.586l-0.153,-0.452l-0.082,-0.153l-0.549,-0.037l0.01,-0.147l-0.173,-0.159l-0.082,-0.153l-0.091,-0.006l-0.203,0.281l-0.092,-0.007l-0.01,0.147l-0.101,0.14l-0.01,0.147l0.091,0.006l-0.01,0.147l-0.101,0.14l-0.102,0.14l-0.01,0.147l-0.284,0.128l-0.204,0.28l-0.284,0.128l-0.204,0.281l-0.193,0.134l-0.102,0.14l-0.092,-0.007l-0.101,0.141l-0.184,-0.013l-0.081,-0.153l-0.183,-0.013l-0.428,-0.472l-0.091,-0.006l-0.183,-0.013l-0.102,0.14l-0.184,-0.013l-0.549,-0.039l-0.367,-0.026l-0.366,-0.026l-0.173,-0.159l-0.081,-0.154l-0.081,-0.153l0.011,-0.146l0.091,0.006l0.275,0.02l0.091,0.006l0.082,0.154l0.183,0.013l0.091,0.006l0.183,0.013l0.092,0.007l0.081,0.153l0.011,-0.147l-0.061,-0.446l0.01,-0.147l0.113,-0.286l0.102,-0.14l0.031,-0.44l0.01,-0.147l-0.092,-0.006l-0.081,-0.153l-0.172,-0.16l-0.254,-0.313l-0.182,-0.013l-0.173,-0.159l-0.183,-0.013l-0.274,-0.02l-0.01,0.146l-0.183,-0.013l-0.296,0.274l-0.091,-0.007l-0.102,0.14l-0.011,0.147l-0.01,0.146l-0.102,0.14l-0.092,-0.006l-0.193,0.133l-0.113,0.286l-0.285,0.127l-0.285,0.126l-0.032,0.44l-0.011,0.147l-0.183,-0.014l-0.366,-0.026l-0.367,-0.027l-0.274,-0.021l-0.355,-0.173l-0.092,-0.007l-0.469,0.112l-0.549,-0.041l-0.091,-0.007l-0.048,-0.593l0.205,-0.279l0.011,-0.147l0.205,-0.279l0.102,-0.14l-0.091,-0.007l-0.081,-0.153l-0.08,-0.153l-0.366,-0.028l-0.274,-0.02l-0.194,0.132l-0.183,-0.014l-0.08,-0.153l-0.286,0.126l-0.194,0.132l-0.285,0.126l-0.286,0.126l-0.285,0.125l-0.092,-0.007l-0.205,0.279l-0.092,-0.007l-0.011,0.147l-0.045,0.586l-0.022,0.293l-0.011,0.146l0.069,0.3l0.091,0.007l0.333,0.468l-0.011,0.147l0.08,0.153l-0.114,0.286l-0.286,0.126l-0.286,0.125l-0.275,-0.021l-0.264,-0.168l-0.194,0.133l-0.184,-0.015l-0.126,-0.747l-1.099,-0.085l-0.012,0.146l-0.091,-0.007l-0.458,-0.036l-0.55,-0.044l0.309,-0.417l-0.091,-0.008l0.011,-0.146l-0.274,-0.022l0.011,-0.146l-0.274,-0.022l0.011,-0.147l-0.274,-0.022l-0.012,0.147l-0.275,-0.022l-0.091,-0.007l-0.012,0.146l-0.366,-0.029l-0.366,-0.03l0.012,-0.146l-0.367,-0.03l-0.183,-0.015l-0.091,-0.007l0.012,-0.147l-0.275,-0.022l-0.092,-0.007l0.012,-0.147l-0.274,-0.022l0.012,-0.147l-0.183,-0.015l0.012,-0.146l-0.092,-0.008l0.012,-0.146l0.012,-0.147l-0.183,-0.014l-0.091,-0.008l0.012,-0.146l-0.183,-0.015l0.012,-0.147l-0.183,-0.015l0.024,-0.293l-0.092,-0.007l0.012,-0.147l-0.012,0.147l-0.012,0.146l-0.091,-0.007l0.091,0.007l-0.012,0.147l-0.091,-0.008l0.012,-0.146l0.091,0.007l-0.183,-0.015l0.012,-0.146l-0.182,-0.016l0.012,-0.146l-0.183,-0.015l0.012,-0.147l-0.092,-0.007l0.013,-0.147l-0.092,-0.007l-0.012,0.146l-0.183,-0.015l-0.012,0.147l-0.274,-0.023l-0.092,-0.008l-0.012,0.147l-0.091,-0.008l0.012,-0.146l-0.012,0.146l-0.274,-0.023l-0.013,0.147l-0.091,-0.008l-0.012,0.147l0.091,0.007l-0.091,-0.007l0.091,0.007l-0.024,0.293l-0.092,-0.008l-0.012,0.147l-0.091,-0.008l-0.012,0.147l0.091,0.007l-0.091,-0.007l0.091,0.007l-0.091,-0.007l-0.013,0.146l-0.091,-0.007l-0.012,0.146l-0.092,-0.008l-0.036,0.44l-0.183,-0.016l-0.013,0.147l-0.091,-0.008l0.012,-0.146l-0.366,-0.031l-0.183,-0.015l-0.012,0.146l-0.275,-0.023l-0.012,0.146l-0.183,-0.015l-0.275,-0.023l-0.275,-0.024l0.092,0.008l-0.183,-0.016l0.012,-0.146l-0.091,-0.008l0.012,-0.146l-0.183,-0.016l0.013,-0.146l-0.092,-0.008l-0.091,-0.008l0.012,-0.146l-0.091,-0.008l0.012,-0.147l-0.183,-0.015l-0.183,-0.016l0.013,-0.146l-0.183,-0.016l-0.013,0.146l-0.183,-0.015l-0.091,-0.008l0.012,-0.147l-0.183,-0.015l0.013,-0.147l0.013,-0.146l-0.183,-0.016l0.012,-0.147l0.013,-0.146l-0.183,-0.016l0.013,-0.146l-0.092,-0.008l-0.091,-0.008l0.013,-0.146l-0.183,-0.016l0.012,-0.147l-0.091,-0.008l0.013,-0.146l0.091,0.008l0.013,-0.147l-0.013,0.147l0.366,0.031l-0.013,0.147l0.091,0.008l-0.012,0.146l-0.092,-0.008l0.092,0.008l0.012,-0.146l0.092,0.008l-0.013,0.146l0.092,0.008l0.012,-0.146l-0.091,-0.008l0.012,-0.147l0.275,0.024l0.012,-0.147l-0.091,-0.007l-0.013,0.146l-0.274,-0.024l-0.274,-0.023l0.012,-0.147l0.092,0.008l0.012,-0.146l0.366,0.031l-0.091,-0.008l0.012,-0.146l0.092,0.008l0.012,-0.147l-0.012,0.147l-0.092,-0.008l0.013,-0.147l-0.183,-0.015l0.013,-0.147l-0.013,0.147l0.091,0.008l-0.012,0.146l-0.092,-0.008l-0.012,0.147l-0.274,-0.024l-0.013,0.146l-0.091,-0.008l0.012,-0.146l-0.091,-0.008l-0.013,0.146l-0.091,-0.008l-0.013,0.147l0.013,-0.147l-0.091,-0.007l0.012,-0.147l-0.091,-0.008l-0.013,0.147l-0.091,-0.008l-0.013,0.146l-0.091,-0.008l-0.013,0.147l-0.274,-0.024l-0.013,0.146l-0.091,-0.008l-0.013,0.146l-0.091,-0.008l-0.183,-0.016l0.013,-0.146l-0.092,-0.008l-0.013,0.146l-0.274,-0.024l0.013,-0.146l-0.091,-0.008l0.012,-0.147l0.092,0.009l-0.092,-0.009l-0.025,0.293l0.091,0.008l-0.365,-0.032l-0.275,-0.024l0.013,-0.146l-0.182,-0.017l0.012,-0.146l-0.274,-0.024l0.013,-0.147l-0.182,-0.016l0.013,-0.146l-0.183,-0.017l0.013,-0.146l-0.092,-0.008l0.013,-0.147l-0.091,-0.008l0.013,-0.146l-0.091,-0.008l0.013,-0.147l0.013,-0.146l-0.091,-0.008l0.013,-0.147l-0.092,-0.008l0.013,-0.146l-0.182,-0.016l0.013,-0.147l-0.274,-0.024l0.013,-0.147l-0.182,-0.016l0.013,-0.147l-0.183,-0.016l0.013,-0.146l-0.182,-0.017l0.013,-0.146l-0.091,-0.008l0.013,-0.147l-0.091,-0.008l0.013,-0.146l-0.091,-0.009l0.026,-0.292l0.013,-0.147l0.091,0.008l0.014,-0.146l0.273,0.025l0.013,-0.147l0.182,0.017l0.092,0.008l0.013,-0.147l0.182,0.017l0.013,-0.147l0.182,0.017l0.014,-0.147l0.182,0.017l0.013,-0.147l0.273,0.025l0.013,-0.147l0.274,0.025l0.013,-0.147l-0.013,0.147l0.013,-0.147l0.273,0.024l0.013,-0.146l0.182,0.016l0.013,-0.146l0.273,0.024l0.013,-0.146l0.365,0.032l0.546,0.048l-0.013,0.146l0.274,0.024l-0.013,0.147l0.091,0.008l0.013,-0.147l0.546,0.048l0.013,-0.147l0.182,0.016l0.013,-0.146l0.273,0.024l0.026,-0.293l0.025,-0.293l-0.182,-0.016l0.013,-0.146l-0.013,0.146l0.091,0.008l0.013,-0.146l-0.273,-0.024l0.273,0.024l0.091,0.007l0.012,-0.146l0.092,0.008l0.012,-0.146l0.091,0.007l0.013,-0.146l0.091,0.008l0.013,-0.147l0.091,0.008l-0.013,0.147l0.013,-0.147l0.182,0.016l0.207,-0.277l-0.182,-0.016l0.012,-0.146l0.182,0.015l0.026,-0.292l-0.182,-0.016l0.091,0.008l-0.182,-0.016l0.012,-0.147l-0.182,-0.015l0.013,-0.147l-0.182,-0.015l0.013,-0.147l-0.091,-0.008l0.013,-0.146l-0.091,-0.008l0.013,-0.147l0.012,-0.146l0.026,-0.293l0.012,-0.146l0.091,0.008l0.013,-0.147l0.091,0.008l0.013,-0.146l0.012,-0.147l0.182,0.016l0.013,-0.147l0.363,0.032l0.013,-0.147l0.363,0.032l0.012,-0.147l0.364,0.032l0.012,-0.147l0.273,0.023l0.181,0.016l0.273,0.023l0.363,0.031l-0.012,0.147l0.09,0.007l0.013,-0.146l0.091,0.008l0.012,-0.147l0.013,-0.146l0.181,0.015l0.013,-0.146l0.181,0.015l0.013,-0.146l0.181,0.015l0.013,-0.146l0.181,0.015l0.012,-0.147l0.013,-0.146l0.091,0.008l0.012,-0.147l-0.091,-0.008l0.091,0.008l0.025,-0.293l-0.091,-0.007l0.012,-0.147l-0.091,-0.008l0.025,-0.292l-0.091,-0.008l0.091,0.008l0.013,-0.147l0.09,0.008l0.013,-0.147l0.09,0.008l0.013,-0.147l0.181,0.016l0.091,0.007l0.012,-0.146l0.272,0.023l0.363,0.03l0.012,-0.146l0.181,0.015l0.091,0.007l0.012,-0.146l0.363,0.03l0.012,-0.146l0.362,0.03l0.091,0.007l0.012,-0.146l0.272,0.022l0.091,0.008l0.012,-0.147l0.181,0.015l-0.012,0.147l0.181,0.015l-0.012,0.146l0.091,0.008l-0.091,-0.008l0.091,0.008l-0.012,0.146l0.091,0.008l-0.012,0.146l0.271,0.022l-0.012,0.147l0.012,-0.147l0.182,0.015l0.012,-0.146l0.181,0.015l0.012,-0.147l0.091,0.008l0.012,-0.147l0.181,0.015l0.024,-0.293l-0.091,-0.007l0.012,-0.147l-0.09,-0.007l0.012,-0.147l-0.091,-0.007l0.012,-0.147l-0.091,-0.007l0.012,-0.147l-0.09,-0.007l0.012,-0.147l-0.091,-0.007l0.012,-0.146l-0.09,-0.008l0.012,-0.146l-0.091,-0.008l0.012,-0.146l0.091,0.007l0.012,-0.146l0.09,0.007l0.012,-0.146l0.091,0.007l0.012,-0.147l0.181,0.015l-0.091,-0.007l0.091,0.007l0.012,-0.146l-0.091,-0.008l0.091,0.008l0.024,-0.293l-0.181,-0.015l0.012,-0.147l-0.181,-0.014l-0.012,0.146l-0.272,-0.022l-0.271,-0.023l-0.012,0.147l-0.181,-0.015l0.012,-0.146l-0.091,-0.008l0.013,-0.146l-0.091,-0.008l0.091,0.008l0.012,-0.147l0.09,0.008l0.012,-0.147l0.181,0.015l0.272,0.022l-0.091,-0.007l0.012,-0.147l0.091,0.008l0.012,-0.147l-0.091,-0.007l0.091,0.007l-0.091,-0.007l-0.012,0.146l-0.181,-0.014l-0.09,-0.008l0.09,0.008l0.012,-0.147l0.091,0.007l0.012,-0.146l0.09,0.007l0.012,-0.146l0.012,-0.147l-0.09,-0.007l0.012,-0.146l0.024,-0.293l0.091,0.007l0.012,-0.147l0.09,0.008l0.012,-0.147l0.012,-0.146l0.362,0.03l-0.091,-0.008l-0.012,0.147l0.362,0.029l0.09,0.008l-0.012,0.146l0.271,0.022l0.091,0.008l-0.012,0.146l0.18,0.015l0.193,-0.132l0.102,-0.139l-0.09,-0.007l0.09,0.007l0.012,-0.147l0.091,0.008l0.011,-0.147l0.181,0.015l0.012,-0.147l0.271,0.022l0.012,-0.146l0.09,0.007l0.012,-0.146l0.09,0.007l0.012,-0.147l0.091,0.008l0.011,-0.147l0.091,0.007l0.011,-0.146l0.091,0.007l0.012,-0.146l0.09,0.007l0.012,-0.147l0.18,0.015l0.012,-0.147l0.09,0.008l0.012,-0.147l0.09,0.007l0.012,-0.146l0.181,0.014l0.011,-0.146l0.091,0.007l0.011,-0.147l0.181,0.015l0.011,-0.147l0.091,0.008l0.011,-0.147l0.181,0.014l0.011,-0.146l0.091,0.007l0.011,-0.146l0.091,0.007l0.011,-0.147l0.09,0.007l0.012,-0.146l0.18,0.014l0.012,-0.146l0.18,0.014l0.012,-0.147l0.09,0.008l0.012,-0.147l0.09,0.007l0.011,-0.146l0.181,0.014l0.011,-0.147l0.09,0.007l0.012,-0.146l0.18,0.014l0.012,-0.146l-0.09,-0.008l0.18,0.015l0.012,-0.147l0.18,0.014l0.011,-0.146l0.09,0.007l0.012,-0.147l0.18,0.014l0.012,-0.146l0.09,0.007l0.011,-0.147l0.09,0.007l0.012,-0.146l0.09,0.007l0.011,-0.147l0.09,0.007l0.012,-0.146l0.18,0.014l0.011,-0.147l0.09,0.007l0.012,-0.146l0.09,0.007l0.011,-0.147l0.09,0.007l0.012,-0.146l0.18,0.014l0.011,-0.147l0.011,-0.146l0.18,0.014l0.012,-0.147l0.09,0.007l0.011,-0.147l0.09,0.007l0.011,-0.146l0.09,0.007l0.012,-0.147l0.09,0.007l0.011,-0.146l0.09,0.007l0.011,-0.147l0.09,0.007l0.012,-0.147l0.089,0.007l0.012,-0.146l0.09,0.007l0.011,-0.147l0.09,0.007l0.011,-0.146l0.012,-0.147l0.089,0.007l0.012,-0.147l0.09,0.007l0.011,-0.146l0.09,0.007l0.011,-0.147l0.09,0.007l0.011,-0.147l0.09,0.007l0.022,-0.293l0.09,0.007l0.012,-0.147l0.089,0.007l0.012,-0.146l0.089,0.007l0.012,-0.147l0.089,0.007l0.023,-0.293l0.09,0.007l0.011,-0.147l0.09,0.007l0.011,-0.147l0.09,0.007l0.022,-0.293l0.09,0.007l0.011,-0.147l0.09,0.007l0.011,-0.146l0.089,0.006l0.023,-0.293l0.089,0.007l0.012,-0.146l0.089,0.006l0.023,-0.293l0.089,0.007l0.011,-0.147l0.09,0.007l0.022,-0.293l0.09,0.007l0.011,-0.147l0.09,0.007l0.022,-0.293l0.09,0.007l0.011,-0.147l0.089,0.007l0.011,-0.147l0.09,0.007l0.011,-0.146l0.022,-0.294l0.09,0.007l0.011,-0.146l0.089,0.006l0.012,-0.146l0.011,-0.147l0.089,0.007l0.011,-0.147l0.011,-0.146l0.09,0.006l0.011,-0.146l0.089,0.007l0.022,-0.294l0.09,0.007l0.033,-0.44l0.089,0.007l0.011,-0.146l0.011,-0.147l0.09,0.007l0.011,-0.147l0.268,0.02l0.011,-0.146l0.269,0.02l0.089,0.006l0.011,-0.146l-0.089,-0.007l0.089,0.007l-0.268,-0.02l-0.269,-0.02l-0.011,0.146l-0.179,-0.013l0.012,-0.147l0.089,0.007l-0.089,-0.007l0.089,0.007l0.011,-0.147l0.089,0.007l0.022,-0.293l0.09,0.007l0.011,-0.147l0.089,0.007l0.011,-0.147l0.011,-0.146l0.089,0.006l0.022,-0.293l0.011,-0.146l0.09,0.006l0.011,-0.146l0.022,-0.294l0.089,0.007l0.011,-0.146l0.033,-0.44l0.011,-0.147l0.089,0.007l0.033,-0.44l0.089,0.007l0.022,-0.293l0.022,-0.294l0.089,0.007l0.011,-0.147l0.011,-0.146l0.033,-0.44l0.089,0.007l0.011,-0.147l0.022,-0.293l0.011,-0.147l0.01,-0.146l0.09,0.006l0.011,-0.146l0.01,-0.147l0.022,-0.293l0.089,0.007l0.011,-0.147l-0.089,-0.006l0.011,-0.147l0.089,0.007l0.022,-0.294l0.022,-0.293l0.089,0.007l0.033,-0.44l0.021,-0.293l0.011,-0.147l0.089,0.007l0.033,-0.44l0.022,-0.293l0.089,0.007l0.032,-0.44l0.089,0.006l0.011,-0.146l0.011,-0.147l0.089,0.007l0.011,-0.147l0.011,-0.146l0.088,0.006l0.022,-0.293l0.089,0.007l0.011,-0.147l0.089,0.006l0.01,-0.146l0.089,0.006l0.022,-0.293l0.089,0.007l0.01,-0.147l0.011,-0.146l0.089,0.006l0.011,-0.147l0.022,-0.293l0.088,0.007l0.022,-0.293l0.089,0.006l0.032,-0.44l0.089,0.007l0.011,-0.147l0.01,-0.146l0.089,0.006l0.011,-0.146l0.011,-0.147l0.088,0.006l0.033,-0.439l0.088,0.006l0.022,-0.293l0.01,-0.147l0.011,-0.146l0.011,-0.147l0.011,-0.146l0.021,-0.294l0.089,0.007l0.011,-0.147l0.053,-0.733l0.089,0.007l0.021,-0.293l0.089,0.006l0.011,-0.147l0.177,0.013l0.01,-0.146l0.266,0.019l-0.011,0.147l0.088,0.006l0.011,-0.147l0.089,0.007l0.176,0.012l0.266,0.02l-0.011,0.146l0.089,0.007l-0.089,-0.007l-0.01,0.147l0.265,0.019l-0.177,-0.013l0.089,0.007l0.01,-0.147l0.089,0.006l-0.089,-0.006l0.011,-0.147l0.177,0.013l-0.011,0.147l-0.011,0.146l-0.088,-0.006l-0.011,0.146l0.089,0.007l-0.089,-0.007l-0.01,0.147l-0.089,-0.006l-0.01,0.146l-0.022,0.294l0.089,0.006l-0.089,-0.006l-0.01,0.146l0.088,0.007l-0.01,0.146l0.088,0.006l-0.01,0.147l0.088,0.006l-0.01,0.147l0.088,0.006l-0.01,0.147l0.265,0.019l-0.01,0.147l0.177,0.012l-0.01,0.147l0.265,0.019l-0.01,0.146l0.177,0.013l0.089,0.006l-0.011,0.147l0.177,0.012l0.266,0.019l0.089,0.006l0.01,-0.146l0.178,0.012l0.177,0.013l0.01,-0.147l0.177,0.012l0.089,0.007l0.01,-0.147l0.266,0.019l0.01,-0.147l-0.088,-0.006l0.177,0.012l0.01,-0.146l0.177,0.012l0.011,-0.147l0.01,-0.146l0.089,0.006l0.01,-0.147l0.177,0.012l0.01,-0.146l0.354,0.024l0.177,0.013l0.011,-0.147l0.177,0.012l-0.01,0.147l0.265,0.018l0.01,-0.147l0.089,0.006l0.01,-0.146l0.088,0.006l-0.01,0.147l0.01,-0.147l0.089,0.006l-0.01,0.147l0.088,0.006l-0.088,-0.006l0.177,0.012l0.01,-0.147l0.266,0.018l0.01,-0.146l0.177,0.012l0.01,-0.147l0.177,0.012l0.01,-0.147l0.177,0.012l0.01,-0.146l0.088,0.006l0.01,-0.147l0.177,0.012l0.01,-0.147l0.177,0.012l0.01,-0.146l0.177,0.012l0.01,-0.147l0.177,0.012l0.01,-0.147l0.177,0.012l0.01,-0.147l0.177,0.012l0.009,-0.146l0.177,0.011l0.01,-0.146l0.177,0.012l0.01,-0.147l0.177,0.012l0.01,-0.147l0.088,0.006l0.01,-0.147l0.177,0.012l0.009,-0.147l0.089,0.006l0.01,-0.146l0.088,0.005l-0.01,0.147l-0.088,-0.006l0.088,0.006l0.01,-0.147l0.177,0.012l0.009,-0.147l0.177,0.012l0.01,-0.147l0.177,0.012l0.009,-0.147l0.177,0.012l0.01,-0.147l0.176,0.012l0.01,-0.147l0.177,0.012l0.009,-0.147l0.177,0.012l0.01,-0.147l0.088,0.006l0.01,-0.147l0.176,0.012l0.01,-0.147l0.265,0.017l0.009,-0.147l0.265,0.018l0.353,0.022l0.01,-0.146l-0.088,-0.006l0.353,0.023l0.088,0.005l0.01,-0.146l0.088,0.005l0.009,-0.146l0.177,0.011l0.009,-0.147l0.265,0.017l0.019,-0.293l0.009,-0.147l0.089,0.006l0.009,-0.147l0.088,0.006l0.01,-0.147l0.176,0.011l0.009,-0.146l0.089,0.005l0.018,-0.293l0.089,0.005l0.028,-0.44l0.088,0.006l-0.088,-0.006l0.009,-0.146l0.009,-0.147l0.089,0.006l0.028,-0.44l-0.089,-0.006l0.01,-0.147l-0.088,-0.005l0.009,-0.147l0.176,0.011l0.088,0.006l-0.176,-0.011l0.01,-0.147l0.176,0.011l0.009,-0.147l0.088,0.006l0.01,-0.147l0.088,0.006l0.018,-0.294l0.088,0.006l0.01,-0.147l0.088,0.006l0.018,-0.293l0.088,0.005l0.01,-0.147l0.176,0.011l0.009,-0.146l0.176,0.011l0.009,-0.147l0.088,0.006l0.009,-0.147l0.176,0.011l0.01,-0.147l0.175,0.011l0.01,-0.146l0.264,0.016l0.009,-0.147l0.176,0.011l0.009,-0.147l0.264,0.017l0.009,-0.147l0.088,0.006l0.009,-0.147l0.176,0.011l0.009,-0.147l0.088,0.005l0.009,-0.146l0.176,0.01l0.009,-0.146l0.088,0.005l0.009,-0.147l0.088,0.006l0.009,-0.147l0.087,0.006l0.01,-0.147l0.175,0.011l0.009,-0.147l0.176,0.011l0.009,-0.147l0.176,0.011l0.009,-0.147l0.351,0.021l0.009,-0.147l0.264,0.016l0.008,-0.146l0.176,0.01l0.009,-0.146l0.263,0.015l0.088,0.006l0.009,-0.147l0.176,0.01l0.263,0.016l0.009,-0.147l0.263,0.016l0.088,0.005l0.009,-0.146l0.351,0.02l0.009,-0.146l0.263,0.015l0.009,-0.147l0.263,0.016l0.009,-0.147l0.263,0.016l0.009,-0.147l0.263,0.015l0.088,0.005l0.008,-0.146l0.264,0.015l0.008,-0.147l0.263,0.015l0.009,-0.146l0.263,0.015l0.009,-0.147l0.263,0.015l0.008,-0.146l0.176,0.01l0.175,0.01l0.009,-0.147l0.175,0.01l0.088,0.005l0.008,-0.147l0.176,0.01l-0.088,-0.005l0.008,-0.147l-0.087,-0.004l0.008,-0.147l0.088,0.005l-0.009,0.146l0.176,0.01l-0.009,0.147l0.176,0.01l0.351,0.02l0.175,0.01l0.263,0.015l0.088,0.004l0.008,-0.146l0.263,0.014l0.175,0.01l0.009,-0.147l0.438,0.025l0.088,0.005l0.008,-0.147l0.175,0.009l0.263,0.015l0.351,0.019l0.008,-0.147l0.263,0.015l0.263,0.014l0.088,0.005l-0.008,0.146l0.087,0.005l0.008,-0.147l0.264,0.015l0.438,0.023l0.088,0.005l-0.008,0.147l0.35,0.018l0.008,-0.146l0.263,0.014l0.008,-0.147l0.175,0.009l0.088,0.005l0.008,-0.147l0.088,0.005l-0.008,0.146l0.263,0.014l0.175,0.009l-0.088,-0.004l0.088,0.004l0.175,0.01l-0.007,0.146l0.087,0.005l0.008,-0.147l0.351,0.018l0.087,0.005l0.008,-0.147l0.175,0.009l0.088,0.005l-0.008,0.147l0.263,0.013l-0.007,0.147l0.263,0.013l-0.008,0.147l0.263,0.014l-0.007,0.146l0.263,0.014l0.088,0.004l0.007,-0.146l0.263,0.013l0.008,-0.147l0.087,0.005l0.008,-0.147l0.351,0.017l0.087,0.005l0.008,-0.147l0.35,0.018l0.008,-0.147l0.526,0.026l0.35,0.017l0.351,0.018l0.007,-0.147l0.702,0.034l0.087,0.004l0.008,-0.147l0.175,0.009l0.35,0.017l0.176,0.008l0.263,0.013l0.175,0.008l0.007,-0.147l0.175,0.009l0.263,0.012l0.088,0.004l0.007,-0.147l0.175,0.009l0.263,0.012l0.007,-0.147l0.351,0.017l0.006,-0.147l0.263,0.012l0.007,-0.147l0.438,0.021l0.007,-0.147l0.175,0.008l0.351,0.016l0.175,0.008l0.007,-0.147l0.7,0.032l0.176,0.008Zm-36.93,59.564l-0.376,0.121l-0.275,-0.019l-0.02,0.294l-0.02,0.293l0.366,0.025l0.091,0.007l0.021,-0.294l0.01,-0.146l0.183,0.012l0.01,-0.146l0.092,0.006l-0.082,-0.153Z" style="fill:#ed702d;"/><path d="M498.005,329.743l0.092,0.008l0.091,0.008l0.183,0.016l0.091,0.008l0.092,0.008l-0.013,0.147l0.183,0.016l-0.013,0.146l0.366,0.033l0.091,0.008l-0.013,0.146l0.092,0.008l-0.013,0.147l0.366,0.032l-0.013,0.146l0.275,0.025l-0.013,0.146l0.275,0.024l0.183,0.016l-0.013,0.146l0.458,0.04l0.274,0.024l0.183,0.016l-0.012,0.147l-0.092,-0.008l-0.012,0.146l0.183,0.016l-0.013,0.146l0.013,-0.146l0.091,0.008l-0.012,0.146l0.274,0.024l-0.012,0.146l0.091,0.008l-0.012,0.147l0.458,0.039l0.366,0.032l-0.012,0.146l-0.092,-0.008l-0.013,0.147l0.184,0.015l-0.013,0.147l0.092,0.008l0.012,-0.147l-0.091,-0.008l0.091,0.008l0.013,-0.146l-0.092,-0.008l0.013,-0.146l0.091,0.007l-0.012,0.147l0.012,-0.147l0.367,0.032l0.091,0.007l-0.012,0.147l0.092,0.008l0.274,0.023l-0.012,0.147l0.183,0.015l0.013,-0.146l0.091,0.007l-0.012,0.147l0.183,0.015l-0.012,0.147l0.458,0.039l0.092,0.007l0.012,-0.146l0.183,0.015l0.012,-0.146l0.092,0.007l0.012,-0.146l0.275,0.023l0.012,-0.146l0.184,0.015l0.012,-0.146l0.275,0.022l0.012,-0.146l0.183,0.015l0.275,0.023l0.012,-0.146l0.275,0.023l0.012,-0.147l0.091,0.008l0.012,-0.147l0.013,-0.146l0.091,0.007l0.012,-0.146l0.036,-0.44l0.092,0.008l0.012,-0.147l0.092,0.008l0.274,0.023l-0.012,0.146l0.549,0.045l-0.012,0.147l0.092,0.007l-0.012,0.147l0.091,0.007l-0.012,0.147l0.092,0.007l-0.012,0.147l-0.012,0.146l0.092,0.008l-0.012,0.146l0.091,0.008l-0.012,0.146l0.184,0.015l-0.012,0.147l0.091,0.007l0.275,0.023l0.367,0.029l-0.012,0.147l0.275,0.022l-0.012,0.147l0.183,0.014l-0.012,0.147l0.092,0.007l-0.012,0.147l0.183,0.015l-0.011,0.146l0.091,0.008l-0.011,0.146l0.183,0.015l-0.183,-0.015l0.011,-0.146l-0.091,-0.008l0.011,-0.146l0.092,0.007l-0.092,-0.007l0.012,-0.147l-0.092,-0.007l0.092,0.007l-0.092,-0.007l0.012,-0.147l0.092,0.008l-0.183,-0.015l0.011,-0.147l-0.183,-0.014l0.012,-0.147l0.183,0.015l0.367,0.029l-0.012,0.147l0.092,0.007l-0.012,0.147l0.091,0.007l-0.011,0.147l0.183,0.014l-0.012,0.147l0.092,0.007l-0.012,0.147l0.092,0.007l0.012,-0.146l-0.092,-0.008l0.012,-0.146l0.183,0.014l-0.275,-0.022l-0.092,-0.007l0.012,-0.146l0.183,0.014l-0.011,0.147l0.011,-0.147l0.275,0.022l0.092,0.008l-0.367,-0.03l-0.091,-0.007l0.011,-0.147l-0.091,-0.007l0.012,-0.146l-0.092,-0.008l0.092,0.008l0.011,-0.147l-0.091,-0.007l0.274,0.022l0.012,-0.147l0.183,0.015l-0.023,0.293l-0.012,0.146l0.275,0.022l-0.011,0.147l0.091,0.007l-0.091,-0.007l0.011,-0.147l-0.183,-0.014l0.012,-0.147l-0.092,-0.007l0.092,0.007l0.011,-0.146l0.092,0.007l-0.012,0.147l0.092,0.007l-0.092,-0.007l0.012,-0.147l0.012,-0.146l0.091,0.007l0.012,-0.147l0.183,0.015l-0.012,0.146l0.275,0.022l-0.011,0.147l0.091,0.007l0.08,0.154l-0.011,0.146l0.183,0.015l-0.012,0.146l0.092,0.008l-0.012,0.146l-0.103,0.139l-0.195,0.132l-0.091,-0.007l-0.62,0.835l-0.104,0.14l-0.091,-0.008l-0.104,0.139l-0.195,0.132l-0.287,0.125l-0.885,0.666l-0.678,0.387l-0.196,0.131l-0.367,-0.03l-0.092,-0.007l-0.103,0.139l-0.368,-0.03l-0.275,-0.023l-0.196,0.131l-0.312,0.417l-0.092,-0.008l-0.208,0.278l-0.275,-0.023l-0.092,-0.007l-0.38,0.116l-0.288,0.123l-0.196,0.131l-0.275,-0.023l-0.08,-0.154l0.012,-0.147l-0.08,-0.154l-0.471,0.108l-0.092,-0.008l-0.748,0.084l-0.342,-0.324l0.024,-0.293l0.025,-0.293l0.013,-0.146l0.025,-0.293l0.208,-0.277l-0.446,-0.186l-0.184,-0.015l0.012,-0.147l-0.079,-0.154l-0.367,-0.032l-0.183,-0.015l-0.367,-0.032l-0.171,-0.162l-0.079,-0.155l-0.092,-0.008l-0.342,-0.324l-0.366,-0.032l-0.276,-0.024l-0.17,-0.163l-0.184,-0.016l-0.262,-0.17l-0.262,-0.171l-0.196,0.13l-0.013,0.147l-0.105,0.138l-0.091,-0.008l-0.079,-0.155l-0.275,-0.024l-0.105,0.138l-0.183,-0.016l-0.275,-0.024l-0.092,-0.008l-0.196,0.13l0.091,0.008l-0.013,0.146l0.027,0.74l0.066,0.301l-0.367,-0.032l-0.459,-0.041l-0.196,0.13l-0.367,-0.033l-0.263,-0.171l-0.183,-0.017l-0.066,-0.301l0.014,-0.146l-0.367,-0.034l-0.157,-0.309l-0.092,-0.008l-0.17,-0.163l0.013,-0.147l0.013,-0.146l-0.078,-0.155l0.026,-0.293l-0.091,-0.008l0.039,-0.439l0.119,-0.285l0.091,0.009l0.105,-0.138l0.013,-0.147l0.014,-0.146l-0.079,-0.155l-0.091,-0.008l-0.079,-0.155l0.014,-0.146l0.013,-0.147l-0.078,-0.154l-0.079,-0.155l0.079,0.155l0.078,0.154l0.013,-0.146l-0.078,-0.155l0.091,0.009l0.014,-0.147l0.091,0.009l0.014,-0.147l0.274,0.025l0.013,-0.146l0.275,0.025l0.091,0.008l0.013,-0.146l0.275,0.024l0.013,-0.146l0.092,0.008l-0.014,0.147l0.275,0.024l0.013,-0.146l0.366,0.033l0.183,0.016l0.013,-0.146l0.366,0.033l0.013,-0.147l0.183,0.017l0.013,-0.147l0.274,0.025Z" style="fill:#ed702d;"/><path d="M540.314,270.294l0.263,0.016l0.087,0.005l-0.009,0.147l-0.087,-0.006l-0.009,0.147l-0.088,-0.005l-0.009,0.146l-0.35,-0.021l-0.01,0.147l-0.087,-0.006l0.009,-0.147l-0.087,-0.005l-0.01,0.147l-0.262,-0.017l-0.01,0.147l-0.262,-0.016l-0.01,0.146l-0.175,-0.011l-0.009,0.147l-0.175,-0.011l0.009,-0.147l-0.088,-0.005l-0.009,0.147l0.263,0.016l0.088,0.006l-0.01,0.146l-0.263,-0.016l-0.009,0.147l-0.35,-0.022l-0.877,-0.056l-0.263,-0.017l-0.009,0.147l-0.263,-0.017l-0.009,0.147l-0.088,-0.006l-0.009,0.147l-0.176,-0.011l-0.009,0.146l-0.351,-0.022l-0.088,-0.006l-0.009,0.147l-0.175,-0.011l-0.176,-0.012l-0.087,-0.005l-0.01,0.146l-0.175,-0.011l0.009,-0.147l-0.019,0.294l-0.175,-0.012l0.009,-0.147l-0.263,-0.017l-0.087,-0.005l-0.01,0.146l0.01,-0.146l-0.176,-0.012l-0.009,0.147l-0.263,-0.017l-0.01,0.146l-0.088,-0.006l0.01,-0.146l-0.01,0.146l-0.351,-0.023l0.088,0.006l-0.088,-0.006l-0.019,0.294l-0.351,-0.024l-0.01,0.147l-0.175,-0.012l-0.01,0.147l-0.351,-0.023l0.01,-0.147l-0.263,-0.017l0.01,-0.147l-0.088,-0.006l0.01,-0.147l0.088,0.006l0.009,-0.146l0.088,0.005l0.01,-0.146l0.088,0.006l0.01,-0.147l0.087,0.006l0.01,-0.147l0.176,0.012l0.009,-0.147l0.088,0.006l0.01,-0.147l0.087,0.006l0.01,-0.146l0.176,0.011l0.009,-0.146l0.526,0.034l0.01,-0.146l0.263,0.017l0.262,0.017l0.01,-0.146l0.438,0.028l0.175,0.012l0.01,-0.147l0.526,0.034l0.175,0.011l0.009,-0.146l0.176,0.011l0.35,0.022l0.009,-0.146l0.351,0.022l0.087,0.006l0.01,-0.147l0.525,0.033l0.01,-0.146l0.262,0.016l0.175,0.011l0.01,-0.146l0.262,0.016l0.176,0.011l0.009,-0.146l0.35,0.021l0.009,-0.146l0.263,0.016l0.438,0.027l0.262,0.017Z" style="fill:#ed702d;"/><path d="M527.484,277.544l0.088,0.006l-0.01,0.147l0.088,0.006l-0.011,0.147l0.088,0.006l-0.01,0.147l0.088,0.006l-0.011,0.147l-0.088,-0.007l-0.01,0.147l0.088,0.006l-0.011,0.147l0.088,0.006l0.011,-0.147l0.088,0.007l-0.01,0.146l0.088,0.006l-0.011,0.147l0.088,0.006l-0.01,0.147l0.088,0.006l-0.01,0.147l0.088,0.006l-0.011,0.147l-0.01,0.146l-0.088,-0.006l-0.011,0.147l-0.088,-0.007l-0.021,0.294l-0.01,0.146l-0.021,0.293l-0.01,0.147l-0.021,0.293l-0.011,0.147l-0.01,0.147l-0.176,-0.013l-0.011,0.147l-0.265,-0.019l-0.01,0.147l-0.088,-0.007l-0.021,0.294l-0.011,0.146l-0.088,-0.006l-0.01,0.147l-0.089,-0.007l-0.01,0.147l-0.089,-0.006l-0.01,0.146l-0.088,-0.006l-0.011,0.147l-0.265,-0.019l-0.01,0.146l-0.265,-0.019l-0.089,-0.006l-0.01,0.147l-0.177,-0.013l-0.01,0.147l-0.089,-0.007l-0.01,0.147l-0.089,-0.006l-0.01,0.146l-0.177,-0.012l-0.011,0.146l0.089,0.007l0.01,-0.147l0.089,0.006l-0.011,0.147l-0.177,-0.013l-0.01,0.147l-0.089,-0.007l0.011,-0.146l-0.265,-0.019l0.01,-0.147l-0.353,-0.025l-0.011,0.146l0.265,0.019l-0.01,0.147l0.088,0.006l-0.088,-0.006l0.088,0.006l-0.011,0.147l-0.176,-0.013l-0.177,-0.013l-0.089,-0.006l-0.01,0.147l-0.177,-0.013l-0.011,0.146l-0.353,-0.025l0.043,-0.587l-0.089,-0.006l0.011,-0.147l0.022,-0.293l0.01,-0.147l0.044,-0.586l0.088,0.006l0.011,-0.146l0.021,-0.293l0.088,0.006l0.011,-0.147l0.011,-0.146l0.088,0.006l0.011,-0.146l0.088,0.006l0.022,-0.293l0.088,0.006l0.011,-0.146l0.088,0.006l0.011,-0.146l0.088,0.006l0.011,-0.147l0.088,0.007l0.01,-0.147l0.089,0.007l0.01,-0.147l0.088,0.006l0.011,-0.146l0.088,0.006l0.011,-0.147l0.088,0.007l0.011,-0.147l0.088,0.007l0.011,-0.147l0.088,0.006l0.01,-0.146l0.177,0.012l0.01,-0.146l0.088,0.006l0.011,-0.146l0.088,0.006l0.011,-0.147l0.088,0.007l0.011,-0.147l0.088,0.006l0.01,-0.146l0.088,0.006l0.011,-0.147l0.088,0.007l0.011,-0.147l0.088,0.006l0.01,-0.146l0.176,0.012l0.011,-0.146l0.088,0.006l0.01,-0.147l0.176,0.013l0.011,-0.147l0.264,0.019Z" style="fill:#ed702d;"/><path d="M531.619,274.001l0.352,0.024l0.087,0.006l-0.01,0.146l0.088,0.006l-0.01,0.147l-0.263,-0.018l-0.352,-0.024l-0.01,0.147l-0.175,-0.012l-0.01,0.146l-0.176,-0.012l-0.01,0.147l-0.264,-0.018l-0.01,0.147l-0.263,-0.019l-0.011,0.147l-0.263,-0.018l-0.01,0.147l-0.176,-0.013l-0.088,-0.006l-0.02,0.294l0.263,0.018l-0.088,-0.006l-0.01,0.146l-0.088,-0.006l-0.01,0.147l-0.176,-0.012l-0.01,0.146l-0.176,-0.012l-0.01,0.147l-0.352,-0.025l-0.01,0.147l-0.176,-0.012l-0.01,0.146l-0.176,-0.012l-0.01,0.147l-0.088,-0.006l-0.011,0.146l-0.176,-0.012l-0.01,0.147l-0.528,-0.038l-0.352,-0.024l-0.01,0.146l-0.176,-0.012l-0.011,0.146l-0.175,-0.012l0.01,-0.147l-0.088,-0.006l0.011,-0.147l0.01,-0.146l0.011,-0.147l0.263,0.019l0.011,-0.147l0.264,0.019l0.01,-0.147l0.176,0.013l0.01,-0.147l0.176,0.013l0.011,-0.147l0.088,0.006l0.175,0.012l0.011,-0.146l0.176,0.012l0.01,-0.146l0.176,0.012l0.01,-0.147l0.176,0.013l0.01,-0.147l0.176,0.012l0.01,-0.146l0.088,0.006l0.01,-0.147l0.264,0.018l0.01,-0.146l0.176,0.012l0.01,-0.147l0.176,0.012l0.01,-0.146l0.264,0.018l0.01,-0.147l0.263,0.019l0.01,-0.147l0.264,0.018l0.01,-0.147l0.263,0.018l0.088,0.006l0.01,-0.146l0.351,0.024Z" style="fill:#ed702d;"/><path d="M542.985,269.719l0.263,0.016l-0.009,0.147l0.262,0.015l-0.008,0.147l0.35,0.021l0.437,0.026l0.526,0.03l0.35,0.021l0.262,0.015l0.088,0.005l0.008,-0.147l0.176,0.01l0.437,0.026l0.263,0.015l0.35,0.02l0.263,0.014l0.008,-0.146l0.087,0.005l0.351,0.019l0.262,0.015l0.263,0.015l0.262,0.015l-0.008,0.146l0.263,0.015l-0.009,0.147l-0.525,-0.03l-0.008,0.147l-0.613,-0.034l-0.35,-0.02l-0.009,0.147l-0.525,-0.03l-0.009,0.147l-0.35,-0.021l-0.175,-0.01l-0.008,0.147l-0.438,-0.025l-0.088,-0.005l-0.009,0.147l-0.262,-0.016l-0.088,-0.005l0.009,-0.146l-0.088,-0.006l-0.009,0.147l-0.175,-0.01l-0.008,0.147l-0.088,-0.005l0.009,-0.147l0.087,0.005l-0.087,-0.005l0.087,0.005l-0.087,-0.005l0.008,-0.147l-0.262,-0.015l-0.351,-0.021l-0.262,-0.015l-0.088,-0.005l-0.009,0.146l-0.087,-0.005l-0.009,0.147l-0.263,-0.016l-0.009,0.147l-0.087,-0.005l0.009,-0.147l-0.088,-0.005l-0.009,0.147l-0.175,-0.011l-0.438,-0.026l-0.35,-0.021l0.009,-0.147l-0.263,-0.016l0.009,-0.146l-0.088,-0.006l0.009,-0.146l-0.087,-0.006l0.018,-0.293l0.087,0.005l0.009,-0.147l0.009,-0.146l0.175,0.01l0.009,-0.146l0.175,0.01l0.009,-0.147l0.35,0.022l0.009,-0.147l0.175,0.01l-0.009,0.147l0.009,-0.147l0.175,0.011l-0.009,0.146Z" style="fill:#ed702d;"/><path d="M555.475,269.229l-0.175,-0.009l-0.008,0.147l-0.262,-0.013l-0.088,-0.005l-0.007,0.147l-0.175,-0.009l-0.088,-0.004l-0.007,0.146l-0.35,-0.017l-0.088,-0.005l-0.007,0.147l-0.263,-0.014l-0.007,0.147l-0.175,-0.009l-0.008,0.147l-0.263,-0.014l-0.087,-0.004l-0.008,0.147l-0.35,-0.019l-0.35,-0.018l-0.263,-0.014l-0.008,0.147l-0.262,-0.014l-0.088,-0.004l0.008,-0.147l-0.263,-0.014l-0.008,0.147l-0.087,-0.005l0.087,0.005l-0.015,0.293l-0.175,-0.009l-0.008,0.147l-0.263,-0.014l-0.008,0.147l0.008,-0.147l-0.088,-0.005l0.008,-0.147l-0.087,-0.004l0.008,-0.147l0.087,0.005l0.016,-0.294l-0.087,-0.005l0.087,0.005l0.008,-0.147l0.008,-0.146l0.087,0.004l0.008,-0.147l0.088,0.005l0.008,-0.147l0.175,0.01l0.008,-0.147l0.175,0.009l0.008,-0.147l0.262,0.014l0.35,0.019l0.262,0.014l0.263,0.013l0.437,0.023l0.263,0.014l0.007,-0.147l0.175,0.009l-0.007,0.147l0.087,0.004l0.008,-0.147l0.262,0.014l0.438,0.022l0.262,0.014l0.262,0.013l0.263,0.013Z" style="fill:#ed702d;"/><path d="M557.56,267.861l0.174,0.008l-0.007,0.147l0.175,0.009l-0.088,-0.005l-0.007,0.147l0.175,0.009l-0.007,0.146l0.175,0.009l-0.007,0.147l0.087,0.004l-0.007,0.147l0.087,0.004l-0.262,-0.013l-0.087,-0.004l0.087,0.004l-0.087,-0.004l-0.008,0.147l-0.087,-0.004l-0.007,0.146l-0.175,-0.008l-0.175,-0.009l0.007,-0.146l0.007,-0.147l-0.087,-0.004l0.007,-0.147l0.088,0.004l0.007,-0.147l-0.175,-0.008l0.014,-0.294l0.175,0.009l0.008,-0.147Z" style="fill:#ed702d;"/><path d="M523.241,283.427l0.177,0.013l-0.011,0.146l0.266,0.02l0.088,0.006l0.011,-0.146l0.177,0.013l0.265,0.019l-0.011,0.147l-0.088,-0.007l-0.011,0.147l-0.265,-0.019l-0.011,0.146l-0.266,-0.019l-0.01,0.146l-0.089,-0.006l-0.265,-0.02l0.011,-0.146l-0.089,-0.007l0.011,-0.147l0.011,-0.146l0.089,0.006l0.01,-0.146Z" style="fill:#ed702d;"/><path d="M549.741,269.811l0.175,0.01l-0.008,0.147l0.262,0.014l-0.008,0.147l-0.087,-0.005l-0.008,0.147l-0.263,-0.015l-0.175,-0.009l-0.008,0.146l-0.351,-0.019l0.009,-0.147l-0.088,-0.004l0.008,-0.147l0.175,0.01l0.008,-0.147l0.176,0.009l0.008,-0.146l0.175,0.009Z" style="fill:#ed702d;"/><path d="M532.839,274.23l-0.01,0.147l0.175,0.012l0.176,0.012l-0.01,0.146l-0.176,-0.011l-0.01,0.146l-0.175,-0.012l-0.01,0.147l-0.176,-0.012l-0.01,0.147l-0.263,-0.018l0.01,-0.146l-0.088,-0.006l0.088,0.006l0.01,-0.147l0.009,-0.147l0.088,0.006l0.01,-0.146l0.176,0.011l0.01,-0.146l0.176,0.011Z" style="fill:#ed702d;"/><path d="M519.831,299.091l0.09,0.007l-0.011,0.147l0.089,0.006l0.011,-0.146l0.269,0.02l-0.011,0.147l0.178,0.013l-0.178,-0.013l0.011,-0.147l-0.179,-0.013l-0.011,0.146l-0.179,-0.013l-0.09,-0.007l0.011,-0.147Z" style="fill:#ed702d;"/><path d="M534.761,275.831l0.352,0.023l0.088,0.006l-0.176,-0.012l-0.01,0.147l-0.264,-0.017l0.01,-0.147l-0.088,-0.006l-0.01,0.147l0.088,0.006l-0.176,-0.012l0.01,-0.146l0.176,0.011Z" style="fill:#ed702d;"/><path d="M559.468,268.247l-0.007,0.147l0.175,0.008l0.262,0.012l-0.087,-0.004l-0.007,0.147l-0.262,-0.012l0.007,-0.147l-0.175,-0.009l0.007,-0.146l0.087,0.004Z" style="fill:#ed702d;"/><path d="M550.058,270.417l-0.016,0.294l-0.262,-0.015l0.008,-0.146l0.175,0.009l0.008,-0.146l0.087,0.004Z" style="fill:#ed702d;"/><path d="M559.615,268.842l0.175,0.008l-0.007,0.147l0.087,0.004l-0.087,-0.004l-0.007,0.147l-0.088,-0.004l0.007,-0.147l-0.087,-0.004l0.007,-0.147Z" style="fill:#ed702d;"/><path d="M520.636,299.152l-0.089,-0.007l0.011,-0.146l0.089,0.006l0.09,0.007l-0.09,-0.007l-0.011,0.147Z" style="fill:#ed702d;"/><path d="M520.97,299.015l0.145,0.011l0.003,-0.051l-0.145,-0.011l-0.003,0.051Z" style="fill:#ed702d;"/></svg>