<?xml version="1.0" encoding="UTF-8" standalone="no"?>
<!DOCTYPE svg PUBLIC "-//W3C//DTD SVG 1.1//EN" "http://www.w3.org/Graphics/SVG/1.1/DTD/svg11.dtd">
<svg width="100%" height="100%" viewBox="0 0 851 454" version="1.1" xmlns="http://www.w3.org/2000/svg" xmlns:xlink="http://www.w3.org/1999/xlink" xml:space="preserve" xmlns:serif="http://www.serif.com/" style="fill-rule:evenodd;clip-rule:evenodd;">
    <g id="rect994" transform="matrix(3.81277,0,0,1.71969,-42.3456,-20.4547)">
        <rect x="11.329" y="11.837" width="223.008" height="263.999" style="fill-opacity:0.5;"/>
    </g>
    <g id="g992" transform="matrix(2.2089,0,0,2.21,-114.48,-922.792)">
        <g opacity="0.7">
            <g id="g990">
                <g id="polygon936" transform="matrix(1,0,0,1,0,1.448e-05)">
                    <path d="M265.6,569.2L264,571.104L260.8,569.2L256,569.2L256,567.28L257.6,567.28L256,565.36L256,563.52L254.4,563.52L254.4,559.68L257.6,557.84L268.8,557.84L268.8,559.68L270.4,561.6L270.4,563.52L272,563.52L272,565.36L268.8,569.2L268.8,571.104L267.2,569.2L265.6,569.2Z" style="fill-rule:nonzero;stroke:rgb(255,204,170);stroke-width:0.27px;"/>
                </g>
                <g id="polygon938" transform="matrix(1,0,0,1,0,1.448e-05)">
                    <path d="M208,555.976L209.6,555.976L200,563.52L198.4,563.52L198.4,561.6L200,559.68L196.8,557.84L195.2,557.84L193.6,555.976L195.2,554.08L193.6,554.08L195.2,554.08L193.6,552.16L193.6,550.24L190.4,546.48L190.4,544.56L192,544.56L193.6,542.72L193.6,540.8L192,540.8L192,538.88L195.2,540.8L196.8,540.8L196.8,542.72L198.4,542.72L200,544.56L201.6,546.48L204.8,548.4L206.4,550.24L208,552.16L208,555.976Z" style="fill-rule:nonzero;stroke:rgb(255,204,170);stroke-width:0.27px;"/>
                </g>
                <g id="polygon940" transform="matrix(1,0,0,1,0,1.448e-05)">
                    <path d="M280,538.88L281.6,538.88L281.6,540.8L280,540.8L280,542.72L278.4,540.8L276.8,540.8L276.8,542.72L273.6,542.72L273.6,544.56L272,546.48L268.8,546.48L268.8,544.56L267.2,546.48L267.2,548.4L267.2,546.48L265.6,546.48L265.6,542.72L270.4,542.72L270.4,537.04L272,537.04L272,535.12L270.4,533.28L270.4,531.392L273.6,531.392L273.6,529.44L275.2,529.44L275.2,531.392L276.8,533.28L278.4,535.12L278.4,537.04L280,537.04L280,538.88Z" style="fill-rule:nonzero;stroke:rgb(255,204,170);stroke-width:0.27px;"/>
                </g>
                <g id="polygon944" transform="matrix(1,0,0,1,0,1.448e-05)">
                    <path d="M241.6,495.44L243.2,497.28L244.8,499.2L244.8,501.12L243.2,501.12L244.8,502.96L238.4,502.96L236.8,504.88L235.2,506.808L236.8,508.64L236.8,506.808L238.4,506.808L240,508.64L236.8,510.56L235.2,508.64L233.6,510.56L232,510.56L232,506.808L230.4,504.88L232,502.96L230.4,501.12L233.6,501.12L232,499.2L233.6,499.2L235.2,497.28L236.8,495.44L238.4,495.44L238.4,497.28L240,495.44L241.6,495.44Z" style="fill-rule:nonzero;stroke:rgb(255,204,170);stroke-width:0.27px;"/>
                </g>
                <g id="polygon946" transform="matrix(1,0,0,1,0,1.448e-05)">
                    <path d="M203.2,504.88L203.2,501.12L206.4,499.2L209.6,493.52L211.2,493.52L214.4,487.84L214.4,489.76L216,489.76L217.6,487.84L214.4,487.84L216,486L217.6,486L219.2,484.08L219.2,482.224L220.8,482.224L222.4,480.32L227.2,486L228.8,486L228.8,487.84L227.2,487.84L227.2,489.76L228.8,487.84L230.4,487.84L230.4,489.76L232,486L233.6,486L233.6,487.84L235.2,489.76L235.2,491.6L233.6,491.6L232,493.52L230.4,493.52L228.8,495.44L232,497.28L230.4,499.2L228.8,499.2L228.8,501.12L227.2,501.12L225.6,502.96L224,502.96L222.4,504.88L220.8,504.88L220.8,508.64L222.4,510.56L222.4,512.48L224,512.48L222.4,514.32L220.8,514.32L220.8,512.48L219.2,510.56L217.6,510.56L217.6,508.64L216,506.808L214.4,508.64L212.8,510.56L209.6,506.808L208,508.64L204.8,508.64L203.2,504.88Z" style="fill-rule:nonzero;stroke:rgb(255,204,170);stroke-width:0.27px;"/>
                </g>
                <g id="polygon948" transform="matrix(1,0,0,1,0,1.448e-05)">
                    <path d="M195.2,554.08L193.6,555.976L195.2,557.84L196.8,557.84L200,559.68L198.4,561.6L198.4,563.52L201.6,563.52L201.6,565.36L200,565.36L200,567.28L196.8,571.104L190.4,571.104L190.4,572.96L187.2,572.96L187.2,571.104L185.6,571.104L185.6,569.2L184,569.2L184,571.104L182.4,569.2L179.2,565.36L177.6,565.36L176,567.28L174.4,567.28L176,565.36L177.6,565.36L177.6,563.52L180.8,563.52L180.8,561.6L187.2,561.6L187.2,557.84L188.8,557.84L188.8,555.976L190.4,554.08L195.2,554.08Z" style="fill-rule:nonzero;stroke:rgb(255,204,170);stroke-width:0.27px;"/>
                </g>
                <g id="polygon950" transform="matrix(1,0,0,1,0,1.448e-05)">
                    <path d="M276.8,548.4L267.2,548.4L268.8,546.48L272,546.48L273.6,544.56L273.6,542.72L276.8,542.72L276.8,540.8L278.4,540.8L280,542.72L280,540.8L281.6,540.8L283.2,542.72L286.4,546.48L278.4,546.48L276.8,548.4Z" style="fill-rule:nonzero;stroke:rgb(255,204,170);stroke-width:0.27px;"/>
                </g>
                <g id="polygon952" transform="matrix(1,0,0,1,0,1.448e-05)">
                    <path d="M217.6,544.56L216,546.48L214.4,546.48L211.2,544.56L209.6,542.72L208,538.88L204.8,538.88L204.8,537.04L206.4,535.12L208,533.28L208,535.12L211.2,535.12L212.8,538.88L214.4,540.8L216,540.8L220.8,542.72L217.6,544.56Z" style="fill-rule:nonzero;stroke:rgb(255,204,170);stroke-width:0.27px;"/>
                </g>
                <g id="polygon954" transform="matrix(1,0,0,1,0,1.448e-05)">
                    <path d="M201.6,576.72L198.4,576.72L195.2,572.96L195.2,571.104L196.8,571.104L200,567.28L200,565.36L201.6,565.36L201.6,563.52L200,563.52L209.6,555.976L209.6,557.84L212.8,557.84L214.4,559.68L217.6,559.68L219.2,563.52L220.8,565.36L220.8,571.104L222.4,572.96L224,572.96L224,574.88L222.4,576.72L220.8,576.72L220.8,578.64L219.2,578.64L216,576.72L214.4,578.64L211.2,582.4L208,582.4L206.4,580.56L204.8,578.64L203.2,578.64L201.6,576.72Z" style="fill-rule:nonzero;stroke:rgb(255,204,170);stroke-width:0.27px;"/>
                </g>
                <g id="polygon956" transform="matrix(1,0,0,1,0,1.448e-05)">
                    <path d="M281.6,563.52L278.4,565.36L276.8,567.28L272,565.36L272,563.52L270.4,563.52L270.4,561.6L268.8,559.68L268.8,557.84L267.2,557.84L270.4,555.976L272,555.976L273.6,550.24L273.6,548.4L275.2,550.24L276.8,550.24L276.8,552.16L281.6,552.16L281.6,555.976L283.2,557.84L283.2,559.68L284.8,561.6L286.4,561.6L284.8,563.52L284.8,565.36L283.2,565.36L283.2,563.52L281.6,563.52Z" style="fill-rule:nonzero;stroke:rgb(255,204,170);stroke-width:0.27px;"/>
                </g>
                <g id="polygon958" transform="matrix(1,0,0,1,0,1.448e-05)">
                    <path d="M174.4,520L180.8,521.92L184,521.92L188.8,518.08L190.4,518.08L190.4,520L192,520L193.6,521.92L193.6,523.76L195.2,523.76L201.6,527.6L200,529.44L201.6,531.392L206.4,535.12L204.8,537.04L204.8,538.88L201.6,535.12L200,537.04L206.4,540.8L206.4,544.56L208,544.56L208,548.4L209.6,548.4L214.4,550.24L214.4,546.48L216,546.48L219.2,548.4L222.4,550.24L230.4,550.24L232,548.4L235.2,548.4L238.4,550.24L241.6,548.4L243.2,548.4L241.6,546.48L243.2,544.56L243.2,542.72L241.6,540.8L241.6,538.88L243.2,537.04L241.6,537.04L240,535.12L238.4,535.12L236.8,529.44L241.6,529.44L241.6,527.6L244.8,525.68L246.4,527.6L248,527.6L249.6,529.44L251.2,529.44L251.2,525.68L252.8,525.68L257.6,527.6L257.6,529.44L257.6,527.6L259.2,527.6L260.8,529.44L262.4,531.392L264,529.44L265.6,527.6L272,527.6L270.4,523.76L276.8,520L276.8,525.68L278.4,527.6L276.8,529.44L273.6,529.44L273.6,531.392L270.4,531.392L270.4,533.28L272,535.12L272,537.04L270.4,537.04L270.4,542.72L265.6,542.72L265.6,546.48L267.2,546.48L267.2,548.4L267.2,546.48L268.8,544.56L268.8,546.48L267.2,548.4L273.6,548.4L273.6,550.24L272,555.976L270.4,555.976L267.2,557.84L257.6,557.84L254.4,559.68L252.8,561.6L252.8,559.68L248,559.68L246.4,557.84L238.4,557.84L236.8,559.68L236.8,567.28L235.2,565.36L232,565.36L230.4,563.52L228.8,563.52L228.8,561.6L227.2,559.68L214.4,559.68L212.8,557.84L209.6,557.84L209.6,555.976L208,555.976L208,552.16L206.4,550.24L204.8,548.4L201.6,546.48L200,544.56L198.4,542.72L196.8,542.72L196.8,540.8L195.2,540.8L192,538.88L187.2,537.04L185.6,537.04L184,538.88L184,540.8L182.4,538.88L180.8,537.04L179.2,537.04L177.6,538.88L164.8,542.72L163.2,542.72L163.2,540.8L164.8,538.88L166.4,535.12L168,531.392L168,529.44L166.4,529.44L166.4,525.68L168,523.76L169.6,521.92L172.8,521.92L174.4,520Z" style="fill-rule:nonzero;stroke:rgb(255,204,170);stroke-width:0.27px;"/>
                </g>
                <g id="polygon960" transform="matrix(1,0,0,1,0,1.448e-05)">
                    <path d="M201.6,535.12L204.8,538.88L208,538.88L209.6,542.72L211.2,544.56L214.4,546.48L214.4,550.24L209.6,548.4L208,548.4L208,544.56L206.4,544.56L206.4,540.8L200,537.04L201.6,535.12Z" style="fill-rule:nonzero;stroke:rgb(255,204,170);stroke-width:0.27px;"/>
                </g>
                <g id="polygon962" transform="matrix(1,0,0,1,0,1.448e-05)">
                    <path d="M232,502.96L230.4,504.88L232,506.808L232,510.56L230.4,512.48L228.8,514.32L227.2,514.32L225.6,512.48L224,514.32L224,512.48L222.4,512.48L222.4,510.56L220.8,508.64L220.8,504.88L222.4,504.88L224,502.96L225.6,502.96L227.2,501.12L228.8,501.12L228.8,499.2L230.4,499.2L230.4,501.12L232,502.96Z" style="fill-rule:nonzero;stroke:rgb(255,204,170);stroke-width:0.27px;"/>
                </g>
                <g id="polygon964" transform="matrix(1,0,0,1,0,1.448e-05)">
                    <path d="M233.6,544.56L233.6,537.04L232,537.04L232,535.12L230.4,533.28L233.6,531.392L233.6,529.44L236.8,529.44L238.4,535.12L240,535.12L241.6,537.04L243.2,537.04L241.6,538.88L241.6,540.8L243.2,542.72L243.2,544.56L241.6,546.48L243.2,548.4L241.6,548.4L238.4,550.24L235.2,548.4L235.2,546.48L233.6,544.56Z" style="fill-rule:nonzero;stroke:rgb(255,204,170);stroke-width:0.27px;"/>
                </g>
                <g id="polygon966" transform="matrix(1,0,0,1,0,1.448e-05)">
                    <path d="M244.8,567.28L246.4,567.28L244.8,569.2L243.2,569.2L243.2,571.104L241.6,569.2L238.4,569.2L236.8,571.104L233.6,572.96L228.8,572.96L227.2,574.88L224,574.88L224,572.96L222.4,572.96L220.8,571.104L220.8,565.36L219.2,563.52L217.6,559.68L227.2,559.68L228.8,561.6L228.8,563.52L230.4,563.52L232,565.36L235.2,565.36L236.8,567.28L241.6,565.36L244.8,567.28Z" style="fill-rule:nonzero;stroke:rgb(255,204,170);stroke-width:0.27px;"/>
                </g>
                <g id="polygon968" transform="matrix(1,0,0,1,0,1.448e-05)">
                    <path d="M256,569.2L249.6,569.2L246.4,567.28L244.8,567.28L241.6,565.36L236.8,567.28L236.8,559.68L238.4,557.84L246.4,557.84L248,559.68L252.8,559.68L252.8,561.6L254.4,559.68L254.4,563.52L256,563.52L256,565.36L257.6,567.28L256,567.28L256,569.2Z" style="fill-rule:nonzero;stroke:rgb(255,204,170);stroke-width:0.27px;"/>
                </g>
                <g id="polygon970" transform="matrix(1,0,0,1,0,1.448e-05)">
                    <path d="M169.6,540.8L168,542.72L164.8,542.72L166.4,542.72L164.8,542.72L177.6,538.88L179.2,537.04L180.8,537.04L182.4,538.88L184,540.8L184,538.88L185.6,537.04L187.2,537.04L192,538.88L192,540.8L193.6,540.8L193.6,542.72L192,544.56L190.4,544.56L190.4,546.48L193.6,550.24L193.6,552.16L195.2,554.08L190.4,554.08L188.8,555.976L188.8,557.84L187.2,557.84L187.2,561.6L180.8,561.6L180.8,563.52L177.6,563.52L177.6,561.6L174.4,557.84L171.2,552.16L171.2,548.4L172.8,546.48L174.4,546.48L174.4,544.56L176,542.72L174.4,542.72L172.8,540.8L169.6,540.8Z" style="fill-rule:nonzero;stroke:rgb(255,204,170);stroke-width:0.27px;"/>
                </g>
                <g id="polygon972" transform="matrix(1,0,0,1,0,1.448e-05)">
                    <path d="M224,538.88L224,537.04L225.6,535.12L228.8,535.12L230.4,533.28L232,535.12L232,537.04L233.6,537.04L233.6,544.56L235.2,546.48L235.2,548.4L232,548.4L230.4,550.24L222.4,550.24L219.2,548.4L216,546.48L217.6,544.56L220.8,542.72L224,538.88Z" style="fill-rule:nonzero;stroke:rgb(255,204,170);stroke-width:0.27px;"/>
                </g>
                <g id="polygon974" transform="matrix(1,0,0,1,0,1.448e-05)">
                    <path d="M246.4,478.4L244.8,480.32L243.2,482.224L241.6,484.08L238.4,487.84L235.2,489.76L233.6,487.84L233.6,486L232,486L230.4,489.76L230.4,487.84L228.8,487.84L227.2,489.76L227.2,487.84L228.8,487.84L228.8,486L227.2,486L222.4,480.32L232,468.96L236.8,461.36L240,465.2L241.6,467.04L243.2,467.04L243.2,468.96L244.8,468.96L246.4,470.8L248,470.8L248,472.72L249.6,472.72L249.6,474.64L246.4,478.4Z" style="fill-rule:nonzero;stroke:rgb(255,204,170);stroke-width:0.27px;"/>
                </g>
                <g id="polygon976" transform="matrix(1,0,0,1,0,1.448e-05)">
                    <path d="M260.8,508.64L254.4,508.64L254.4,506.808L251.2,506.808L249.6,504.88L249.6,502.96L244.8,502.96L243.2,501.12L244.8,501.12L244.8,499.2L251.2,495.44L257.6,491.6L259.2,491.6L260.8,489.76L262.4,491.6L265.6,495.44L265.6,497.28L268.8,499.2L270.4,501.12L268.8,502.96L267.2,504.88L265.6,502.96L265.6,504.88L264,504.88L264,506.808L262.4,506.808L260.8,508.64Z" style="fill-rule:nonzero;stroke:rgb(255,204,170);stroke-width:0.27px;"/>
                </g>
                <g id="polygon978" transform="matrix(1,0,0,1,0,1.448e-05)">
                    <path d="M265.6,482.224L265.6,495.44L262.4,491.6L260.8,489.76L259.2,491.6L257.6,491.6L257.6,489.76L256,486L254.4,484.08L254.4,482.224L257.6,480.32L259.2,480.32L259.2,478.4L262.4,476.48L262.4,474.64L265.6,474.64L265.6,476.48L268.8,476.48L268.8,480.32L267.2,482.224L265.6,482.224Z" style="fill-rule:nonzero;stroke:rgb(255,204,170);stroke-width:0.27px;"/>
                </g>
                <g id="polygon980" transform="matrix(1,0,0,1,0,1.448e-05)">
                    <path d="M257.6,527.6L252.8,525.68L251.2,525.68L251.2,529.44L249.6,529.44L248,527.6L246.4,527.6L244.8,525.68L249.6,521.92L249.6,518.08L251.2,518.08L251.2,516.24L252.8,514.32L251.2,514.32L251.2,512.48L252.8,510.56L254.4,510.56L254.4,508.64L260.8,508.64L262.4,506.808L264,506.808L264,504.88L265.6,504.88L265.6,502.96L267.2,504.88L268.8,502.96L270.4,501.12L272,501.12L270.4,506.808L270.4,510.56L268.8,518.08L268.8,520L267.2,520L267.2,521.92L268.8,521.92L268.8,525.68L267.2,527.6L265.6,527.6L264,529.44L262.4,531.392L260.8,529.44L259.2,527.6L257.6,527.6L257.6,529.44L257.6,527.6Z" style="fill-rule:nonzero;stroke:rgb(255,204,170);stroke-width:0.27px;"/>
                </g>
                <g id="polygon982" transform="matrix(1,0,0,1,0,1.448e-05)">
                    <path d="M190.4,518.08L188.8,518.08L195.2,510.56L196.8,508.64L198.4,508.64L198.4,506.808L203.2,501.12L203.2,504.88L204.8,508.64L208,508.64L209.6,506.808L212.8,510.56L214.4,508.64L216,506.808L217.6,508.64L217.6,510.56L219.2,510.56L220.8,512.48L220.8,514.32L222.4,514.32L224,512.48L224,514.32L216,518.08L214.4,520L216,520L217.6,521.92L219.2,521.92L220.8,523.76L222.4,523.76L220.8,525.68L219.2,525.68L219.2,527.6L217.6,527.6L217.6,525.68L216,525.68L216,527.6L217.6,529.44L214.4,529.44L214.4,531.392L209.6,531.392L209.6,533.28L211.2,535.12L208,535.12L208,533.28L206.4,535.12L201.6,531.392L200,529.44L201.6,527.6L195.2,523.76L193.6,523.76L193.6,521.92L192,520L190.4,520L190.4,518.08Z" style="fill-rule:nonzero;stroke:rgb(255,204,170);stroke-width:0.27px;"/>
                </g>
                <g id="polygon984" transform="matrix(1,0,0,1,0,1.448e-05)">
                    <path d="M217.6,521.92L216,520L214.4,520L216,518.08L224,514.32L225.6,512.48L227.2,514.32L225.6,516.24L228.8,516.24L228.8,518.08L225.6,521.92L227.2,523.76L228.8,525.68L232,525.68L232,527.6L238.4,527.6L236.8,525.68L240,525.68L240,527.6L241.6,529.44L233.6,529.44L233.6,531.392L230.4,533.28L228.8,535.12L225.6,535.12L224,537.04L224,538.88L220.8,542.72L216,540.8L214.4,540.8L212.8,538.88L211.2,535.12L209.6,535.12L211.2,535.12L209.6,533.28L209.6,531.392L214.4,531.392L214.4,529.44L217.6,529.44L216,527.6L216,525.68L217.6,525.68L217.6,527.6L219.2,527.6L219.2,525.68L220.8,525.68L222.4,523.76L220.8,523.76L219.2,521.92L217.6,521.92Z" style="fill-rule:nonzero;stroke:rgb(255,204,170);stroke-width:0.27px;"/>
                </g>
                <g id="polygon986" transform="matrix(1,0,0,1,0,1.448e-05)">
                    <path d="M233.6,499.2L232,499.2L233.6,501.12L230.4,501.12L230.4,499.2L232,497.28L228.8,495.44L230.4,493.52L232,493.52L233.6,491.6L235.2,491.6L235.2,489.76L238.4,487.84L241.6,484.08L243.2,486L244.8,486L246.4,487.84L248,487.84L248,486L251.2,482.224L252.8,480.32L254.4,480.32L254.4,484.08L256,486L257.6,489.76L257.6,491.6L251.2,495.44L244.8,499.2L243.2,497.28L241.6,495.44L240,495.44L238.4,497.28L238.4,495.44L236.8,495.44L235.2,497.28L233.6,499.2Z" style="fill-rule:nonzero;stroke:rgb(255,204,170);stroke-width:0.27px;"/>
                </g>
                <path id="polygon988" d="M251.2,516.24L251.2,518.08L249.6,518.08L249.6,521.92L244.8,525.68L241.6,527.6L240,525.68L240,521.92L238.4,521.92L238.4,516.24L240,516.24L240,514.32L238.4,514.32L238.4,512.48L236.8,510.56L240,508.64L238.4,506.808L236.8,506.808L236.8,508.64L235.2,506.808L236.8,504.88L238.4,502.96L249.6,502.96L249.6,504.88L251.2,506.808L254.4,506.808L254.4,510.56L252.8,510.56L251.2,512.48L251.2,514.32L252.8,514.32L251.2,516.24Z" style="fill-rule:nonzero;stroke:rgb(255,204,170);stroke-width:0.27px;"/>
            </g>
            <g id="polygon826" transform="matrix(1,0,0,1,0,1.448e-05)">
                <path d="M286.4,561.6L286.4,559.68L283.2,559.68L283.2,557.84L281.6,555.976L284.8,555.976L289.6,557.84L292.8,557.84L294.4,555.976L296,555.976L294.4,559.68L292.8,559.68L292.8,567.28L291.2,567.28L289.6,565.36L288,565.36L286.4,561.6Z" style="fill-rule:nonzero;stroke:rgb(255,204,170);stroke-width:0.27px;"/>
            </g>
            <g id="polygon828" transform="matrix(1,0,0,1,0,1.448e-05)">
                <path d="M275.2,451.92L278.4,453.84L286.4,453.84L286.4,451.92L288,451.92L289.6,450L294.4,450L296,448.16L302.4,448.16L300.8,453.84L302.4,453.84L302.4,455.68L300.8,455.68L300.8,457.64L297.6,457.64L296,461.36L294.4,461.36L294.4,463.28L292.8,468.96L291.2,468.96L286.4,470.8L280,470.8L273.6,472.72L270.4,470.8L270.4,468.96L272,468.96L268.8,468.96L267.2,467.04L267.2,461.36L268.8,459.52L270.4,457.64L270.4,451.92L273.6,453.84L275.2,451.92Z" style="fill-rule:nonzero;stroke:rgb(255,204,170);stroke-width:0.27px;"/>
            </g>
            <g id="polygon830" transform="matrix(1,0,0,1,0,1.448e-05)">
                <path d="M297.6,476.48L300.8,472.72L302.4,470.8L304,470.8L307.2,478.4L308.8,480.32L307.2,480.32L307.2,484.08L304,486L304,487.84L302.4,487.84L300.8,489.76L286.4,489.76L284.8,486L283.2,484.08L283.2,480.32L281.6,478.4L283.2,478.4L283.2,476.48L281.6,476.48L281.6,470.8L286.4,470.8L291.2,468.96L292.8,468.96L297.6,470.8L297.6,476.48Z" style="fill-rule:nonzero;stroke:rgb(255,204,170);stroke-width:0.27px;"/>
            </g>
            <g id="polygon832" transform="matrix(1,0,0,1,0,1.448e-05)">
                <path d="M308.8,544.56L304,548.4L304,540.8L305.6,538.88L299.2,540.8L296,540.8L294.4,538.88L291.2,537.04L292.8,537.04L292.8,531.392L294.4,529.44L297.6,523.76L300.8,525.68L299.2,527.6L299.2,529.44L297.6,531.392L299.2,533.28L299.2,535.12L304,535.12L312,533.28L316.8,533.28L318.4,531.392L316.8,529.44L320,527.6L320,535.12L321.6,537.04L318.4,540.8L318.4,542.72L315.2,542.72L313.6,544.56L308.8,544.56Z" style="fill-rule:nonzero;stroke:rgb(255,204,170);stroke-width:0.27px;"/>
            </g>
            <g id="polygon834" transform="matrix(1,0,0,1,0,1.448e-05)">
                <path d="M321.6,499.2L304,499.2L302.4,497.28L300.8,499.2L300.8,495.44L299.2,495.44L299.2,491.6L297.6,489.76L300.8,489.76L302.4,487.84L304,487.84L305.6,486L307.2,486L308.8,484.08L308.8,486L312,484.08L313.6,482.224L320,486L320,497.28L321.6,497.28L321.6,499.2Z" style="fill-rule:nonzero;stroke:rgb(255,204,170);stroke-width:0.27px;"/>
            </g>
            <g id="polygon836" transform="matrix(1,0,0,1,0,1.448e-05)">
                <path d="M292.8,499.2L284.8,499.2L284.8,497.28L283.2,497.28L283.2,495.44L284.8,495.44L284.8,493.52L286.4,493.52L286.4,489.76L297.6,489.76L299.2,491.6L299.2,495.44L297.6,495.44L296,497.28L296,499.2L294.4,497.28L294.4,499.2L292.8,499.2L292.8,501.12L292.8,499.2Z" style="fill-rule:nonzero;stroke:rgb(255,204,170);stroke-width:0.27px;"/>
            </g>
            <g id="polygon838" transform="matrix(1,0,0,1,0,1.448e-05)">
                <path d="M177.6,582.4L179.2,580.56L180.8,576.72L182.4,576.72L185.6,578.64L187.2,580.56L185.6,582.4L185.6,586.16L184,588.08L187.2,588.08L187.2,591.84L188.8,591.84L187.2,593.76L187.2,597.52L188.8,601.36L187.2,603.2L188.8,605.144L187.2,605.144L185.6,606.96L179.2,606.96L177.6,605.144L172.8,605.144L172.8,603.2L171.2,599.44L171.2,595.688L168,595.688L168,591.84L169.6,591.84L169.6,590L168,590L168,586.16L172.8,584.32L177.6,584.32L177.6,582.4Z" style="fill-rule:nonzero;stroke:rgb(255,204,170);stroke-width:0.27px;"/>
            </g>
            <g id="polygon840" transform="matrix(1,0,0,1,0,1.448e-05)">
                <path d="M289.6,572.96L305.6,572.96L308.8,574.88L331.2,574.88L328,578.64L326.4,578.64L323.2,580.56L312,580.56L310.4,582.4L308.8,582.4L307.2,584.32L305.6,586.16L305.6,588.08L304,591.84L302.4,593.76L300.8,595.688L296,599.44L294.4,599.44L292.8,601.36L291.2,603.2L284.8,605.144L284.8,603.2L281.6,603.2L281.6,601.36L283.2,599.44L283.2,593.76L281.6,591.84L281.6,578.64L284.8,578.64L286.4,576.72L288,574.88L289.6,572.96Z" style="fill-rule:nonzero;stroke:rgb(255,204,170);stroke-width:0.27px;"/>
            </g>
            <g id="polygon842" transform="matrix(1,0,0,1,0,1.448e-05)">
                <path d="M156.8,584.32L156.8,586.16L155.2,584.32L153.6,584.32L150.4,586.16L145.6,586.16L147.2,586.16L148.8,584.32L150.4,584.32L150.4,580.56L152,580.56L153.6,582.4L156.8,584.32Z" style="fill-rule:nonzero;stroke:rgb(255,204,170);stroke-width:0.27px;"/>
            </g>
            <g id="polygon844" transform="matrix(1,0,0,1,0,1.448e-05)">
                <path d="M163.2,565.36L158.4,565.36L168,565.36L166.4,565.36L166.4,567.28L168,567.28L169.6,569.2L171.2,571.104L171.2,569.2L172.8,569.2L172.8,571.104L171.2,571.104L172.8,572.96L174.4,571.104L174.4,572.96L176,574.88L179.2,574.88L180.8,576.72L179.2,580.56L177.6,582.4L177.6,584.32L172.8,584.32L168,586.16L168,584.32L164.8,580.56L164.8,578.64L161.6,576.72L161.6,578.64L158.4,578.64L158.4,576.72L153.6,576.72L153.6,578.64L148.8,578.64L147.2,580.56L144,580.56L144,582.4L145.6,582.4L144,582.4L142.4,584.32L140.8,584.32L140.8,582.4L139.2,582.4L137.6,588.08L139.2,590L140.8,591.84L136,591.84L136,590L134.4,590L136,590L136,588.08L137.6,586.16L139.2,584.32L139.2,582.4L137.6,576.72L137.6,572.96L139.2,571.104L144,571.104L145.6,569.2L148.8,569.2L158.4,565.36L160,565.36L161.6,563.52L168,563.52L163.2,563.52L163.2,565.36Z" style="fill-rule:nonzero;stroke:rgb(255,204,170);stroke-width:0.27px;"/>
            </g>
            <g id="polygon846" transform="matrix(1,0,0,1,0,1.448e-05)">
                <path d="M353.6,572.96L344,572.96L340.8,571.104L339.2,571.104L337.6,569.2L337.6,567.28L342.4,567.28L340.8,561.6L345.6,561.6L348.8,563.52L348.8,565.36L352,565.36L352,567.28L358.4,567.28L356.8,572.96L356.8,574.88L353.6,572.96Z" style="fill-rule:nonzero;stroke:rgb(255,204,170);stroke-width:0.27px;"/>
            </g>
            <g id="polygon848" transform="matrix(1,0,0,1,0,1.448e-05)">
                <path d="M296,508.64L297.6,506.808L299.2,506.808L299.2,508.64L300.8,508.64L300.8,512.48L304,512.48L305.6,514.32L305.6,516.24L307.2,518.08L304,518.08L302.4,516.24L300.8,518.08L302.4,518.08L300.8,518.08L300.8,520L299.2,520L297.6,518.08L296,520L292.8,520L291.2,518.08L289.6,518.08L291.2,516.24L291.2,514.32L292.8,514.32L292.8,512.48L291.2,512.48L292.8,510.56L294.4,510.56L294.4,508.64L296,508.64Z" style="fill-rule:nonzero;stroke:rgb(255,204,170);stroke-width:0.27px;"/>
            </g>
            <g id="polygon850" transform="matrix(1,0,0,1,0,1.448e-05)">
                <path d="M331.2,574.88L316.8,574.88L316.8,572.96L315.2,572.96L315.2,565.36L316.8,565.36L321.6,561.6L323.2,569.2L323.2,571.104L324.8,571.104L326.4,569.2L326.4,571.104L328,571.104L329.6,569.2L336,569.2L337.6,567.28L337.6,569.2L339.2,571.104L336,572.96L334.4,572.96L331.2,574.88Z" style="fill-rule:nonzero;stroke:rgb(255,204,170);stroke-width:0.27px;"/>
            </g>
            <g id="polygon852" transform="matrix(1,0,0,1,0,1.448e-05)">
                <path d="M284.8,561.6L283.2,559.68L286.4,559.68L286.4,561.6L288,565.36L289.6,565.36L291.2,567.28L291.2,569.2L289.6,571.104L281.6,571.104L280,569.2L276.8,567.28L278.4,565.36L281.6,563.52L283.2,563.52L283.2,565.36L284.8,565.36L284.8,563.52L286.4,561.6L284.8,561.6Z" style="fill-rule:nonzero;stroke:rgb(255,204,170);stroke-width:0.27px;"/>
            </g>
            <g id="polygon854" transform="matrix(1,0,0,1,0,1.448e-05)">
                <path d="M281.6,423.6L281.6,425.44L280,427.36L278.4,429.2L278.4,431.12L276.8,433.056L276.8,434.88L275.2,434.88L273.6,436.8L272,436.8L272,434.88L270.4,433.056L268.8,431.12L268.8,429.2L270.4,429.2L272,425.44L273.6,423.6L275.2,421.68L276.8,423.6L281.6,423.6Z" style="fill-rule:nonzero;stroke:rgb(255,204,170);stroke-width:0.27px;"/>
            </g>
            <g id="polygon856" transform="matrix(1,0,0,1,0,1.448e-05)">
                <path d="M252.8,455.68L252.8,463.28L248,463.28L249.6,465.2L249.6,468.96L248,470.8L246.4,470.8L244.8,468.96L243.2,468.96L243.2,467.04L241.6,467.04L240,465.2L236.8,461.36L238.4,459.52L241.6,453.84L241.6,451.92L243.2,453.84L248,453.84L248,455.68L249.6,455.68L249.6,453.84L252.8,453.84L251.2,455.68L252.8,455.68Z" style="fill-rule:nonzero;stroke:rgb(255,204,170);stroke-width:0.27px;"/>
            </g>
            <g id="polygon858" transform="matrix(1,0,0,1,0,1.448e-05)">
                <path d="M368,555.976L368,557.84L363.2,557.84L363.2,559.68L361.6,559.68L364.8,561.6L363.2,561.6L363.2,563.52L360,561.6L356.8,561.6L356.8,555.976L364.8,552.16L363.2,550.24L363.2,548.4L364.8,546.48L363.2,546.48L364.8,544.56L368,540.8L369.6,540.8L369.6,542.72L371.2,537.04L371.2,535.12L377.6,538.88L380.8,538.88L380.8,540.8L379.2,542.72L377.6,544.56L377.6,546.48L374.4,550.24L374.4,554.08L369.6,554.08L368,555.976Z" style="fill-rule:nonzero;stroke:rgb(255,204,170);stroke-width:0.27px;"/>
            </g>
            <g id="polygon860" transform="matrix(1,0,0,1,0,1.448e-05)">
                <path d="M262.4,476.48L259.2,478.4L259.2,480.32L257.6,480.32L254.4,482.224L254.4,480.32L252.8,480.32L254.4,478.4L252.8,476.48L252.8,472.72L251.2,474.64L251.2,476.48L249.6,476.48L249.6,472.72L248,472.72L248,470.8L249.6,468.96L251.2,468.96L251.2,467.04L254.4,467.04L254.4,465.2L259.2,465.2L259.2,463.28L264,463.28L262.4,465.2L264,465.2L262.4,467.04L262.4,470.8L264,470.8L264,474.64L262.4,474.64L262.4,476.48Z" style="fill-rule:nonzero;stroke:rgb(255,204,170);stroke-width:0.27px;"/>
            </g>
            <g id="polygon862" transform="matrix(1,0,0,1,0,1.448e-05)">
                <path d="M268.8,476.48L265.6,476.48L265.6,474.64L264,474.64L264,470.8L262.4,470.8L262.4,467.04L264,465.2L262.4,465.2L264,463.28L265.6,465.2L267.2,465.2L267.2,467.04L268.8,468.96L272,468.96L270.4,468.96L270.4,470.8L273.6,472.72L273.6,476.48L272,478.4L270.4,478.4L268.8,476.48Z" style="fill-rule:nonzero;stroke:rgb(255,204,170);stroke-width:0.27px;"/>
            </g>
            <g id="polygon864" transform="matrix(1,0,0,1,0,1.448e-05)">
                <path d="M272,444.4L272,448.16L270.4,448.16L268.8,450L270.4,451.92L267.2,450L267.2,448.16L264,448.16L265.6,448.16L265.6,446.24L264,444.4L265.6,444.4L264,444.4L262.4,442.48L264,438.72L265.6,436.8L265.6,434.88L267.2,434.88L268.8,431.12L270.4,433.056L272,434.88L272,436.8L273.6,436.8L273.6,442.48L272,444.4Z" style="fill-rule:nonzero;stroke:rgb(255,204,170);stroke-width:0.27px;"/>
            </g>
            <g id="polygon866" transform="matrix(1,0,0,1,0,1.448e-05)">
                <path d="M187.2,591.84L187.2,588.08L184,588.08L185.6,586.16L185.6,582.4L187.2,580.56L192,582.4L193.6,584.32L195.2,584.32L196.8,586.16L200,586.16L201.6,588.08L204.8,591.84L209.6,595.688L211.2,595.688L211.2,597.52L212.8,599.44L212.8,601.36L211.2,603.2L211.2,601.36L209.6,603.2L196.8,603.2L198.4,603.2L196.8,605.144L196.8,608.88L198.4,610.8L196.8,612.64L195.2,612.64L193.6,614.56L195.2,612.64L193.6,610.8L192,608.88L188.8,608.88L187.2,606.96L185.6,606.96L187.2,605.144L188.8,605.144L187.2,603.2L188.8,601.36L187.2,597.52L187.2,593.76L188.8,591.84L187.2,591.84Z" style="fill-rule:nonzero;stroke:rgb(255,204,170);stroke-width:0.27px;"/>
            </g>
            <g id="polygon868" transform="matrix(1,0,0,1,0,1.448e-05)">
                <path d="M292.8,520L294.4,520L292.8,521.92L291.2,523.76L291.2,525.68L288,525.68L286.4,527.6L286.4,525.68L288,525.68L281.6,520L284.8,516.24L286.4,514.32L288,512.48L291.2,512.48L289.6,514.32L291.2,516.24L289.6,518.08L291.2,518.08L292.8,520Z" style="fill-rule:nonzero;stroke:rgb(255,204,170);stroke-width:0.27px;"/>
            </g>
            <g id="polygon870" transform="matrix(1,0,0,1,0,1.448e-05)">
                <path d="M280,538.88L280,537.04L278.4,537.04L278.4,535.12L276.8,533.28L275.2,531.392L275.2,529.44L276.8,529.44L278.4,527.6L276.8,525.68L276.8,521.92L281.6,520L288,525.68L286.4,525.68L286.4,527.6L283.2,527.6L283.2,529.44L286.4,531.392L286.4,533.28L284.8,533.28L284.8,537.04L283.2,538.88L280,538.88Z" style="fill-rule:nonzero;stroke:rgb(255,204,170);stroke-width:0.27px;"/>
            </g>
            <g id="polygon872" transform="matrix(1,0,0,1,0,1.448e-05)">
                <path d="M294.4,463.28L294.4,461.36L296,461.36L297.6,457.64L300.8,457.64L300.8,455.68L302.4,455.68L304,457.64L305.6,453.84L308.8,453.84L310.4,451.92L312,451.92L312,450L315.2,450L315.2,451.92L316.8,453.84L316.8,457.64L318.4,457.64L318.4,459.52L320,459.52L320,461.36L321.6,461.36L323.2,463.28L323.2,465.2L326.4,465.2L328,467.04L332.8,470.8L329.6,472.72L329.6,478.4L326.4,478.4L323.2,476.48L318.4,476.48L316.8,478.4L316.8,480.32L315.2,482.224L313.6,482.224L312,484.08L308.8,486L308.8,484.08L307.2,486L305.6,486L304,487.84L304,486L307.2,484.08L307.2,480.32L308.8,480.32L307.2,478.4L304,470.8L302.4,470.8L300.8,472.72L297.6,476.48L297.6,470.8L292.8,468.96L294.4,463.28Z" style="fill-rule:nonzero;stroke:rgb(255,204,170);stroke-width:0.27px;"/>
            </g>
            <g id="polygon874" transform="matrix(1,0,0,1,0,1.448e-05)">
                <path d="M281.6,552.16L292.8,552.16L296,550.24L300.8,550.24L304,555.976L294.4,555.976L292.8,557.84L289.6,557.84L284.8,555.976L281.6,555.976L281.6,552.16Z" style="fill-rule:nonzero;stroke:rgb(255,204,170);stroke-width:0.27px;"/>
            </g>
            <g id="polygon876" transform="matrix(1,0,0,1,0,1.448e-05)">
                <path d="M241.6,451.92L246.4,444.4L248,442.48L249.6,438.72L259.2,419.76L268.8,423.6L265.6,427.36L264,429.2L260.8,433.056L259.2,434.88L257.6,434.88L254.4,438.72L252.8,440.56L251.2,440.56L252.8,442.48L251.2,444.4L252.8,446.24L254.4,446.24L256,448.16L254.4,450L254.4,451.92L252.8,453.84L249.6,453.84L249.6,455.68L248,455.68L248,453.84L243.2,453.84L241.6,451.92Z" style="fill-rule:nonzero;stroke:rgb(255,204,170);stroke-width:0.27px;"/>
            </g>
            <g id="polygon878" transform="matrix(1,0,0,1,0,1.448e-05)">
                <path d="M256,448.16L254.4,446.24L252.8,446.24L251.2,444.4L252.8,442.48L251.2,440.56L252.8,440.56L254.4,438.72L257.6,434.88L259.2,434.88L260.8,433.056L264,429.2L265.6,427.36L268.8,423.6L272,425.44L270.4,429.2L268.8,429.2L268.8,431.12L267.2,434.88L265.6,434.88L265.6,436.8L264,438.72L262.4,442.48L259.2,444.4L259.2,446.24L257.6,446.24L256,448.16Z" style="fill-rule:nonzero;stroke:rgb(255,204,170);stroke-width:0.27px;"/>
            </g>
            <g id="polygon880" transform="matrix(1,0,0,1,0,1.448e-05)">
                <path d="M248,463.28L252.8,463.28L252.8,457.64L257.6,457.64L259.2,459.52L257.6,459.52L257.6,463.28L259.2,463.28L259.2,465.2L254.4,465.2L254.4,467.04L251.2,467.04L251.2,468.96L249.6,468.96L249.6,465.2L248,463.28Z" style="fill-rule:nonzero;stroke:rgb(255,204,170);stroke-width:0.27px;"/>
            </g>
            <g id="polygon882" transform="matrix(1,0,0,1,0,1.448e-05)">
                <path d="M195.2,612.64L196.8,612.64L198.4,610.8L196.8,608.88L196.8,605.144L198.4,603.2L196.8,603.2L209.6,603.2L211.2,601.36L211.2,603.2L212.8,601.36L212.8,599.44L212.8,601.36L216,603.2L220.8,603.2L224,606.96L225.6,608.88L236.8,608.88L238.4,606.96L238.4,608.88L240,608.88L240,610.8L230.4,610.8L232,610.8L232,608.88L228.8,608.88L230.4,608.88L230.4,610.8L232,612.64L233.6,612.64L233.6,614.56L232,616.48L230.4,618.32L227.2,620.272L224,622.16L208,622.16L208,620.272L206.4,618.32L204.8,618.32L204.8,616.48L201.6,616.48L200,614.56L195.2,614.56L195.2,612.64Z" style="fill-rule:nonzero;stroke:rgb(255,204,170);stroke-width:0.27px;"/>
            </g>
            <g id="polygon884" transform="matrix(1,0,0,1,0,1.448e-05)">
                <path d="M238.4,584.32L238.4,582.4L235.2,582.4L238.4,574.88L236.8,574.88L236.8,571.104L238.4,569.2L241.6,569.2L243.2,571.104L243.2,569.2L244.8,569.2L246.4,567.28L249.6,569.2L249.6,576.72L244.8,576.72L244.8,582.4L243.2,584.32L244.8,584.32L241.6,586.16L240,584.32L238.4,584.32Z" style="fill-rule:nonzero;stroke:rgb(255,204,170);stroke-width:0.27px;"/>
            </g>
            <g id="polygon886" transform="matrix(1,0,0,1,0,1.448e-05)">
                <path d="M252.8,586.16L252.8,584.32L251.2,582.4L246.4,584.32L243.2,584.32L244.8,582.4L244.8,576.72L249.6,576.72L249.6,569.2L260.8,569.2L264,571.104L265.6,569.2L267.2,569.2L268.8,571.104L268.8,572.96L270.4,572.96L270.4,576.72L273.6,576.72L276.8,578.64L281.6,578.64L281.6,591.84L283.2,593.76L283.2,599.44L281.6,601.36L278.4,599.44L278.4,597.52L276.8,597.52L275.2,595.688L275.2,593.76L278.4,593.76L280,591.84L275.2,591.84L272,590L272,588.08L267.2,588.08L265.6,586.16L264,586.16L262.4,584.32L259.2,584.32L257.6,586.16L252.8,586.16Z" style="fill-rule:nonzero;stroke:rgb(255,204,170);stroke-width:0.27px;"/>
            </g>
            <g id="polygon888" transform="matrix(1,0,0,1,0,1.448e-05)">
                <path d="M227.2,597.52L230.4,597.52L230.4,599.44L232,599.44L230.4,599.44L228.8,601.36L222.4,601.36L220.8,599.44L219.2,599.44L219.2,597.52L217.6,597.52L214.4,595.688L212.8,595.688L212.8,593.76L214.4,591.84L216,593.76L220.8,593.76L224,595.688L227.2,597.52Z" style="fill-rule:nonzero;stroke:rgb(255,204,170);stroke-width:0.27px;"/>
            </g>
            <g id="polygon890" transform="matrix(1,0,0,1,0,1.448e-05)">
                <path d="M236.8,574.88L238.4,574.88L235.2,582.4L238.4,582.4L238.4,584.32L240,584.32L241.6,586.16L240,590L238.4,597.52L236.8,597.52L236.8,599.44L233.6,597.52L232,597.52L230.4,595.688L224,593.76L220.8,591.84L217.6,591.84L216,590L211.2,590L209.6,588.08L208,584.32L211.2,584.32L211.2,582.4L214.4,578.64L216,576.72L219.2,578.64L220.8,578.64L220.8,576.72L222.4,576.72L224,574.88L227.2,574.88L228.8,572.96L233.6,572.96L236.8,571.104L236.8,574.88Z" style="fill-rule:nonzero;stroke:rgb(255,204,170);stroke-width:0.27px;"/>
            </g>
            <g id="polygon892" transform="matrix(1,0,0,1,0,1.448e-05)">
                <path d="M302.4,572.96L289.6,572.96L289.6,571.104L291.2,569.2L291.2,567.28L292.8,567.28L292.8,565.36L294.4,565.36L296,567.28L299.2,567.28L302.4,565.36L304,567.28L302.4,571.104L302.4,572.96Z" style="fill-rule:nonzero;stroke:rgb(255,204,170);stroke-width:0.27px;"/>
            </g>
            <g id="polygon894" transform="matrix(1,0,0,1,0,1.448e-05)">
                <path d="M329.6,499.2L328,501.12L324.8,501.12L321.6,504.88L320,504.88L318.4,508.64L316.8,508.64L316.8,512.48L315.2,512.48L312,514.32L310.4,514.32L308.8,516.24L305.6,514.32L304,512.48L300.8,512.48L300.8,508.64L299.2,508.64L299.2,506.808L294.4,506.808L292.8,504.88L292.8,502.96L291.2,502.96L289.6,501.12L289.6,499.2L292.8,499.2L292.8,501.12L292.8,499.2L294.4,499.2L294.4,497.28L296,499.2L296,497.28L297.6,495.44L300.8,495.44L300.8,499.2L302.4,497.28L304,499.2L329.6,499.2Z" style="fill-rule:nonzero;stroke:rgb(255,204,170);stroke-width:0.27px;"/>
            </g>
            <g id="polygon896" transform="matrix(1,0,0,1,0,1.448e-05)">
                <path d="M328,538.88L326.4,537.04L321.6,537.04L320,535.12L320,527.6L321.6,529.44L323.2,529.44L324.8,531.392L324.8,533.28L326.4,531.392L328,531.392L328,535.12L329.6,537.04L329.6,538.88L328,538.88Z" style="fill-rule:nonzero;stroke:rgb(255,204,170);stroke-width:0.27px;"/>
            </g>
            <g id="polygon898" transform="matrix(1,0,0,1,0,1.448e-05)">
                <path d="M305.6,572.96L302.4,572.96L302.4,571.104L304,567.28L307.2,565.36L307.2,567.28L308.8,567.28L312,565.36L315.2,565.36L315.2,572.96L316.8,572.96L316.8,574.88L308.8,574.88L305.6,572.96Z" style="fill-rule:nonzero;stroke:rgb(255,204,170);stroke-width:0.27px;"/>
            </g>
            <g id="polygon900" transform="matrix(1,0,0,1,0,1.448e-05)">
                <path d="M252.8,605.144L246.4,605.144L243.2,603.2L240,603.2L240,601.36L236.8,599.44L236.8,597.52L238.4,597.52L240,590L241.6,586.16L244.8,584.32L246.4,584.32L251.2,582.4L252.8,584.32L252.8,586.16L254.4,586.16L256,588.08L256,591.84L259.2,593.76L262.4,595.688L262.4,597.52L259.2,597.52L260.8,601.36L262.4,603.2L260.8,605.144L264,606.96L264,608.88L260.8,608.88L259.2,606.96L256,606.96L252.8,605.144Z" style="fill-rule:nonzero;stroke:rgb(255,204,170);stroke-width:0.27px;"/>
            </g>
            <g id="polygon902" transform="matrix(1,0,0,1,0,1.448e-05)">
                <path d="M264,586.16L265.6,586.16L267.2,588.08L272,588.08L272,590L275.2,591.84L280,591.84L278.4,593.76L275.2,593.76L275.2,595.688L276.8,597.52L278.4,597.52L278.4,599.44L281.6,601.36L281.6,603.2L280,603.2L278.4,605.144L275.2,605.144L275.2,606.96L270.4,606.96L268.8,608.88L264,608.88L264,606.96L260.8,605.144L262.4,603.2L260.8,601.36L259.2,597.52L262.4,597.52L262.4,595.688L259.2,593.76L256,591.84L256,588.08L254.4,586.16L257.6,586.16L259.2,584.32L262.4,584.32L264,586.16Z" style="fill-rule:nonzero;stroke:rgb(255,204,170);stroke-width:0.27px;"/>
            </g>
            <g id="polygon904" transform="matrix(1,0,0,1,0,1.448e-05)">
                <path d="M320,527.6L316.8,529.44L318.4,531.392L316.8,533.28L312,533.28L304,535.12L299.2,535.12L299.2,533.28L297.6,531.392L299.2,529.44L299.2,527.6L300.8,525.68L297.6,523.76L302.4,520L302.4,518.08L300.8,518.08L302.4,516.24L304,518.08L307.2,518.08L305.6,516.24L305.6,514.32L308.8,516.24L310.4,514.32L312,514.32L315.2,512.48L315.2,514.32L316.8,514.32L318.4,516.24L320,514.32L324.8,514.32L326.4,518.08L324.8,518.08L318.4,520L320,521.92L321.6,523.76L323.2,527.6L324.8,527.6L326.4,529.44L328,531.392L326.4,531.392L324.8,533.28L324.8,531.392L323.2,529.44L321.6,529.44L320,527.6Z" style="fill-rule:nonzero;stroke:rgb(255,204,170);stroke-width:0.27px;"/>
            </g>
            <g id="polygon906" transform="matrix(1,0,0,1,0,1.448e-05)">
                <path d="M241.6,484.08L243.2,482.224L244.8,480.32L246.4,478.4L249.6,474.64L249.6,476.48L251.2,476.48L251.2,474.64L252.8,472.72L252.8,476.48L254.4,478.4L252.8,480.32L251.2,482.224L248,486L248,487.84L246.4,487.84L244.8,486L243.2,486L241.6,484.08Z" style="fill-rule:nonzero;stroke:rgb(255,204,170);stroke-width:0.27px;"/>
            </g>
            <g id="polygon908" transform="matrix(1,0,0,1,0,1.448e-05)">
                <path d="M280,495.44L283.2,495.44L283.2,497.28L284.8,497.28L284.8,499.2L289.6,499.2L289.6,501.12L291.2,502.96L292.8,502.96L292.8,504.88L294.4,506.808L297.6,506.808L296,508.64L294.4,508.64L294.4,510.56L292.8,510.56L291.2,512.48L292.8,512.48L292.8,514.32L291.2,514.32L291.2,516.24L289.6,514.32L291.2,512.48L288,512.48L286.4,514.32L284.8,516.24L283.2,514.32L276.8,508.64L280,504.88L278.4,502.96L280,501.12L280,495.44Z" style="fill-rule:nonzero;stroke:rgb(255,204,170);stroke-width:0.27px;"/>
            </g>
            <g id="polygon910" transform="matrix(1,0,0,1,0,1.448e-05)">
                <path d="M281.6,571.104L289.6,571.104L289.6,572.96L291.2,572.96L289.6,572.96L288,574.88L286.4,576.72L284.8,578.64L276.8,578.64L273.6,576.72L270.4,576.72L270.4,572.96L268.8,572.96L268.8,569.2L272,565.36L276.8,567.28L280,569.2L281.6,571.104Z" style="fill-rule:nonzero;stroke:rgb(255,204,170);stroke-width:0.27px;"/>
            </g>
            <g id="polygon912" transform="matrix(1,0,0,1,0,1.448e-05)">
                <path d="M276.8,548.4L278.4,546.48L286.4,546.48L286.4,544.56L289.6,544.56L291.2,542.72L292.8,542.72L294.4,540.8L294.4,538.88L296,540.8L299.2,540.8L305.6,538.88L304,540.8L304,548.4L302.4,548.4L300.8,550.24L296,550.24L292.8,552.16L276.8,552.16L276.8,550.24L275.2,550.24L273.6,548.4L276.8,548.4Z" style="fill-rule:nonzero;stroke:rgb(255,204,170);stroke-width:0.27px;"/>
            </g>
            <g id="polygon914" transform="matrix(1,0,0,1,0,1.448e-05)">
                <path d="M292.8,542.72L291.2,542.72L289.6,544.56L286.4,544.56L286.4,546.48L283.2,542.72L281.6,540.8L281.6,538.88L283.2,538.88L284.8,537.04L284.8,533.28L286.4,533.28L286.4,531.392L283.2,529.44L283.2,527.6L286.4,527.6L288,525.68L291.2,525.68L291.2,523.76L292.8,521.92L294.4,520L296,520L297.6,518.08L299.2,520L300.8,520L300.8,518.08L302.4,518.08L302.4,520L297.6,523.76L294.4,529.44L292.8,531.392L292.8,537.04L291.2,537.04L294.4,538.88L294.4,540.8L292.8,542.72Z" style="fill-rule:nonzero;stroke:rgb(255,204,170);stroke-width:0.27px;"/>
            </g>
            <g id="polygon916" transform="matrix(1,0,0,1,0,1.448e-05)">
                <path d="M356.8,555.976L356.8,561.6L355.2,561.6L353.6,563.52L352,561.6L352,565.36L348.8,565.36L348.8,563.52L345.6,561.6L340.8,561.6L342.4,567.28L337.6,567.28L336,569.2L329.6,569.2L328,571.104L326.4,571.104L326.4,569.2L324.8,571.104L323.2,571.104L323.2,569.2L321.6,561.6L324.8,559.68L328,557.84L329.6,555.976L332.8,555.976L332.8,554.08L336,554.08L339.2,550.24L337.6,544.56L339.2,542.72L340.8,540.8L342.4,540.8L342.4,538.88L342.4,540.8L344,544.56L347.2,548.4L347.2,550.24L350.4,550.24L352,548.4L352,557.84L356.8,555.976Z" style="fill-rule:nonzero;stroke:rgb(255,204,170);stroke-width:0.27px;"/>
            </g>
            <g id="polygon918" transform="matrix(1,0,0,1,0,1.448e-05)">
                <path d="M304,567.28L302.4,565.36L299.2,567.28L296,567.28L294.4,565.36L292.8,565.36L292.8,559.68L294.4,559.68L296,555.976L305.6,555.976L308.8,554.08L310.4,552.16L312,552.16L313.6,550.24L318.4,548.4L320,546.48L323.2,548.4L324.8,550.24L331.2,550.24L331.2,548.4L329.6,546.48L334.4,546.48L336,542.72L337.6,544.56L339.2,550.24L336,554.08L332.8,554.08L332.8,555.976L329.6,555.976L328,557.84L324.8,559.68L321.6,561.6L316.8,565.36L312,565.36L308.8,567.28L307.2,567.28L307.2,565.36L304,567.28Z" style="fill-rule:nonzero;stroke:rgb(255,204,170);stroke-width:0.27px;"/>
            </g>
            <g id="polygon920" transform="matrix(1,0,0,1,0,1.448e-05)">
                <path d="M321.6,537.04L326.4,537.04L328,538.88L331.2,538.88L332.8,537.04L337.6,537.04L337.6,535.12L339.2,535.12L340.8,540.8L339.2,542.72L337.6,544.56L336,542.72L334.4,546.48L329.6,546.48L331.2,548.4L331.2,550.24L324.8,550.24L323.2,548.4L320,546.48L318.4,548.4L313.6,550.24L312,552.16L310.4,552.16L308.8,554.08L305.6,555.976L304,555.976L300.8,550.24L302.4,548.4L304,548.4L308.8,544.56L313.6,544.56L315.2,542.72L318.4,542.72L318.4,540.8L321.6,537.04Z" style="fill-rule:nonzero;stroke:rgb(255,204,170);stroke-width:0.27px;"/>
            </g>
            <g id="polygon922" transform="matrix(1,0,0,1,0,1.448e-05)">
                <path d="M363.2,550.24L364.8,552.16L356.8,555.976L352,557.84L352,548.4L350.4,550.24L347.2,550.24L347.2,548.4L344,544.56L342.4,540.8L342.4,538.88L342.4,540.8L340.8,540.8L339.2,535.12L340.8,531.392L342.4,529.44L342.4,531.392L348.8,531.392L348.8,529.44L350.4,527.6L352,527.6L353.6,525.68L355.2,527.6L356.8,529.44L358.4,529.44L360,527.6L360,525.68L361.6,527.6L363.2,527.6L364.8,531.392L363.2,531.392L363.2,533.28L369.6,535.12L371.2,535.12L371.2,537.04L369.6,542.72L369.6,540.8L368,540.8L364.8,544.56L363.2,546.48L364.8,546.48L363.2,548.4L363.2,550.24Z" style="fill-rule:nonzero;stroke:rgb(255,204,170);stroke-width:0.27px;"/>
            </g>
            <g id="polygon924" transform="matrix(1,0,0,1,0,1.448e-05)">
                <path d="M252.8,457.64L252.8,455.68L251.2,455.68L252.8,453.84L254.4,451.92L254.4,450L256,448.16L257.6,446.24L259.2,446.24L259.2,444.4L262.4,442.48L264,444.4L265.6,444.4L264,444.4L265.6,446.24L265.6,448.16L264,448.16L267.2,448.16L267.2,450L270.4,451.92L270.4,457.64L268.8,459.52L267.2,461.36L267.2,465.2L265.6,465.2L264,463.28L257.6,463.28L257.6,459.52L259.2,459.52L257.6,457.64L252.8,457.64Z" style="fill-rule:nonzero;stroke:rgb(255,204,170);stroke-width:0.27px;"/>
            </g>
            <g id="polygon926" transform="matrix(1,0,0,1,0,1.448e-05)">
                <path d="M268.8,518.08L270.4,510.56L270.4,506.808L272,501.12L280,499.2L280,501.12L278.4,502.96L280,504.88L276.8,508.64L283.2,514.32L284.8,516.24L281.6,520L276.8,521.92L276.8,520L270.4,523.76L272,527.6L267.2,527.6L268.8,525.68L268.8,521.92L267.2,521.92L267.2,520L268.8,520L268.8,518.08Z" style="fill-rule:nonzero;stroke:rgb(255,204,170);stroke-width:0.27px;"/>
            </g>
            <path id="polygon928" d="M265.6,497.28L265.6,482.224L267.2,482.224L268.8,480.32L268.8,476.48L270.4,478.4L272,478.4L273.6,476.48L273.6,472.72L280,470.8L281.6,470.8L281.6,476.48L283.2,476.48L283.2,478.4L281.6,478.4L283.2,480.32L283.2,484.08L284.8,486L286.4,489.76L286.4,493.52L284.8,493.52L284.8,495.44L280,495.44L280,499.2L272,501.12L270.4,501.12L268.8,499.2L265.6,497.28Z" style="fill-rule:nonzero;stroke:rgb(255,204,170);stroke-width:0.27px;"/>
            <g id="g6">
                <path id="polygon4" d="M395.2,391.44L392,393.28L395.2,393.28L395.2,391.44L396.8,391.44L401.6,387.6L404.8,391.44L414.4,397.12L417.6,398.96L416,400.88L414.4,400.88L409.6,404.64L424,425.44L414.4,425.44L411.2,427.36L408,425.44L403.2,421.68L398.4,419.76L392,419.76L392,417.92L387.2,417.92L382.4,419.76L380.8,419.76L379.2,421.68L379.2,419.76L380.8,419.76L377.6,417.92L377.6,408.472L376,406.56L376,404.64L377.6,402.72L382.4,400.88L382.4,398.96L392,393.28L395.2,391.44Z" style="fill-rule:nonzero;stroke:rgb(255,204,170);stroke-width:0.27px;"/>
            </g>
            <g id="g14">
                <path id="polygon12" d="M454.4,412.24L452.8,414.08L454.4,417.92L456,417.92L456,419.76L454.4,419.76L456,421.68L454.4,425.44L454.4,427.36L452.8,431.12L451.2,436.8L444.8,438.72L443.2,438.72L441.6,440.56L440,440.56L433.6,442.48L427.2,442.48L424,440.56L411.2,427.36L414.4,425.44L424,425.44L409.6,404.64L414.4,400.88L416,400.88L417.6,398.96L424,395.2L427.2,393.28L432,389.52L432,387.6L435.2,385.76L436.8,387.6L440,391.44L444.8,397.12L451.2,402.72L452.8,402.72L456,398.96L460.8,395.2L468.8,395.2L467.2,402.72L467.2,410.32L465.6,408.472L462.4,410.32L460.8,410.32L457.6,408.472L454.4,412.24Z" style="fill-rule:nonzero;stroke:rgb(255,204,170);stroke-width:0.27px;"/>
            </g>
            <g id="g20">
                <path id="polygon18" d="M433.6,525.68L433.6,523.76L435.2,523.76L436.8,525.68L446.4,525.68L448,527.6L449.6,527.6L451.2,529.44L454.4,529.44L454.4,531.392L456,533.28L457.6,533.28L462.4,535.12L460.8,537.04L452.8,537.04L454.4,538.88L456,538.88L456,544.56L448,544.56L446.4,542.72L444.8,544.56L443.2,544.56L444.8,542.72L443.2,542.72L441.6,544.56L440,542.72L436.8,542.72L436.8,544.56L432,544.56L432,546.48L430.4,546.48L428.8,548.4L427.2,550.24L425.6,552.16L424,552.16L419.2,555.976L417.6,557.84L416,557.84L416,555.976L411.2,555.976L412.8,554.08L412.8,552.16L409.6,552.16L408,550.24L408,548.4L403.2,544.56L406.4,542.72L406.4,540.8L403.2,540.8L400,538.88L398.4,537.04L401.6,535.12L400,533.28L403.2,529.44L406.4,531.392L408,531.392L411.2,533.28L414.4,533.28L416,531.392L417.6,529.44L425.6,529.44L427.2,527.6L430.4,527.6L432,525.68L433.6,525.68Z" style="fill-rule:nonzero;stroke:rgb(255,204,170);stroke-width:0.27px;"/>
            </g>
            <g id="g26">
                <path id="polygon24" d="M392,544.56L392,542.72L387.2,542.72L385.6,544.56L382.4,544.56L384,542.72L382.4,540.8L380.8,540.8L379.2,542.72L380.8,540.8L380.8,538.88L382.4,535.12L385.6,531.392L385.6,529.44L388.8,531.392L393.6,531.392L395.2,529.44L395.2,527.6L396.8,525.68L398.4,525.68L400,529.44L403.2,529.44L400,533.28L401.6,535.12L398.4,537.04L400,538.88L398.4,542.72L396.8,542.72L392,544.56Z" style="fill-rule:nonzero;stroke:rgb(255,204,170);stroke-width:0.27px;"/>
            </g>
            <g id="g32">
                <path id="polygon30" d="M387.2,542.72L392,542.72L392,544.56L396.8,542.72L398.4,542.72L400,538.88L403.2,540.8L406.4,540.8L406.4,542.72L403.2,544.56L408,548.4L408,550.24L409.6,552.16L412.8,552.16L412.8,554.08L411.2,555.976L416,555.976L416,559.68L412.8,563.52L411.2,563.52L411.2,565.36L409.6,565.36L408,563.52L395.2,563.52L393.6,565.36L380.8,565.36L380.8,561.6L377.6,557.84L376,559.68L374.4,557.84L374.4,555.976L376,555.976L374.4,554.08L374.4,550.24L377.6,546.48L377.6,544.56L379.2,542.72L380.8,540.8L382.4,540.8L384,542.72L382.4,544.56L385.6,544.56L387.2,542.72Z" style="fill-rule:nonzero;stroke:rgb(255,204,170);stroke-width:0.27px;"/>
            </g>
            <g id="g38">
                <path id="polygon36" d="M385.6,590L396.8,590L396.8,588.08L396.8,590L398.4,590L401.6,588.08L403.2,588.08L403.2,582.4L404.8,582.4L406.4,580.56L406.4,578.64L404.8,576.72L406.4,574.88L404.8,574.88L406.4,572.96L411.2,572.96L411.2,574.88L412.8,574.88L414.4,576.72L416,578.64L420.8,578.64L422.4,576.72L424,572.96L425.6,571.104L427.2,569.2L428.8,569.2L428.8,571.104L430.4,572.96L428.8,572.96L427.2,574.88L425.6,576.72L424,578.64L422.4,584.32L420.8,584.32L420.8,590L419.2,591.84L419.2,593.76L412.8,597.52L409.6,599.44L400,599.44L398.4,601.36L398.4,599.44L395.2,597.52L387.2,597.52L387.2,593.76L385.6,593.76L385.6,590Z" style="fill-rule:nonzero;stroke:rgb(255,204,170);stroke-width:0.27px;"/>
            </g>
            <g id="g44">
                <path id="polygon42" d="M441.6,468.96L435.2,468.96L435.2,457.64L433.6,457.64L428.8,453.84L428.8,455.68L427.2,453.84L425.6,453.84L425.6,451.92L427.2,451.92L428.8,444.4L430.4,446.24L432,444.4L433.6,444.4L436.8,442.48L440,442.48L440,440.56L441.6,442.48L441.6,448.16L446.4,448.16L446.4,450L448,450L448,448.16L449.6,450L452.8,453.84L456,457.64L470.4,457.64L470.4,461.36L465.6,461.36L464,459.52L460.8,461.36L460.8,463.28L457.6,463.28L457.6,465.2L459.2,465.2L457.6,467.04L454.4,467.04L452.8,465.2L452.8,463.28L454.4,463.28L452.8,463.28L451.2,461.36L449.6,461.36L448,463.28L444.8,463.28L443.2,465.2L443.2,467.04L441.6,468.96Z" style="fill-rule:nonzero;stroke:rgb(255,204,170);stroke-width:0.27px;"/>
            </g>
            <g id="g50">
            </g>
            <g id="g56">
                <path id="polygon54" d="M440,544.56L438.4,546.48L440,546.48L440,548.4L438.4,548.4L438.4,552.16L440,552.16L440,554.08L435.2,554.08L433.6,555.976L433.6,557.84L432,559.68L430.4,565.36L428.8,563.52L427.2,563.52L424,561.6L419.2,563.52L414.4,563.52L414.4,561.6L416,559.68L416,557.84L417.6,557.84L419.2,555.976L424,552.16L425.6,552.16L427.2,550.24L428.8,548.4L430.4,546.48L432,546.48L432,544.56L436.8,544.56L436.8,542.72L436.8,544.56L440,544.56Z" style="fill-rule:nonzero;stroke:rgb(255,204,170);stroke-width:0.27px;"/>
            </g>
            <g id="g62">
                <path id="polygon60" d="M398.4,574.88L406.4,574.88L404.8,576.72L406.4,578.64L406.4,580.56L404.8,582.4L403.2,582.4L403.2,588.08L401.6,588.08L398.4,590L396.8,590L396.8,588.08L396.8,590L385.6,590L385.6,593.76L387.2,593.76L387.2,597.52L379.2,597.52L377.6,599.44L376,599.44L376,597.52L377.6,595.688L379.2,593.76L377.6,593.76L377.6,590L379.2,590L377.6,588.08L374.4,588.08L374.4,586.16L372.8,586.16L371.2,584.32L368,584.32L368,586.16L364.8,586.16L363.2,584.32L361.6,582.4L361.6,580.56L360,580.56L356.8,578.64L355.2,578.64L355.2,576.72L353.6,574.88L352,572.96L353.6,572.96L356.8,574.88L361.6,574.88L366.4,572.96L371.2,572.96L374.4,574.88L376,574.88L376,576.72L380.8,576.72L382.4,574.88L385.6,574.88L390.4,576.72L396.8,576.72L398.4,574.88Z" style="fill-rule:nonzero;stroke:rgb(255,204,170);stroke-width:0.27px;"/>
            </g>
            <g id="g68">
                <path id="polygon66" d="M422.4,576.72L420.8,578.64L416,578.64L414.4,576.72L412.8,574.88L411.2,574.88L411.2,572.96L406.4,572.96L404.8,574.88L398.4,574.88L396.8,576.72L390.4,576.72L385.6,574.88L382.4,574.88L382.4,572.96L380.8,571.104L380.8,565.36L393.6,565.36L395.2,563.52L408,563.52L409.6,565.36L411.2,565.36L411.2,563.52L412.8,563.52L414.4,561.6L414.4,563.52L419.2,563.52L424,561.6L427.2,563.52L428.8,563.52L430.4,565.36L427.2,569.2L425.6,571.104L424,572.96L422.4,576.72Z" style="fill-rule:nonzero;stroke:rgb(255,204,170);stroke-width:0.27px;"/>
            </g>
            <g id="g74">
                <path id="polygon72" d="M339.2,434.88L347.2,434.88L347.2,433.056L350.4,431.12L353.6,431.12L353.6,429.2L355.2,429.2L355.2,427.36L356.8,427.36L356.8,436.8L353.6,450L348.8,450L347.2,444.4L345.6,440.56L345.6,442.48L344,442.48L342.4,444.4L342.4,442.48L340.8,446.24L339.2,446.24L337.6,444.4L336,444.4L336,442.48L337.6,442.48L337.6,440.56L339.2,438.72L339.2,434.88Z" style="fill-rule:nonzero;stroke:rgb(255,204,170);stroke-width:0.27px;"/>
            </g>
            <g id="g80">
                <path id="polygon78" d="M425.6,457.64L427.2,453.84L428.8,455.68L428.8,453.84L433.6,457.64L435.2,457.64L435.2,468.96L441.6,468.96L441.6,470.8L443.2,472.72L443.2,474.64L438.4,474.64L438.4,472.72L436.8,470.8L433.6,470.8L432,472.72L430.4,472.72L430.4,474.64L428.8,476.48L428.8,478.4L427.2,478.4L427.2,480.32L422.4,480.32L419.2,478.4L414.4,484.08L411.2,487.84L409.6,486L414.4,482.224L414.4,478.4L416,476.48L416,470.8L417.6,470.8L417.6,467.04L416,465.2L412.8,465.2L414.4,463.28L412.8,463.28L411.2,461.36L411.2,457.64L414.4,457.64L414.4,455.68L420.8,455.68L422.4,457.64L425.6,457.64Z" style="fill-rule:nonzero;stroke:rgb(255,204,170);stroke-width:0.27px;"/>
            </g>
            <g id="g86">
                <path id="polygon84" d="M408,461.36L403.2,461.36L401.6,463.28L400,467.04L398.4,467.04L398.4,468.96L395.2,468.96L393.6,467.04L393.6,465.2L393.6,467.04L392,467.04L393.6,463.28L392,461.36L393.6,459.52L393.6,455.68L395.2,451.92L409.6,451.92L409.6,453.84L411.2,451.92L409.6,450L416,450L416,453.84L414.4,455.68L414.4,457.64L409.6,457.64L409.6,459.52L408,459.52L408,461.36Z" style="fill-rule:nonzero;stroke:rgb(255,204,170);stroke-width:0.27px;"/>
            </g>
            <g id="g92">
                <path id="polygon90" d="M393.6,465.2L393.6,467.04L395.2,468.96L395.2,484.08L393.6,486L393.6,489.76L392,489.76L392,493.52L388.8,493.52L387.2,491.6L382.4,491.6L382.4,487.84L380.8,486L380.8,484.08L379.2,484.08L376,482.224L372.8,480.32L376,476.48L371.2,472.72L374.4,467.04L374.4,465.2L388.8,465.2L393.6,457.64L393.6,459.52L392,461.36L393.6,463.28L392,467.04L393.6,467.04L393.6,465.2Z" style="fill-rule:nonzero;stroke:rgb(255,204,170);stroke-width:0.27px;"/>
            </g>
            <g id="g98">
                <path id="polygon96" d="M350.4,461.36L352,461.36L352,463.28L360,463.28L361.6,468.96L358.4,470.8L356.8,472.72L356.8,474.64L355.2,474.64L353.6,476.48L352,478.4L350.4,478.4L350.4,480.32L347.2,480.32L347.2,482.224L345.6,478.4L342.4,480.32L340.8,478.4L340.8,476.48L339.2,474.64L337.6,474.64L336,476.48L336,470.8L339.2,468.96L340.8,467.04L340.8,465.2L342.4,463.28L344,463.28L344,459.52L347.2,459.52L347.2,453.84L348.8,451.92L352,451.92L352,455.68L350.4,457.64L350.4,461.36Z" style="fill-rule:nonzero;stroke:rgb(255,204,170);stroke-width:0.27px;"/>
            </g>
            <g id="g104">
                <path id="polygon102" d="M388.8,506.808L382.4,506.808L380.8,502.96L382.4,501.12L382.4,495.44L385.6,495.44L387.2,497.28L388.8,495.44L390.4,497.28L395.2,499.2L393.6,501.12L398.4,501.12L400,502.96L400,504.88L398.4,504.88L398.4,506.808L400,506.808L401.6,510.56L403.2,510.56L403.2,512.48L401.6,512.48L403.2,514.32L403.2,516.24L404.8,516.24L404.8,520L403.2,520L403.2,518.08L401.6,518.08L401.6,520L398.4,520L396.8,518.08L395.2,516.24L393.6,516.24L390.4,514.32L390.4,510.56L388.8,508.64L388.8,506.808Z" style="fill-rule:nonzero;stroke:rgb(255,204,170);stroke-width:0.27px;"/>
            </g>
            <g id="g110">
                <path id="polygon108" d="M420.8,438.72L422.4,440.56L424,440.56L424,442.48L425.6,442.48L428.8,444.4L427.2,451.92L425.6,451.92L425.6,453.84L427.2,453.84L425.6,457.64L422.4,457.64L420.8,455.68L414.4,455.68L416,453.84L416,450L411.2,450L411.2,444.4L412.8,442.48L414.4,442.48L412.8,440.56L414.4,438.72L414.4,436.8L416,438.72L420.8,438.72Z" style="fill-rule:nonzero;stroke:rgb(255,204,170);stroke-width:0.27px;"/>
            </g>
            <g id="g116">
                <path id="polygon114" d="M411.2,436.8L414.4,436.8L414.4,438.72L412.8,440.56L414.4,442.48L412.8,442.48L411.2,444.4L411.2,450L409.6,450L411.2,451.92L409.6,453.84L409.6,451.92L395.2,451.92L396.8,448.16L396.8,446.24L398.4,444.4L398.4,442.48L403.2,434.88L409.6,434.88L411.2,436.8Z" style="fill-rule:nonzero;stroke:rgb(255,204,170);stroke-width:0.27px;"/>
            </g>
            <g id="g122">
                <path id="polygon120" d="M379.2,521.92L377.6,520L374.4,520L376,518.08L376,512.48L377.6,512.48L376,510.56L377.6,504.88L376,504.88L376,502.96L380.8,502.96L382.4,506.808L388.8,506.808L388.8,508.64L390.4,510.56L390.4,514.32L393.6,516.24L395.2,516.24L396.8,518.08L398.4,520L398.4,521.92L400,521.92L400,523.76L403.2,525.68L403.2,527.6L400,529.44L398.4,525.68L396.8,525.68L395.2,527.6L395.2,529.44L393.6,531.392L388.8,531.392L385.6,529.44L382.4,527.6L380.8,527.6L379.2,525.68L379.2,521.92Z" style="fill-rule:nonzero;stroke:rgb(255,204,170);stroke-width:0.27px;"/>
            </g>
            <g id="g128">
                <path id="polygon126" d="M446.4,486L446.4,484.08L441.6,484.08L441.6,489.76L440,489.76L438.4,487.84L435.2,487.84L433.6,489.76L433.6,491.6L432,489.76L430.4,489.76L428.8,487.84L427.2,491.6L427.2,493.52L424,491.6L416,491.6L414.4,489.76L412.8,489.76L411.2,487.84L414.4,484.08L419.2,478.4L422.4,480.32L427.2,480.32L427.2,478.4L428.8,478.4L428.8,476.48L430.4,474.64L430.4,472.72L432,472.72L433.6,470.8L436.8,470.8L438.4,472.72L438.4,474.64L446.4,474.64L444.8,476.48L448,478.4L448,480.32L446.4,480.32L444.8,482.224L444.8,484.08L448,484.08L448,486L446.4,486Z" style="fill-rule:nonzero;stroke:rgb(255,204,170);stroke-width:0.27px;"/>
            </g>
            <g id="g134">
                <path id="polygon132" d="M360,455.68L358.4,455.68L360,455.68L360,457.64L356.8,457.64L358.4,459.52L360,459.52L360,463.28L352,463.28L352,461.36L350.4,461.36L350.4,457.64L352,455.68L352,451.92L350.4,451.92L348.8,450L353.6,450L356.8,436.8L356.8,433.056L356.8,434.88L358.4,433.056L360,433.056L361.6,434.88L363.2,433.056L364.8,431.12L364.8,434.88L364.8,433.056L363.2,434.88L360,434.88L360,436.8L356.8,436.8L358.4,442.48L361.6,442.48L361.6,446.24L363.2,448.16L360,450L360,455.68Z" style="fill-rule:nonzero;stroke:rgb(255,204,170);stroke-width:0.27px;"/>
            </g>
            <g id="g140">
                <path id="polygon138" d="M342.4,529.44L340.8,531.392L339.2,535.12L337.6,535.12L337.6,537.04L332.8,537.04L331.2,538.88L329.6,538.88L329.6,537.04L328,535.12L328,531.392L326.4,529.44L324.8,527.6L323.2,527.6L321.6,523.76L324.8,521.92L332.8,518.08L336,516.24L337.6,516.24L344,514.32L348.8,514.32L352,512.48L356.8,512.48L356.8,514.32L358.4,514.32L358.4,518.08L360,518.08L363.2,520L363.2,521.92L364.8,521.92L360,525.68L360,527.6L358.4,529.44L356.8,529.44L355.2,527.6L353.6,525.68L352,527.6L350.4,527.6L348.8,529.44L348.8,531.392L342.4,531.392L342.4,529.44Z" style="fill-rule:nonzero;stroke:rgb(255,204,170);stroke-width:0.27px;"/>
            </g>
            <g id="g146">
                <path id="polygon144" d="M361.6,480.32L360,482.224L358.4,484.08L356.8,482.224L355.2,480.32L353.6,478.4L353.6,476.48L355.2,474.64L356.8,474.64L356.8,472.72L358.4,470.8L361.6,468.96L368,467.04L374.4,465.2L374.4,467.04L371.2,472.72L376,476.48L372.8,480.32L371.2,480.32L369.6,478.4L366.4,482.224L364.8,482.224L361.6,480.32Z" style="fill-rule:nonzero;stroke:rgb(255,204,170);stroke-width:0.27px;"/>
            </g>
            <g id="g152">
                <path id="polygon150" d="M352,499.2L355.2,501.12L356.8,501.12L355.2,501.12L355.2,502.96L350.4,502.96L350.4,506.808L348.8,508.64L350.4,510.56L352,510.56L352,512.48L348.8,514.32L344,514.32L337.6,516.24L336,512.48L334.4,512.48L339.2,512.48L339.2,510.56L336,506.808L337.6,506.808L334.4,502.96L332.8,504.88L331.2,501.12L328,501.12L329.6,499.2L334.4,499.2L334.4,497.28L337.6,497.28L339.2,495.44L340.8,495.44L344,499.2L352,499.2Z" style="fill-rule:nonzero;stroke:rgb(255,204,170);stroke-width:0.27px;"/>
            </g>
            <g id="g158">
                <path id="polygon156" d="M398.4,468.96L398.4,467.04L400,467.04L401.6,463.28L403.2,461.36L408,461.36L408,459.52L409.6,459.52L409.6,457.64L411.2,457.64L411.2,461.36L412.8,463.28L414.4,463.28L412.8,465.2L416,465.2L417.6,467.04L417.6,470.8L416,470.8L416,476.48L414.4,478.4L414.4,482.224L409.6,486L404.8,486L403.2,482.224L401.6,482.224L401.6,480.32L400,478.4L401.6,476.48L398.4,468.96Z" style="fill-rule:nonzero;stroke:rgb(255,204,170);stroke-width:0.27px;"/>
            </g>
            <g id="g164">
                <path id="polygon162" d="M387.2,497.28L385.6,495.44L382.4,495.44L382.4,501.12L380.8,502.96L374.4,502.96L372.8,501.12L372.8,504.88L371.2,502.96L371.2,501.12L366.4,501.12L364.8,502.96L364.8,512.48L363.2,510.56L361.6,510.56L361.6,508.64L360,506.808L358.4,504.88L358.4,502.96L356.8,502.96L355.2,501.12L356.8,501.12L355.2,501.12L352,499.2L353.6,497.28L353.6,493.52L352,491.6L350.4,489.76L348.8,489.76L347.2,487.84L348.8,487.84L348.8,484.08L347.2,482.224L347.2,480.32L350.4,480.32L350.4,478.4L352,478.4L353.6,476.48L353.6,478.4L355.2,480.32L356.8,482.224L358.4,484.08L360,482.224L361.6,480.32L364.8,482.224L366.4,482.224L369.6,478.4L371.2,480.32L372.8,480.32L376,482.224L379.2,484.08L380.8,484.08L380.8,486L382.4,487.84L382.4,491.6L387.2,491.6L388.8,493.52L388.8,495.44L387.2,497.28Z" style="fill-rule:nonzero;stroke:rgb(255,204,170);stroke-width:0.27px;"/>
            </g>
            <g id="g170">
                <path id="polygon168" d="M443.2,491.6L441.6,491.6L438.4,495.44L440,497.28L443.2,499.2L444.8,497.28L444.8,499.2L446.4,502.96L441.6,502.96L440,504.88L436.8,504.88L436.8,506.808L433.6,504.88L433.6,501.12L435.2,499.2L433.6,497.28L432,497.28L430.4,499.2L427.2,501.12L427.2,499.2L428.8,499.2L428.8,497.28L425.6,497.28L424,495.44L414.4,493.52L408,489.76L414.4,489.76L416,491.6L424,491.6L427.2,493.52L427.2,491.6L428.8,487.84L430.4,489.76L432,489.76L433.6,491.6L433.6,489.76L435.2,487.84L438.4,487.84L440,489.76L441.6,489.76L441.6,484.08L443.2,484.08L444.8,486L443.2,487.84L443.2,491.6Z" style="fill-rule:nonzero;stroke:rgb(255,204,170);stroke-width:0.27px;"/>
            </g>
            <g id="g176">
                <path id="polygon174" d="M430.4,520L428.8,523.76L424,523.76L425.6,527.6L425.6,529.44L417.6,529.44L416,531.392L414.4,533.28L411.2,533.28L408,531.392L406.4,531.392L403.2,529.44L400,529.44L403.2,527.6L403.2,525.68L400,523.76L400,521.92L398.4,521.92L398.4,520L401.6,520L401.6,518.08L403.2,518.08L403.2,520L404.8,520L404.8,516.24L406.4,516.24L406.4,518.08L409.6,514.32L411.2,512.48L412.8,512.48L417.6,514.32L420.8,516.24L424,520L427.2,518.08L430.4,520Z" style="fill-rule:nonzero;stroke:rgb(255,204,170);stroke-width:0.27px;"/>
            </g>
            <g id="g182">
                <path id="polygon180" d="M363.2,510.56L364.8,512.48L364.8,514.32L366.4,516.24L366.4,520L364.8,521.92L363.2,521.92L363.2,520L360,518.08L358.4,518.08L358.4,514.32L356.8,514.32L356.8,512.48L352,512.48L352,510.56L350.4,510.56L348.8,508.64L350.4,506.808L350.4,502.96L355.2,502.96L355.2,501.12L356.8,502.96L358.4,502.96L358.4,504.88L360,506.808L361.6,508.64L361.6,510.56L363.2,510.56Z" style="fill-rule:nonzero;stroke:rgb(255,204,170);stroke-width:0.27px;"/>
            </g>
            <g id="g188">
                <path id="polygon186" d="M401.6,480.32L401.6,482.224L403.2,482.224L404.8,486L409.6,486L411.2,487.84L412.8,489.76L408,489.76L414.4,493.52L414.4,495.44L412.8,499.2L411.2,497.28L406.4,493.52L403.2,499.2L401.6,499.2L400,501.12L393.6,501.12L395.2,499.2L390.4,497.28L388.8,495.44L388.8,493.52L392,493.52L392,489.76L393.6,489.76L393.6,486L395.2,484.08L395.2,468.96L398.4,468.96L401.6,476.48L400,478.4L401.6,480.32Z" style="fill-rule:nonzero;stroke:rgb(255,204,170);stroke-width:0.27px;"/>
            </g>
            <g id="g194">
                <path id="polygon192" d="M364.8,514.32L364.8,502.96L366.4,501.12L371.2,501.12L371.2,502.96L372.8,504.88L372.8,501.12L374.4,502.96L376,502.96L376,504.88L377.6,504.88L376,510.56L377.6,512.48L376,512.48L376,518.08L374.4,520L371.2,518.08L369.6,520L366.4,520L366.4,516.24L364.8,514.32Z" style="fill-rule:nonzero;stroke:rgb(255,204,170);stroke-width:0.27px;"/>
            </g>
            <g id="g200">
                <path id="polygon198" d="M307.2,436.8L308.8,434.88L312,434.88L312,433.056L313.6,433.056L315.2,431.12L315.2,427.36L318.4,427.36L320,429.2L320,431.12L318.4,434.88L316.8,438.72L315.2,440.56L313.6,440.56L310.4,444.4L310.4,446.24L308.8,448.16L305.6,451.92L300.8,453.84L302.4,448.16L296,448.16L294.4,450L291.2,450L292.8,448.16L294.4,446.24L297.6,446.24L299.2,444.4L299.2,442.48L300.8,440.56L302.4,440.56L304,438.72L305.6,436.8L307.2,436.8Z" style="fill-rule:nonzero;stroke:rgb(255,204,170);stroke-width:0.27px;"/>
            </g>
            <g id="g206">
                <path id="polygon204" d="M331.2,440.56L328,444.4L326.4,444.4L326.4,446.24L324.8,446.24L323.2,444.4L321.6,444.4L320,442.48L318.4,442.48L316.8,440.56L315.2,440.56L316.8,438.72L318.4,434.88L320,431.12L320,429.2L318.4,427.36L318.4,423.6L320,421.68L323.2,419.76L326.4,419.76L326.4,421.68L334.4,421.68L336,423.6L336,427.36L334.4,427.36L334.4,429.2L332.8,431.12L331.2,433.056L331.2,440.56Z" style="fill-rule:nonzero;stroke:rgb(255,204,170);stroke-width:0.27px;"/>
            </g>
            <g id="g218">
                <g id="g216">
                    <path id="polygon210" d="M342.4,421.68L342.4,419.76L344,419.76L344,421.68L345.6,421.68L347.2,419.76L352,419.76L352,425.44L356.8,421.68L356.8,427.36L355.2,427.36L355.2,429.2L353.6,429.2L353.6,431.12L350.4,431.12L347.2,433.056L347.2,434.88L344,434.88L340.8,427.36L340.8,425.44L342.4,423.6L342.4,421.68L340.8,421.68L342.4,421.68Z" style="fill-rule:nonzero;stroke:rgb(255,204,170);stroke-width:0.27px;"/>
                    <path id="polygon214" d="M345.6,410.32L348.8,410.32L348.8,412.24L350.4,410.32L352,410.32L353.6,412.24L356.8,414.08L355.2,416L353.6,416L350.4,414.08L348.8,412.24L347.2,412.24L345.6,414.08L345.6,416L344,416L344,417.92L339.2,417.92L337.6,419.76L337.6,423.6L336,423.6L334.4,421.68L326.4,421.68L326.4,419.76L323.2,419.76L320,421.68L318.4,419.76L315.2,417.92L315.2,416L312,414.08L310.4,414.08L310.4,412.24L307.2,412.24L308.8,408.472L308.8,398.96L302.4,397.12L305.6,389.52L313.6,389.52L318.4,391.44L321.6,391.44L324.8,393.28L326.4,393.28L328,391.44L326.4,391.44L328,389.52L329.6,389.52L331.2,391.44L336,391.44L339.2,393.28L340.8,395.2L342.4,393.28L344,391.44L348.8,391.44L350.4,389.52L350.4,391.44L353.6,391.44L356.8,393.28L356.8,391.44L358.4,393.28L366.4,393.28L366.4,395.2L364.8,393.28L361.6,397.12L360,397.12L358.4,398.96L358.4,400.88L356.8,402.72L355.2,402.72L355.2,406.56L353.6,406.56L353.6,404.64L352,404.64L350.4,406.56L348.8,404.64L345.6,402.72L345.6,404.64L350.4,408.472L355.2,408.472L345.6,408.472L345.6,410.32Z" style="fill-rule:nonzero;stroke:rgb(255,204,170);stroke-width:0.27px;"/>
                </g>
            </g>
            <g id="g224">
                <path id="polygon222" d="M404.8,429.2L404.8,431.12L406.4,429.2L408,429.2L409.6,427.36L411.2,429.2L409.6,429.2L409.6,431.12L408,431.12L408,433.056L409.6,434.88L403.2,434.88L398.4,442.48L396.8,440.56L395.2,438.72L395.2,436.8L392,438.72L390.4,438.72L392,436.8L392,434.88L398.4,434.88L400,433.056L401.6,433.056L403.2,431.12L404.8,431.12L404.8,429.2Z" style="fill-rule:nonzero;stroke:rgb(255,204,170);stroke-width:0.27px;"/>
            </g>
            <g id="g230">
                <path id="polygon228" d="M273.6,423.6L272,425.44L268.8,423.6L272,414.08L273.6,412.24L273.6,410.32L275.2,406.56L276.8,400.88L268.8,397.12L270.4,393.28L272,389.52L272,385.76L276.8,387.6L281.6,389.52L283.2,391.44L284.8,391.44L284.8,395.2L283.2,398.96L283.2,400.88L280,400.88L280,402.72L278.4,404.64L280,406.56L280,410.32L278.4,414.08L278.4,416L276.8,419.76L278.4,419.76L281.6,421.68L281.6,423.6L276.8,423.6L275.2,421.68L273.6,423.6Z" style="fill-rule:nonzero;stroke:rgb(255,204,170);stroke-width:0.27px;"/>
            </g>
            <g id="g236">
                <path id="polygon234" d="M379.2,440.56L379.2,434.88L382.4,434.88L382.4,433.056L382.4,434.88L384,434.88L384,433.056L384,434.88L385.6,434.88L385.6,433.056L387.2,434.88L388.8,436.8L390.4,436.8L390.4,438.72L387.2,440.56L385.6,440.56L384,442.48L382.4,442.48L379.2,440.56Z" style="fill-rule:nonzero;stroke:rgb(255,204,170);stroke-width:0.27px;"/>
            </g>
            <g id="g242">
                <path id="polygon240" d="M352,419.76L347.2,419.76L345.6,421.68L344,421.68L344,419.76L342.4,419.76L344,417.92L344,416L345.6,416L345.6,414.08L347.2,412.24L348.8,412.24L350.4,414.08L353.6,416L355.2,416L356.8,414.08L358.4,414.08L360,416L358.4,417.92L355.2,419.76L356.8,421.68L352,425.44L352,419.76Z" style="fill-rule:nonzero;stroke:rgb(255,204,170);stroke-width:0.27px;"/>
            </g>
            <g id="g248">
            </g>
            <g id="g254">
                <path id="polygon252" d="M315.2,431.12L313.6,433.056L312,433.056L312,434.88L308.8,434.88L307.2,436.8L305.6,436.8L304,438.72L302.4,440.56L300.8,440.56L299.2,442.48L299.2,444.4L297.6,446.24L294.4,446.24L292.8,448.16L291.2,450L289.6,450L288,451.92L286.4,451.92L286.4,453.84L278.4,453.84L275.2,451.92L273.6,453.84L270.4,451.92L268.8,450L270.4,448.16L272,448.16L272,444.4L273.6,442.48L273.6,436.8L275.2,434.88L276.8,434.88L276.8,433.056L278.4,431.12L278.4,429.2L280,427.36L281.6,425.44L281.6,417.92L284.8,417.92L286.4,416L289.6,416L291.2,414.08L292.8,412.24L292.8,404.64L299.2,402.72L307.2,402.72L307.2,404.64L308.8,404.64L308.8,408.472L307.2,412.24L310.4,412.24L310.4,414.08L312,414.08L315.2,416L315.2,417.92L318.4,419.76L320,421.68L318.4,423.6L318.4,427.36L315.2,427.36L315.2,431.12Z" style="fill-rule:nonzero;stroke:rgb(255,204,170);stroke-width:0.27px;"/>
            </g>
            <g id="g260">
                <path id="polygon258" d="M280,410.32L280,408.472L281.6,408.472L281.6,410.32L286.4,410.32L286.4,416L284.8,417.92L281.6,417.92L281.6,421.68L278.4,419.76L276.8,419.76L278.4,416L278.4,414.08L280,410.32Z" style="fill-rule:nonzero;stroke:rgb(255,204,170);stroke-width:0.27px;"/>
            </g>
            <g id="g266">
                <path id="polygon264" d="M379.2,440.56L376,440.56L376,436.8L372.8,434.88L371.2,434.88L372.8,433.056L376,434.88L379.2,434.88L379.2,433.056L380.8,433.056L380.8,434.88L379.2,434.88L379.2,440.56L382.4,442.48L384,442.48L385.6,440.56L387.2,440.56L390.4,438.72L388.8,444.4L390.4,446.24L390.4,448.16L393.6,453.84L393.6,457.64L388.8,465.2L376,465.2L376,463.28L377.6,463.28L379.2,461.36L380.8,459.52L379.2,455.68L377.6,455.68L376,453.84L376,451.92L379.2,451.92L379.2,440.56Z" style="fill-rule:nonzero;stroke:rgb(255,204,170);stroke-width:0.27px;"/>
            </g>
            <g id="g272">
                <path id="polygon270" d="M403.2,431.12L401.6,433.056L400,433.056L398.4,434.88L392,434.88L392,436.8L390.4,438.72L390.4,436.8L388.8,436.8L387.2,434.88L388.8,434.88L388.8,429.2L395.2,429.2L395.2,425.44L400,425.44L401.6,427.36L404.8,427.36L404.8,429.2L406.4,429.2L404.8,431.12L404.8,429.2L404.8,431.12L403.2,431.12Z" style="fill-rule:nonzero;stroke:rgb(255,204,170);stroke-width:0.27px;"/>
            </g>
            <g id="g278">
                <path id="polygon276" d="M393.6,455.68L393.6,453.84L390.4,448.16L390.4,446.24L388.8,444.4L390.4,438.72L392,438.72L395.2,436.8L395.2,438.72L396.8,440.56L398.4,442.48L398.4,444.4L396.8,446.24L396.8,448.16L393.6,455.68Z" style="fill-rule:nonzero;stroke:rgb(255,204,170);stroke-width:0.27px;"/>
            </g>
            <g id="g284">
                <path id="polygon282" d="M368,423.6L364.8,421.68L364.8,423.6L363.2,423.6L360,421.68L356.8,421.68L355.2,419.76L358.4,417.92L366.4,417.92L368,416L371.2,417.92L372.8,419.76L376,419.76L377.6,421.68L376,421.68L374.4,423.6L376,425.44L372.8,427.36L371.2,425.44L369.6,423.6L368,423.6Z" style="fill-rule:nonzero;stroke:rgb(255,204,170);stroke-width:0.27px;"/>
            </g>
            <g id="g290">
                <path id="polygon288" d="M388.8,434.88L387.2,434.88L385.6,433.056L385.6,434.88L384,434.88L384,433.056L384,434.88L382.4,434.88L382.4,433.056L382.4,434.88L379.2,434.88L380.8,434.88L380.8,433.056L379.2,433.056L379.2,434.88L376,434.88L372.8,433.056L371.2,431.12L372.8,431.12L372.8,429.2L371.2,429.2L371.2,425.44L372.8,427.36L376,425.44L374.4,423.6L376,421.68L377.6,421.68L377.6,419.76L379.2,421.68L379.2,423.6L380.8,425.44L382.4,425.44L382.4,427.36L388.8,427.36L388.8,425.44L395.2,425.44L395.2,429.2L388.8,429.2L388.8,434.88Z" style="fill-rule:nonzero;stroke:rgb(255,204,170);stroke-width:0.27px;"/>
            </g>
            <g id="g296">
                <path id="polygon294" d="M344,417.92L342.4,419.76L342.4,421.68L340.8,421.68L342.4,421.68L342.4,423.6L340.8,425.44L340.8,427.36L344,434.88L339.2,434.88L339.2,438.72L337.6,440.56L337.6,442.48L334.4,442.48L334.4,444.4L332.8,442.48L329.6,442.48L329.6,444.4L329.6,442.48L331.2,440.56L331.2,433.056L332.8,431.12L334.4,429.2L334.4,427.36L336,427.36L336,423.6L337.6,423.6L337.6,419.76L339.2,417.92L344,417.92Z" style="fill-rule:nonzero;stroke:rgb(255,204,170);stroke-width:0.27px;"/>
            </g>
            <g id="g302">
                <path id="polygon300" d="M321.6,450L312,450L312,451.92L310.4,451.92L308.8,453.84L305.6,453.84L304,457.64L302.4,455.68L302.4,453.84L300.8,453.84L305.6,451.92L308.8,448.16L310.4,446.24L310.4,444.4L313.6,440.56L316.8,440.56L318.4,442.48L320,442.48L321.6,444.4L323.2,444.4L324.8,446.24L324.8,448.16L324.8,446.24L323.2,448.16L321.6,450Z" style="fill-rule:nonzero;stroke:rgb(255,204,170);stroke-width:0.27px;"/>
            </g>
            <g id="g308">
                <path id="polygon306" d="M356.8,421.68L360,421.68L363.2,423.6L364.8,423.6L364.8,421.68L368,423.6L369.6,423.6L371.2,425.44L371.2,429.2L372.8,429.2L372.8,431.12L371.2,431.12L372.8,433.056L371.2,434.88L364.8,434.88L364.8,431.12L363.2,433.056L361.6,434.88L360,433.056L358.4,433.056L356.8,434.88L356.8,421.68Z" style="fill-rule:nonzero;stroke:rgb(255,204,170);stroke-width:0.27px;"/>
            </g>
            <g id="g314">
                <path id="polygon312" d="M272,414.08L268.8,423.6L259.2,419.76L264,408.472L267.2,402.72L267.2,400.88L268.8,397.12L276.8,400.88L275.2,406.56L273.6,410.32L273.6,412.24L272,414.08Z" style="fill-rule:nonzero;stroke:rgb(255,204,170);stroke-width:0.27px;"/>
            </g>
            <g id="g480">
                <path id="polygon478" d="M334.4,512.48L336,512.48L337.6,516.24L336,516.24L332.8,518.08L324.8,521.92L321.6,523.76L320,521.92L318.4,520L324.8,518.08L326.4,518.08L324.8,514.32L320,514.32L318.4,516.24L316.8,514.32L315.2,514.32L315.2,512.48L316.8,512.48L316.8,508.64L318.4,508.64L320,504.88L321.6,504.88L324.8,501.12L331.2,501.12L332.8,504.88L334.4,502.96L337.6,506.808L336,506.808L339.2,510.56L339.2,512.48L334.4,512.48Z" style="fill-rule:nonzero;stroke:rgb(255,204,170);stroke-width:0.27px;"/>
            </g>
            <g id="g542">
                <path id="polygon540" d="M380.8,527.6L382.4,527.6L385.6,529.44L385.6,531.392L382.4,535.12L380.8,538.88L377.6,538.88L371.2,535.12L369.6,535.12L363.2,533.28L363.2,531.392L364.8,531.392L363.2,527.6L361.6,527.6L360,525.68L364.8,521.92L366.4,520L369.6,520L371.2,518.08L374.4,520L377.6,520L379.2,521.92L379.2,525.68L380.8,527.6Z" style="fill-rule:nonzero;stroke:rgb(255,204,170);stroke-width:0.27px;"/>
            </g>
            <g id="g568">
                <path id="polygon566" d="M347.2,482.224L348.8,484.08L348.8,487.84L347.2,487.84L348.8,489.76L350.4,489.76L352,491.6L353.6,493.52L353.6,497.28L352,499.2L344,499.2L340.8,495.44L339.2,495.44L337.6,497.28L334.4,497.28L334.4,499.2L321.6,499.2L321.6,497.28L320,497.28L320,486L313.6,482.224L315.2,482.224L316.8,480.32L316.8,478.4L318.4,476.48L323.2,476.48L326.4,478.4L329.6,478.4L329.6,472.72L332.8,470.8L336,470.8L336,476.48L337.6,474.64L339.2,474.64L340.8,476.48L340.8,478.4L342.4,480.32L345.6,478.4L347.2,482.224Z" style="fill-rule:nonzero;stroke:rgb(255,204,170);stroke-width:0.27px;"/>
            </g>
            <g id="g594">
                <path id="polygon592" d="M432,576.72L430.4,574.88L430.4,572.96L428.8,571.104L428.8,569.2L427.2,569.2L430.4,565.36L432,559.68L433.6,557.84L433.6,555.976L435.2,554.08L448,554.08L451.2,552.16L454.4,552.16L454.4,554.08L456,554.08L460.8,552.16L459.2,555.976L459.2,557.84L457.6,557.84L457.6,559.68L456,559.68L456,561.6L460.8,561.6L462.4,563.52L460.8,565.36L462.4,567.28L462.4,569.2L467.2,569.2L467.2,571.104L459.2,571.104L457.6,572.96L456,572.96L456,574.88L449.6,574.88L448,572.96L446.4,571.104L443.2,571.104L443.2,572.96L441.6,574.88L441.6,576.72L432,576.72Z" style="fill-rule:nonzero;stroke:rgb(255,204,170);stroke-width:0.27px;"/>
            </g>
            <g id="g616">
                <path id="polygon614" d="M161.6,644.856L160,644.856L160,642.96L161.6,641.04L163.2,641.04L164.8,639.12L168,639.12L171.2,637.28L172.8,637.28L172.8,635.36L182.4,635.36L182.4,637.28L185.6,639.12L188.8,639.12L188.8,637.28L196.8,637.28L195.2,637.28L196.8,635.36L196.8,633.44L195.2,633.44L195.2,635.36L187.2,635.36L185.6,631.6L184,629.728L182.4,629.728L182.4,625.92L185.6,624L185.6,622.16L188.8,624L192,624L195.2,625.92L196.8,625.92L198.4,627.76L200,627.76L201.6,629.728L200,631.6L201.6,629.728L200,627.76L204.8,627.76L206.4,629.728L208,627.76L208,629.728L203.2,631.6L201.6,631.6L200,633.44L200,642.96L206.4,650.48L208,652.4L208,656.16L206.4,658.08L204.8,661.84L204.8,667.52L206.4,673.2L203.2,673.2L203.2,671.28L196.8,669.44L195.2,669.44L195.2,665.6L196.8,665.6L195.2,663.76L193.6,661.84L190.4,661.84L190.4,663.76L188.8,661.84L177.6,661.84L177.6,659.92L176,659.92L174.4,658.08L174.4,654.312L172.8,654.312L172.8,652.4L168,652.4L169.6,650.48L168,648.56L164.8,648.56L164.8,646.72L161.6,646.72L161.6,644.856Z" style="fill-rule:nonzero;stroke:rgb(255,204,170);stroke-width:0.27px;"/>
            </g>
            <g id="g622">
                <path id="polygon620" d="M356.8,572.96L358.4,567.28L352,567.28L352,561.6L353.6,563.52L355.2,561.6L360,561.6L363.2,563.52L363.2,561.6L364.8,561.6L361.6,559.68L363.2,559.68L363.2,557.84L368,557.84L368,555.976L369.6,554.08L374.4,554.08L376,555.976L374.4,555.976L374.4,557.84L376,559.68L377.6,557.84L380.8,561.6L380.8,571.104L382.4,572.96L382.4,574.88L380.8,576.72L376,576.72L376,574.88L374.4,574.88L371.2,572.96L366.4,572.96L361.6,574.88L356.8,574.88L356.8,572.96Z" style="fill-rule:nonzero;stroke:rgb(255,204,170);stroke-width:0.27px;"/>
            </g>
            <g id="g628">
                <path id="polygon626" d="M336,442.48L336,444.4L337.6,444.4L339.2,446.24L340.8,446.24L342.4,442.48L342.4,444.4L344,442.48L345.6,442.48L345.6,440.56L347.2,444.4L348.8,450L350.4,451.92L348.8,451.92L347.2,453.84L347.2,459.52L344,459.52L344,463.28L342.4,463.28L340.8,465.2L340.8,467.04L339.2,468.96L336,470.8L332.8,470.8L328,467.04L326.4,465.2L323.2,465.2L323.2,463.28L321.6,461.36L320,461.36L320,459.52L318.4,459.52L318.4,457.64L316.8,457.64L316.8,453.84L315.2,451.92L315.2,450L321.6,450L323.2,448.16L324.8,446.24L324.8,448.16L324.8,446.24L326.4,446.24L326.4,444.4L328,444.4L329.6,442.48L329.6,444.4L329.6,442.48L332.8,442.48L334.4,444.4L334.4,442.48L336,442.48Z" style="fill-rule:nonzero;stroke:rgb(255,204,170);stroke-width:0.27px;"/>
            </g>
            <g id="g634">
                <path id="polygon632" d="M350.4,597.52L350.4,595.688L356.8,595.688L356.8,590L368,590L368,584.32L371.2,584.32L372.8,586.16L374.4,586.16L374.4,588.08L377.6,588.08L379.2,590L377.6,590L377.6,593.76L379.2,593.76L377.6,595.688L376,597.52L376,599.44L374.4,599.44L371.2,601.36L369.6,603.2L368,603.2L366.4,605.144L364.8,605.144L363.2,606.96L353.6,606.96L352,605.144L350.4,605.144L352,603.2L352,597.52L350.4,597.52Z" style="fill-rule:nonzero;stroke:rgb(255,204,170);stroke-width:0.27px;"/>
            </g>
            <g id="g640">
                <path id="polygon638" d="M334.4,635.36L336,635.36L336,633.44L334.4,633.44L336,629.728L337.6,627.76L339.2,625.92L339.2,620.272L337.6,620.272L337.6,618.32L339.2,618.32L342.4,616.48L342.4,618.32L344,620.272L344,625.92L345.6,625.92L347.2,624L350.4,624L350.4,627.76L352,633.44L352,637.28L353.6,639.12L350.4,639.12L348.8,637.28L345.6,637.28L344,635.36L342.4,635.36L342.4,637.28L337.6,637.28L337.6,635.36L334.4,635.36Z" style="fill-rule:nonzero;stroke:rgb(255,204,170);stroke-width:0.27px;"/>
            </g>
            <g id="g646">
                <path id="polygon644" d="M339.2,618.32L326.4,618.32L324.8,614.56L323.2,614.56L321.6,616.48L321.6,614.56L320,612.64L320,610.8L318.4,606.96L321.6,606.96L326.4,605.144L337.6,605.144L337.6,606.96L339.2,612.64L339.2,618.32Z" style="fill-rule:nonzero;stroke:rgb(255,204,170);stroke-width:0.27px;"/>
            </g>
            <g id="g652">
                <path id="polygon650" d="M409.6,637.28L409.6,639.12L404.8,639.12L403.2,641.04L401.6,641.04L398.4,644.856L392,644.856L392,642.96L390.4,644.856L390.4,642.96L388.8,642.96L388.8,641.04L385.6,641.04L384,639.12L385.6,637.28L382.4,637.28L384,635.36L380.8,629.728L379.2,629.728L379.2,627.76L380.8,629.728L382.4,629.728L380.8,624L382.4,624L382.4,622.16L384,620.272L392,620.272L393.6,622.16L395.2,624L396.8,625.92L398.4,625.92L398.4,631.6L401.6,631.6L404.8,635.36L404.8,633.44L406.4,633.44L406.4,635.36L408,635.36L408,633.44L409.6,633.44L409.6,631.6L411.2,631.6L411.2,635.36L409.6,637.28Z" style="fill-rule:nonzero;stroke:rgb(255,204,170);stroke-width:0.27px;"/>
            </g>
            <g id="g658">
                <path id="polygon656" d="M420.8,610.8L419.2,610.8L419.2,612.64L420.8,614.56L420.8,616.48L419.2,616.48L417.6,618.32L419.2,618.32L419.2,620.272L416,620.272L416,622.16L414.4,618.32L412.8,620.272L408,620.272L406.4,618.32L406.4,616.48L403.2,616.48L401.6,614.56L400,616.48L398.4,616.48L396.8,614.56L395.2,614.56L395.2,612.64L398.4,612.64L400,610.8L396.8,610.8L396.8,606.96L395.2,606.96L395.2,603.2L393.6,601.36L390.4,597.52L395.2,597.52L398.4,599.44L398.4,601.36L400,599.44L409.6,599.44L412.8,597.52L419.2,593.76L419.2,595.688L420.8,595.688L422.4,593.76L425.6,591.84L430.4,591.84L430.4,595.688L432,597.52L430.4,599.44L428.8,599.44L428.8,605.144L430.4,606.96L432,605.144L432,606.96L430.4,608.88L432,608.88L432,610.8L433.6,610.8L422.4,610.8L420.8,612.64L420.8,610.8Z" style="fill-rule:nonzero;stroke:rgb(255,204,170);stroke-width:0.27px;"/>
            </g>
            <g id="g664">
                <path id="polygon662" d="M396.8,606.96L396.8,610.8L400,610.8L398.4,612.64L395.2,612.64L395.2,616.48L393.6,618.32L392,618.32L390.4,620.272L384,620.272L382.4,622.16L382.4,624L380.8,624L382.4,629.728L380.8,629.728L379.2,627.76L377.6,629.728L371.2,629.728L371.2,618.32L372.8,618.32L371.2,616.48L371.2,610.8L372.8,608.88L372.8,606.96L371.2,605.144L368,605.144L368,603.2L369.6,603.2L371.2,601.36L374.4,599.44L377.6,599.44L379.2,597.52L390.4,597.52L393.6,601.36L395.2,603.2L395.2,606.96L396.8,606.96Z" style="fill-rule:nonzero;stroke:rgb(255,204,170);stroke-width:0.27px;"/>
            </g>
            <g id="g670">
                <path id="polygon668" d="M419.2,595.688L419.2,591.84L420.8,590L420.8,584.32L422.4,584.32L424,578.64L425.6,576.72L427.2,574.88L428.8,572.96L430.4,572.96L430.4,574.88L432,576.72L441.6,576.72L441.6,574.88L443.2,572.96L443.2,571.104L446.4,571.104L448,572.96L449.6,574.88L452.8,574.88L452.8,578.64L451.2,578.64L449.6,580.56L449.6,582.4L448,582.4L446.4,584.32L444.8,584.32L441.6,586.16L441.6,588.08L440,588.08L438.4,590L436.8,591.84L425.6,591.84L422.4,593.76L420.8,595.688L419.2,595.688Z" style="fill-rule:nonzero;stroke:rgb(255,204,170);stroke-width:0.27px;"/>
            </g>
            <g id="g676">
                <path id="polygon674" d="M350.4,618.32L353.6,618.32L355.2,620.272L356.8,620.272L360,622.16L363.2,622.16L363.2,620.272L366.4,620.272L369.6,618.32L371.2,618.32L371.2,635.36L369.6,637.28L360,637.28L360,639.12L353.6,639.12L352,637.28L352,633.44L350.4,627.76L350.4,618.32Z" style="fill-rule:nonzero;stroke:rgb(255,204,170);stroke-width:0.27px;"/>
            </g>
            <g id="g682">
                <path id="polygon680" d="M331.2,644.856L328,646.72L323.2,646.72L323.2,644.856L321.6,644.856L321.6,641.04L320,641.04L321.6,639.12L321.6,635.36L320,633.44L320,631.6L318.4,631.6L316.8,629.728L315.2,631.6L312,629.728L313.6,627.76L310.4,622.16L313.6,620.272L318.4,618.32L320,618.32L321.6,616.48L323.2,614.56L324.8,614.56L326.4,618.32L337.6,618.32L337.6,620.272L339.2,620.272L339.2,625.92L337.6,627.76L336,629.728L334.4,633.44L336,633.44L336,635.36L334.4,635.36L336,635.36L336,641.04L332.8,642.96L331.2,644.856Z" style="fill-rule:nonzero;stroke:rgb(255,204,170);stroke-width:0.27px;"/>
            </g>
            <g id="g688">
            </g>
            <g id="g694">
            </g>
            <g id="g700">
                <path id="polygon698" d="M416,639.12L414.4,639.12L414.4,637.28L416,637.28L416,633.44L411.2,629.728L412.8,629.728L412.8,625.92L411.2,625.92L411.2,624L409.6,622.16L409.6,620.272L412.8,620.272L414.4,618.32L416,622.16L416,620.272L419.2,620.272L419.2,618.32L417.6,618.32L419.2,616.48L420.8,616.48L420.8,614.56L419.2,612.64L419.2,610.8L420.8,610.8L420.8,612.64L422.4,610.8L435.2,610.8L436.8,612.64L435.2,614.56L438.4,614.56L436.8,620.272L435.2,622.16L433.6,622.16L432,624L430.4,624L428.8,625.92L427.2,627.76L422.4,627.76L422.4,629.728L424,629.728L422.4,629.728L422.4,631.6L424,631.6L424,635.36L425.6,635.36L425.6,637.28L427.2,639.12L424,639.12L424,641.04L419.2,641.04L417.6,639.12L417.6,641.04L416,641.04L416,639.12Z" style="fill-rule:nonzero;stroke:rgb(255,204,170);stroke-width:0.27px;"/>
            </g>
            <g id="g706">
                <path id="polygon704" d="M200,642.96L200,633.44L201.6,631.6L203.2,631.6L208,629.728L211.2,629.728L211.2,631.6L212.8,631.6L211.2,629.728L212.8,627.76L219.2,627.76L219.2,625.92L230.4,625.92L232,624L233.6,622.16L235.2,624L236.8,625.92L238.4,625.92L238.4,627.76L240,629.728L243.2,629.728L243.2,631.6L244.8,633.44L246.4,635.36L243.2,635.36L244.8,637.28L244.8,644.856L246.4,648.56L246.4,652.4L244.8,654.312L240,654.312L235.2,656.16L232,656.16L222.4,654.312L219.2,654.312L219.2,652.4L214.4,650.48L214.4,648.56L211.2,648.56L209.6,650.48L209.6,652.4L208,654.312L208,652.4L206.4,650.48L200,642.96Z" style="fill-rule:nonzero;stroke:rgb(255,204,170);stroke-width:0.27px;"/>
            </g>
            <g id="g712">
                <path id="polygon710" d="M395.2,624L393.6,622.16L392,620.272L390.4,620.272L392,618.32L393.6,618.32L395.2,616.48L395.2,614.56L396.8,614.56L398.4,616.48L400,616.48L401.6,614.56L403.2,616.48L406.4,616.48L406.4,618.32L408,620.272L412.8,620.272L409.6,620.272L409.6,622.16L411.2,624L411.2,625.92L412.8,625.92L412.8,629.728L411.2,629.728L411.2,631.6L409.6,631.6L409.6,633.44L408,633.44L408,635.36L406.4,635.36L406.4,633.44L404.8,633.44L404.8,635.36L401.6,631.6L398.4,631.6L398.4,625.92L396.8,625.92L395.2,624Z" style="fill-rule:nonzero;stroke:rgb(255,204,170);stroke-width:0.27px;"/>
            </g>
            <g id="g718">
                <path id="polygon716" d="M368,605.144L371.2,605.144L372.8,606.96L372.8,608.88L371.2,610.8L371.2,616.48L372.8,618.32L369.6,618.32L366.4,620.272L363.2,620.272L363.2,622.16L360,622.16L356.8,620.272L355.2,620.272L353.6,618.32L350.4,618.32L350.4,624L347.2,624L345.6,625.92L344,625.92L344,620.272L342.4,618.32L342.4,616.48L339.2,618.32L339.2,612.64L337.6,606.96L337.6,605.144L340.8,603.2L347.2,603.2L350.4,605.144L352,605.144L353.6,606.96L363.2,606.96L364.8,605.144L366.4,605.144L368,603.2L368,605.144Z" style="fill-rule:nonzero;stroke:rgb(255,204,170);stroke-width:0.27px;"/>
            </g>
            <g id="g724">
                <path id="polygon722" d="M344,580.56L340.8,580.56L339.2,584.32L339.2,588.08L340.8,588.08L339.2,593.76L344,595.688L345.6,595.688L345.6,593.76L350.4,595.688L350.4,597.52L352,597.52L352,603.2L350.4,605.144L347.2,603.2L340.8,603.2L337.6,605.144L326.4,605.144L321.6,606.96L321.6,605.144L323.2,603.2L323.2,599.44L324.8,599.44L323.2,597.52L324.8,595.688L324.8,593.76L312,593.76L312,590L310.4,590L308.8,591.84L307.2,591.84L305.6,593.76L304,595.688L302.4,597.52L302.4,599.44L299.2,599.44L296,603.2L291.2,603.2L292.8,601.36L294.4,599.44L296,599.44L300.8,595.688L302.4,593.76L304,591.84L305.6,588.08L305.6,586.16L307.2,584.32L308.8,582.4L310.4,582.4L312,580.56L323.2,580.56L326.4,578.64L328,578.64L331.2,574.88L334.4,572.96L336,572.96L339.2,571.104L340.8,571.104L344,572.96L347.2,572.96L345.6,574.88L345.6,576.72L344,580.56Z" style="fill-rule:nonzero;stroke:rgb(255,204,170);stroke-width:0.27px;"/>
            </g>
            <g id="g730">
                <path id="polygon728" d="M347.2,572.96L352,572.96L353.6,574.88L355.2,576.72L355.2,578.64L356.8,578.64L360,580.56L361.6,580.56L361.6,582.4L363.2,584.32L364.8,586.16L368,586.16L368,590L356.8,590L356.8,595.688L350.4,595.688L345.6,593.76L345.6,595.688L344,595.688L339.2,593.76L340.8,588.08L339.2,588.08L339.2,584.32L340.8,580.56L344,580.56L345.6,576.72L345.6,574.88L347.2,572.96Z" style="fill-rule:nonzero;stroke:rgb(255,204,170);stroke-width:0.27px;"/>
            </g>
            <g id="g740">
                <path id="polygon738" d="M427.2,501.12L430.4,499.2L432,497.28L433.6,497.28L435.2,499.2L433.6,501.12L433.6,504.88L436.8,506.808L436.8,504.88L440,504.88L441.6,502.96L449.6,502.96L449.6,504.88L451.2,508.64L449.6,510.56L449.6,512.48L448,514.32L448,516.24L446.4,518.08L444.8,521.92L444.8,520L443.2,521.92L441.6,521.92L441.6,525.68L436.8,525.68L435.2,523.76L433.6,523.76L433.6,525.68L432,525.68L430.4,527.6L427.2,527.6L425.6,529.44L425.6,527.6L424,523.76L428.8,523.76L430.4,520L427.2,518.08L424,520L420.8,516.24L417.6,514.32L412.8,512.48L411.2,512.48L409.6,514.32L406.4,518.08L406.4,516.24L403.2,516.24L403.2,514.32L401.6,512.48L403.2,512.48L403.2,510.56L401.6,510.56L400,506.808L398.4,506.808L398.4,504.88L400,504.88L400,502.96L398.4,501.12L400,501.12L401.6,499.2L403.2,499.2L406.4,493.52L411.2,497.28L412.8,499.2L414.4,495.44L414.4,493.52L424,495.44L425.6,497.28L428.8,497.28L428.8,499.2L427.2,499.2L427.2,501.12Z" style="fill-rule:nonzero;stroke:rgb(255,204,170);stroke-width:0.27px;"/>
            </g>
            <g id="g754">
                <path id="polygon752" d="M438.4,614.56L438.4,612.64L438.4,614.56L435.2,614.56L436.8,612.64L435.2,610.8L432,610.8L432,608.88L430.4,608.88L432,606.96L432,605.144L430.4,606.96L428.8,605.144L428.8,599.44L430.4,599.44L432,597.52L430.4,595.688L430.4,591.84L436.8,591.84L438.4,590L440,590L440,591.84L441.6,591.84L441.6,593.76L443.2,593.76L443.2,595.688L444.8,595.688L446.4,597.52L444.8,597.52L444.8,599.44L441.6,601.36L441.6,603.2L443.2,606.96L446.4,606.96L446.4,608.88L444.8,608.88L443.2,610.8L441.6,610.8L441.6,612.64L440,614.56L438.4,614.56Z" style="fill-rule:nonzero;stroke:rgb(255,204,170);stroke-width:0.27px;"/>
            </g>
            <g id="g772">
                <g id="g770">
                    <path id="polygon758" d="M190.4,620.272L198.4,620.272L198.4,622.16L195.2,622.16L198.4,622.16L198.4,624L200,625.92L200,627.76L200,625.92L198.4,625.92L196.8,624L193.6,622.16L190.4,622.16L190.4,620.272Z" style="fill-rule:nonzero;stroke:rgb(255,204,170);stroke-width:0.27px;"/>
                    <path id="polygon760" d="M112,618.32L112,622.16L110.4,622.16L110.4,620.272L112,620.272L112,618.32Z" style="fill-rule:nonzero;stroke:rgb(255,204,170);stroke-width:0.27px;"/>
                    <path id="polygon762" d="M152,597.52L147.2,597.52L147.2,595.688L148.8,595.688L152,597.52Z" style="fill-rule:nonzero;stroke:rgb(255,204,170);stroke-width:0.27px;"/>
                    <path id="polygon764" d="M153.6,595.688L152,595.688L152,593.76L156.8,593.76L153.6,595.688Z" style="fill-rule:nonzero;stroke:rgb(255,204,170);stroke-width:0.27px;"/>
                    <path id="polygon766" d="M164.8,599.44L163.2,597.52L163.2,593.76L161.6,591.84L160,591.84L161.6,591.84L163.2,590L163.2,593.76L164.8,597.52L166.4,599.44L166.4,601.36L164.8,601.36L164.8,599.44Z" style="fill-rule:nonzero;stroke:rgb(255,204,170);stroke-width:0.27px;"/>
                    <path id="polygon768" d="M131.2,595.688L140.8,595.688L142.4,593.76L144,593.76L144,595.688L145.6,595.688L147.2,597.52L147.2,599.44L148.8,597.52L158.4,597.52L160,599.44L160,601.36L160,599.44L161.6,601.36L160,603.2L161.6,603.2L164.8,606.96L166.4,608.88L166.4,612.64L168,612.64L169.6,614.56L169.6,612.64L172.8,612.64L174.4,614.56L177.6,616.48L179.2,616.48L180.8,618.32L184,616.48L185.6,614.56L187.2,616.48L190.4,614.56L193.6,614.56L193.6,618.32L195.2,618.32L195.2,620.272L193.6,620.272L193.6,616.48L192,614.56L188.8,616.48L184,616.48L182.4,618.32L180.8,618.32L182.4,620.272L184,622.16L182.4,624L180.8,625.92L179.2,625.92L177.6,629.728L171.2,629.728L169.6,631.6L166.4,631.6L166.4,633.44L156.8,633.44L153.6,631.6L152,627.76L150.4,627.76L150.4,629.728L148.8,629.728L150.4,629.728L147.2,629.728L144,627.76L145.6,625.92L144,627.76L142.4,627.76L142.4,622.16L140.8,620.272L140.8,618.32L139.2,616.48L137.6,614.56L134.4,614.56L131.2,612.64L131.2,610.8L129.6,608.88L124.8,608.88L124.8,610.8L128,610.8L124.8,610.8L123.2,612.64L120,612.64L116.8,616.48L115.2,614.56L112,616.48L112,618.32L110.4,618.32L110.4,616.48L107.2,616.48L105.6,614.56L104,610.8L104,603.2L105.6,601.36L107.2,599.44L110.4,595.688L118.4,595.688L121.6,593.76L126.4,593.76L129.6,595.688L131.2,593.76L131.2,591.84L132.8,590L134.4,590L134.4,591.84L132.8,591.84L134.4,591.84L131.2,591.84L131.2,595.688Z" style="fill-rule:nonzero;stroke:rgb(255,204,170);stroke-width:0.27px;"/>
                </g>
            </g>
            <g id="g778">
                <path id="polygon776" d="M379.2,440.56L379.2,451.92L376,451.92L376,453.84L377.6,455.68L379.2,455.68L380.8,459.52L379.2,461.36L377.6,463.28L376,463.28L376,465.2L374.4,465.2L368,467.04L361.6,468.96L360,463.28L358.4,463.28L360,463.28L360,459.52L358.4,459.52L356.8,457.64L360,457.64L360,455.68L358.4,455.68L360,455.68L360,450L363.2,448.16L361.6,446.24L361.6,442.48L358.4,442.48L356.8,436.8L360,436.8L360,434.88L363.2,434.88L364.8,433.056L364.8,434.88L372.8,434.88L376,436.8L376,440.56L379.2,440.56Z" style="fill-rule:nonzero;stroke:rgb(255,204,170);stroke-width:0.27px;"/>
            </g>
            <g id="g790">
                <g id="g788">
                    <path id="polygon782" d="M240,612.64L238.4,610.8L240,610.8L240,612.64Z" style="fill-rule:nonzero;stroke:rgb(255,204,170);stroke-width:0.27px;"/>
                    <path id="polygon784" d="M236.8,614.56L238.4,612.64L240,612.64L241.6,610.8L243.2,608.88L244.8,608.88L243.2,610.8L240,612.64L238.4,614.56L236.8,614.56Z" style="fill-rule:nonzero;stroke:rgb(255,204,170);stroke-width:0.27px;"/>
                    <path id="polygon786" d="M286.4,606.96L288,606.96L288,610.8L289.6,614.56L291.2,612.64L294.4,616.48L294.4,614.56L296,616.48L297.6,618.32L292.8,620.272L294.4,622.16L294.4,624L292.8,624L294.4,625.92L294.4,627.76L296,629.728L284.8,629.728L283.2,631.6L283.2,633.44L280,633.44L280,631.6L278.4,631.6L276.8,633.44L275.2,633.44L272,631.6L268.8,631.6L267.2,633.44L265.6,635.36L262.4,635.36L260.8,637.28L257.6,637.28L257.6,635.36L256,635.36L256,633.44L254.4,633.44L252.8,635.36L246.4,635.36L244.8,633.44L243.2,631.6L243.2,629.728L240,629.728L238.4,627.76L238.4,625.92L236.8,625.92L235.2,624L233.6,622.16L235.2,620.272L236.8,618.32L238.4,616.48L238.4,614.56L241.6,612.64L243.2,610.8L248,610.8L249.6,612.64L251.2,612.64L252.8,614.56L264,614.56L267.2,612.64L270.4,612.64L275.2,610.8L278.4,610.8L280,608.88L283.2,606.96L284.8,605.144L286.4,605.144L286.4,606.96Z" style="fill-rule:nonzero;stroke:rgb(255,204,170);stroke-width:0.27px;"/>
                </g>
            </g>
            <g id="g796">
                <path id="polygon794" d="M294.4,622.16L292.8,620.272L297.6,618.32L296,616.48L294.4,614.56L294.4,616.48L291.2,612.64L289.6,614.56L288,610.8L288,606.96L286.4,606.96L286.4,605.144L284.8,605.144L291.2,603.2L296,603.2L299.2,599.44L302.4,599.44L302.4,597.52L304,595.688L305.6,593.76L307.2,591.84L308.8,591.84L310.4,590L312,590L312,593.76L324.8,593.76L324.8,595.688L323.2,597.52L324.8,599.44L323.2,599.44L323.2,603.2L321.6,605.144L321.6,606.96L318.4,606.96L320,610.8L320,612.64L321.6,614.56L321.6,616.48L320,618.32L318.4,618.32L313.6,620.272L310.4,622.16L313.6,627.76L312,629.728L308.8,631.6L307.2,631.6L307.2,629.728L304,627.76L302.4,627.76L296,629.728L294.4,627.76L294.4,625.92L292.8,624L294.4,624L294.4,622.16Z" style="fill-rule:nonzero;stroke:rgb(255,204,170);stroke-width:0.27px;"/>
            </g>
            <g id="g808">
                <path id="polygon806" d="M473.6,533.28L476.8,533.28L475.2,535.12L473.6,535.12L473.6,537.04L476.8,537.04L478.4,538.88L475.2,538.88L476.8,538.88L476.8,540.8L478.4,540.8L481.6,538.88L483.2,540.8L480,540.8L478.4,542.72L480,542.72L480,544.56L483.2,544.56L481.6,544.56L484.8,548.4L484.8,550.24L486.4,550.24L484.8,552.16L478.4,552.16L475.2,550.24L454.4,550.24L452.8,552.16L451.2,552.16L448,554.08L440,554.08L440,552.16L438.4,552.16L438.4,548.4L440,548.4L440,546.48L438.4,546.48L440,544.56L436.8,544.56L436.8,542.72L440,542.72L441.6,544.56L443.2,542.72L444.8,542.72L443.2,544.56L444.8,544.56L446.4,542.72L448,544.56L456,544.56L456,538.88L454.4,538.88L452.8,537.04L460.8,537.04L462.4,535.12L465.6,537.04L468.8,537.04L470.4,538.88L472,538.88L473.6,537.04L473.6,533.28Z" style="fill-rule:nonzero;stroke:rgb(255,204,170);stroke-width:0.27px;"/>
            </g>
        </g>
    </g>
    <g id="polygon942" transform="matrix(2.2089,0,0,2.21,-114.48,-922.792)">
        <path d="M228.8,514.32L230.4,512.48L232,510.56L233.6,510.56L235.2,508.64L238.4,512.48L238.4,514.32L240,514.32L240,516.24L238.4,516.24L238.4,521.92L240,521.92L240,525.68L241.6,527.6L241.6,529.44L240,527.6L240,525.68L236.8,525.68L238.4,527.6L232,527.6L232,525.68L228.8,525.68L227.2,523.76L225.6,521.92L228.8,518.08L228.8,516.24L225.6,516.24L227.2,514.32L228.8,514.32Z" style="fill:rgb(255,102,0);fill-rule:nonzero;"/>
    </g>
</svg>
