<?xml version="1.0" encoding="UTF-8" standalone="no"?><!DOCTYPE svg PUBLIC "-//W3C//DTD SVG 1.1//EN" "http://www.w3.org/Graphics/SVG/1.1/DTD/svg11.dtd"><svg width="100%" height="100%" viewBox="0 0 1936 1280" version="1.1" xmlns="http://www.w3.org/2000/svg" xmlns:xlink="http://www.w3.org/1999/xlink" xml:space="preserve" xmlns:serif="http://www.serif.com/" style="fill-rule:evenodd;clip-rule:evenodd;stroke-linecap:round;stroke-linejoin:round;stroke-miterlimit:1.5;"><g><rect id="Artboard1" x="0" y="0" width="1935.23" height="1279.7" style="fill:none;"/><g><rect x="1105.36" y="1094.73" width="161.227" height="42.093" style="fill:#fbd1a2;"/></g><g><rect x="1105.36" y="1165.99" width="161.227" height="42.093" style="fill:#00b2ca;"/></g><g><rect x="1105.08" y="1023.85" width="161.227" height="42.093" style="fill:#7dcfb6;"/></g><path d="M852.56,848.15c15.601,30.158 24.416,64.386 24.416,100.656c-0,121.171 -98.376,219.547 -219.548,219.547c-121.171,0 -219.547,-98.376 -219.547,-219.547c-0,-19.723 2.606,-38.841 7.492,-57.03c3.608,0.089 7.226,0.134 10.855,0.134c69.516,0 135.2,-16.541 193.326,-45.899c27.71,23.56 63.601,37.783 102.788,37.783c37.986,-0 72.875,-13.365 100.218,-35.644Z" style="fill:#c0c0c0;fill-opacity:0.6;"/><path d="M767.194,758.664c40.668,-42.637 72.668,-93.613 93.159,-150.089c31.247,29.012 50.81,70.438 50.81,116.397c0,49.67 -22.85,94.045 -58.603,123.178c-19.325,-37.357 -49.065,-68.47 -85.366,-89.486Z" style="fill:#c0c0c0;fill-opacity:0.6;"/><path d="M649.554,846.011c44.108,-22.278 83.863,-51.937 117.64,-87.347c36.301,21.016 66.041,52.129 85.366,89.486c-27.343,22.279 -62.232,35.644 -100.218,35.644c-39.187,-0 -75.078,-14.223 -102.788,-37.783Z" style="fill:#c0c0c0;fill-opacity:0.6;"/><path d="M594.093,738.547c-0.379,-4.475 -0.573,-9.002 -0.573,-13.575c0,-87.656 71.166,-158.821 158.822,-158.821c41.697,-0 79.662,16.103 108.011,42.424c-20.491,56.476 -52.491,107.452 -93.159,150.089c-32.299,-18.7 -69.792,-29.406 -109.766,-29.406c-22.015,0 -43.278,3.247 -63.335,9.289Z" style="fill:#7dcfb6;fill-opacity:0.6;"/><path d="M649.554,846.011c-31.041,-26.393 -51.817,-64.503 -55.461,-107.464c20.057,-6.042 41.32,-9.289 63.335,-9.289c39.974,0 77.467,10.706 109.766,29.406c-33.777,35.41 -73.532,65.069 -117.64,87.347Z" style="fill:#7dcfb6;fill-opacity:0.6;"/><path d="M445.373,891.776c-232.179,-5.768 -418.898,-196.06 -418.898,-429.618c-0,-237.187 192.566,-429.753 429.753,-429.753c237.186,0 429.752,192.566 429.752,429.753c0,51.403 -9.044,100.711 -25.627,146.417c-28.349,-26.321 -66.314,-42.424 -108.011,-42.424c-87.656,-0 -158.822,71.165 -158.822,158.821c0,4.573 0.194,9.1 0.573,13.575c-72.368,21.798 -129.039,79.972 -148.72,153.229Z" style="fill:#7dcfb6;fill-opacity:0.6;"/><path d="M445.373,891.776c19.681,-73.257 76.352,-131.431 148.72,-153.229c3.644,42.961 24.42,81.071 55.461,107.464c-58.126,29.358 -123.81,45.899 -193.326,45.899c-3.629,0 -7.247,-0.045 -10.855,-0.134Z" style="fill:#7dcfb6;fill-opacity:0.6;"/><g><text x="1285.98px" y="1058.52px" style="font-family:'ArialMT', 'Arial', sans-serif;font-size:45.129px;">cst2: residential mobility related</text></g><g><text x="1285.98px" y="1131.97px" style="font-family:'ArialMT', 'Arial', sans-serif;font-size:45.129px;">cst3: economic mobility related</text></g><g><text x="1285.98px" y="1206.15px" style="font-family:'ArialMT', 'Arial', sans-serif;font-size:45.129px;">cst4: segregation related</text></g><g><circle cx="657.019" cy="948.806" r="219.548" style="fill:none;stroke:#fff;stroke-width:4.17px;"/></g><g><circle cx="657.019" cy="948.806" r="219.548" style="fill:none;stroke:#00b2ca;stroke-width:1px;"/></g><g><circle cx="751.932" cy="724.972" r="158.822" style="fill:none;stroke:#fff;stroke-width:4.17px;"/></g><g><circle cx="751.932" cy="724.972" r="158.822" style="fill:none;stroke:#fbd1a2;stroke-width:1px;"/></g><g><circle cx="455.819" cy="462.158" r="429.753" style="fill:none;stroke:#fff;stroke-width:4.17px;"/></g><g><circle cx="455.819" cy="462.158" r="429.753" style="fill:none;stroke:#7dcfb6;stroke-width:1px;"/></g><text x="421.665px" y="472.24px" style="font-family:'ArialMT', 'Arial', sans-serif;font-size:65.916px;">a</text><text x="828.192px" y="761.446px" style="font-family:'ArialMT', 'Arial', sans-serif;font-size:65.916px;">b</text><text x="640.134px" y="1023.97px" style="font-family:'ArialMT', 'Arial', sans-serif;font-size:65.916px;">c</text><text x="707.611px" y="701.551px" style="font-family:'ArialMT', 'Arial', sans-serif;font-size:65.916px;">d</text><text x="527.449px" y="843.389px" style="font-family:'ArialMT', 'Arial', sans-serif;font-size:65.916px;">e</text><text x="749.448px" y="854.884px" style="font-family:'ArialMT', 'Arial', sans-serif;font-size:65.916px;">f</text><text x="642.307px" y="805.984px" style="font-family:'ArialMT', 'Arial', sans-serif;font-size:65.916px;">g</text><text x="1223.39px" y="112.046px" style="font-family:'ArialMT', 'Arial', sans-serif;font-size:65.916px;">group</text><text x="1696.21px" y="112.046px" style="font-family:'ArialMT', 'Arial', sans-serif;font-size:65.916px;">count</text><text x="1459.99px" y="112.046px" style="font-family:'ArialMT', 'Arial', sans-serif;font-size:65.916px;">cst</text><text x="1270.68px" y="820.654px" style="font-family:'ArialMT', 'Arial', sans-serif;font-size:65.916px;">f</text><text x="1743.84px" y="820.654px" style="font-family:'ArialMT', 'Arial', sans-serif;font-size:65.916px;">9</text><text x="1459.99px" y="820.654px" style="font-family:'ArialMT', 'Arial', sans-serif;font-size:65.916px;">3, 4</text><text x="1270.68px" y="702.544px" style="font-family:'ArialMT', 'Arial', sans-serif;font-size:65.916px;">e</text><text x="1743.84px" y="702.544px" style="font-family:'ArialMT', 'Arial', sans-serif;font-size:65.916px;">14</text><text x="1459.99px" y="702.544px" style="font-family:'ArialMT', 'Arial', sans-serif;font-size:65.916px;">2, 4</text><text x="1270.68px" y="584.434px" style="font-family:'ArialMT', 'Arial', sans-serif;font-size:65.916px;">d</text><text x="1743.84px" y="584.434px" style="font-family:'ArialMT', 'Arial', sans-serif;font-size:65.916px;">14</text><text x="1459.99px" y="584.434px" style="font-family:'ArialMT', 'Arial', sans-serif;font-size:65.916px;">2, 3</text><text x="1270.68px" y="466.323px" style="font-family:'ArialMT', 'Arial', sans-serif;font-size:65.916px;">c</text><text x="1743.84px" y="466.323px" style="font-family:'ArialMT', 'Arial', sans-serif;font-size:65.916px;">19</text><text x="1459.99px" y="466.323px" style="font-family:'ArialMT', 'Arial', sans-serif;font-size:65.916px;">4</text><text x="1270.68px" y="230.103px" style="font-family:'ArialMT', 'Arial', sans-serif;font-size:65.916px;">a</text><text x="1743.84px" y="230.103px" style="font-family:'ArialMT', 'Arial', sans-serif;font-size:65.916px;">59</text><text x="1459.99px" y="230.103px" style="font-family:'ArialMT', 'Arial', sans-serif;font-size:65.916px;">2</text><text x="1270.68px" y="348.213px" style="font-family:'ArialMT', 'Arial', sans-serif;font-size:65.916px;">b</text><text x="1743.84px" y="348.213px" style="font-family:'ArialMT', 'Arial', sans-serif;font-size:65.916px;">6</text><text x="1459.99px" y="348.213px" style="font-family:'ArialMT', 'Arial', sans-serif;font-size:65.916px;">3</text><text x="1270.68px" y="938.764px" style="font-family:'ArialMT', 'Arial', sans-serif;font-size:65.916px;">g</text><text x="1743.84px" y="938.764px" style="font-family:'ArialMT', 'Arial', sans-serif;font-size:65.916px;">5</text><text x="1459.99px" y="938.764px" style="font-family:'ArialMT', 'Arial', sans-serif;font-size:65.916px;">2, 3, 4</text></g></svg>